<svg width="580" height="213" viewBox="0 0 580 213" fill="none" xmlns="http://www.w3.org/2000/svg">
<g clip-path="url(#clip0)">
<rect y="0.5" width="580" height="212" rx="8" fill="#EEEAFD"/>
<g clip-path="url(#clip1)">
<g clip-path="url(#clip2)">
<path d="M36 43.3359C36 40.0528 38.3111 37.8914 40.9965 37.8914C42.5264 37.8914 43.7023 38.62 44.2597 39.3651L44.5079 38.137H46.6969V48.5267H44.5689L44.2597 47.2576C43.7633 47.9822 42.6078 48.7723 40.9355 48.7723C38.1687 48.7846 36 46.4962 36 43.3359ZM44.4265 43.3359C44.4265 41.3628 43.1652 40.0323 41.4522 40.0323C39.7148 40.0323 38.4576 41.4037 38.4576 43.3359C38.4576 45.2681 39.7189 46.6395 41.4522 46.6395C43.1652 46.6436 44.4265 45.3132 44.4265 43.3359Z" fill="#4B27DC"/>
<path d="M48.6055 32.5H51.0223V39.5165C51.5594 38.5995 52.715 37.8954 54.2042 37.8954C56.5803 37.8954 58.0044 39.4346 58.0044 42.1528V48.5348H55.5876V42.6523C55.5876 40.9902 54.7819 40.0733 53.4392 40.0733C52.1372 40.0733 51.0223 41.2154 51.0223 43.647V48.5307H48.6055V32.5Z" fill="#4B27DC"/>
<path d="M64.3594 48.7844C61.1776 48.7844 59.1758 46.5001 59.1758 43.3603C59.1758 40.1591 61.2631 37.8953 64.3391 37.8953C67.6877 37.8953 69.4211 40.286 69.4211 43.0492C69.4211 43.3398 69.4007 43.7123 69.3397 43.9866H61.552C61.8002 45.8574 62.9761 46.6475 64.5059 46.6475C65.8079 46.6475 66.5932 46.0048 67.0693 45.0878L69.0711 46.0253C68.3062 47.6586 66.7153 48.7844 64.3594 48.7844ZM61.5927 42.2591H66.9838C66.7967 40.7404 65.7225 39.9093 64.3391 39.9093C63.0574 39.9093 61.9019 40.593 61.5927 42.2591Z" fill="#4B27DC"/>
<path d="M70.3975 43.3359C70.3975 40.0528 72.7085 37.8914 75.394 37.8914C76.9238 37.8914 78.0997 38.62 78.6572 39.3651L78.9053 38.137H81.0944V48.5267H78.9664L78.6572 47.2576C78.1608 47.9822 77.0052 48.7723 75.3329 48.7723C72.5661 48.7846 70.3975 46.4962 70.3975 43.3359ZM78.824 43.3359C78.824 41.3628 77.5626 40.0323 75.8497 40.0323C74.1123 40.0323 72.855 41.4037 72.855 43.3359C72.855 45.2681 74.1164 46.6395 75.8497 46.6395C77.5626 46.6436 78.824 45.3132 78.824 43.3359Z" fill="#4B27DC"/>
<path d="M87.275 48.7846C84.4878 48.7846 82.2988 46.5617 82.2988 43.34C82.2988 39.9955 84.6303 37.8954 87.3604 37.8954C88.931 37.8954 90.0662 38.665 90.5829 39.4346V32.5H92.9998V48.5348H90.9328L90.6643 47.1225C90.1069 47.9904 88.8252 48.7846 87.275 48.7846ZM84.736 43.3359C84.736 45.2476 86.0177 46.619 87.751 46.619C89.464 46.619 90.7253 45.2886 90.7253 43.3359C90.7253 41.3832 89.464 40.0528 87.751 40.0528C86.0177 40.0528 84.736 41.4283 84.736 43.3359Z" fill="#4B27DC"/>
</g>
</g>
<path d="M47.556 110.517H49.5L52.812 97.7373H50.58L48.24 107.025L44.586 97.5213L40.932 107.025L38.592 97.7373H36.378L39.672 110.517H41.616L44.586 102.705L47.556 110.517ZM53.2254 106.017C53.2254 108.753 55.1874 110.697 57.9234 110.697C59.8134 110.697 61.2174 109.887 62.0274 108.609L60.5154 107.529C60.0474 108.321 59.2014 108.897 57.9414 108.897C56.4474 108.897 55.2594 107.925 55.1694 106.449H62.2434C62.2614 106.161 62.2614 105.999 62.2614 105.801C62.2614 102.903 60.2814 101.337 57.9234 101.337C55.1874 101.337 53.2254 103.371 53.2254 106.017ZM57.8514 103.011C59.0034 103.011 60.0474 103.713 60.2634 105.009H55.2594C55.5294 103.677 56.6994 103.011 57.8514 103.011ZM63.6594 102.525H65.3694V97.7373H63.6594V102.525ZM67.83 110.517H69.81V106.125C69.81 104.325 70.836 103.371 71.97 103.371C72.33 103.371 72.618 103.425 72.96 103.533V101.499C72.69 101.445 72.438 101.427 72.186 101.427C71.16 101.427 70.152 102.093 69.81 103.119V101.517H67.83V110.517ZM73.7215 106.017C73.7215 108.753 75.6835 110.697 78.4195 110.697C80.3095 110.697 81.7135 109.887 82.5235 108.609L81.0115 107.529C80.5435 108.321 79.6975 108.897 78.4375 108.897C76.9435 108.897 75.7555 107.925 75.6655 106.449H82.7395C82.7575 106.161 82.7575 105.999 82.7575 105.801C82.7575 102.903 80.7775 101.337 78.4195 101.337C75.6835 101.337 73.7215 103.371 73.7215 106.017ZM78.3475 103.011C79.4995 103.011 80.5435 103.713 80.7595 105.009H75.7555C76.0255 103.677 77.1955 103.011 78.3475 103.011ZM87.1892 110.517H89.3672L90.8072 107.169H96.5312L97.9892 110.517H100.185L94.6052 97.7373H92.7692L87.1892 110.517ZM91.6172 105.297L93.6692 100.563L95.7212 105.297H91.6172ZM101.598 110.517H103.578V106.089C103.578 104.163 104.586 103.137 105.9 103.137C107.052 103.137 107.772 104.001 107.772 105.423V110.517H109.752V105.099C109.752 102.813 108.402 101.337 106.314 101.337C105.144 101.337 104.118 101.841 103.578 102.741V97.0173H101.598V110.517ZM111.655 106.017C111.655 108.753 113.617 110.697 116.353 110.697C118.243 110.697 119.647 109.887 120.457 108.609L118.945 107.529C118.477 108.321 117.631 108.897 116.371 108.897C114.877 108.897 113.689 107.925 113.599 106.449H120.673C120.691 106.161 120.691 105.999 120.691 105.801C120.691 102.903 118.711 101.337 116.353 101.337C113.617 101.337 111.655 103.371 111.655 106.017ZM116.281 103.011C117.433 103.011 118.477 103.713 118.693 105.009H113.689C113.959 103.677 115.129 103.011 116.281 103.011ZM122.079 106.017C122.079 108.591 123.951 110.697 126.417 110.697C127.713 110.697 128.793 110.031 129.297 109.311V110.517H131.277V101.517H129.297V102.723C128.793 102.003 127.713 101.337 126.417 101.337C123.951 101.337 122.079 103.443 122.079 106.017ZM129.459 106.017C129.459 107.637 128.379 108.897 126.777 108.897C125.175 108.897 124.095 107.637 124.095 106.017C124.095 104.397 125.175 103.137 126.777 103.137C128.379 103.137 129.459 104.397 129.459 106.017ZM133.311 106.017C133.311 108.591 135.183 110.697 137.649 110.697C138.945 110.697 140.025 110.031 140.529 109.311V110.517H142.509V97.0173H140.529V102.723C140.025 102.003 138.945 101.337 137.649 101.337C135.183 101.337 133.311 103.443 133.311 106.017ZM140.691 106.017C140.691 107.637 139.611 108.897 138.009 108.897C136.407 108.897 135.327 107.637 135.327 106.017C135.327 104.397 136.407 103.137 138.009 103.137C139.611 103.137 140.691 104.397 140.691 106.017ZM149.212 106.449H157.348V104.505H149.212V106.449ZM162.177 110.517H164.355L165.795 107.169H171.519L172.977 110.517H175.173L169.593 97.7373H167.757L162.177 110.517ZM166.605 105.297L168.657 100.563L170.709 105.297H166.605ZM180.242 114.279H182.222V109.311C182.726 110.031 183.824 110.697 185.12 110.697C187.586 110.697 189.458 108.591 189.458 106.017C189.458 103.443 187.586 101.337 185.12 101.337C183.824 101.337 182.726 102.003 182.222 102.723V101.517H180.242V114.279ZM187.442 106.017C187.442 107.637 186.344 108.897 184.76 108.897C183.158 108.897 182.06 107.637 182.06 106.017C182.06 104.397 183.158 103.137 184.76 103.137C186.344 103.137 187.442 104.397 187.442 106.017ZM200.259 106.017C200.259 103.407 198.207 101.337 195.543 101.337C192.879 101.337 190.827 103.407 190.827 106.017C190.827 108.627 192.879 110.697 195.543 110.697C198.207 110.697 200.259 108.627 200.259 106.017ZM192.825 106.017C192.825 104.415 193.941 103.173 195.543 103.173C197.127 103.173 198.243 104.415 198.243 106.017C198.243 107.619 197.127 108.861 195.543 108.861C193.941 108.861 192.825 107.619 192.825 106.017ZM210.548 108.213L208.82 107.277C208.388 108.195 207.506 108.861 206.354 108.861C204.752 108.861 203.618 107.619 203.618 106.017C203.618 104.415 204.752 103.173 206.354 103.173C207.506 103.173 208.388 103.839 208.82 104.757L210.548 103.821C209.774 102.327 208.208 101.337 206.354 101.337C203.654 101.337 201.602 103.353 201.602 106.017C201.602 108.681 203.654 110.697 206.354 110.697C208.208 110.697 209.774 109.707 210.548 108.213ZM212.357 110.517H214.337V106.161L218.639 110.517H221.177L216.263 105.531L220.277 101.517H217.775L214.337 104.937V97.0173H212.357V110.517ZM220.991 106.017C220.991 108.753 222.953 110.697 225.689 110.697C227.579 110.697 228.983 109.887 229.793 108.609L228.281 107.529C227.813 108.321 226.967 108.897 225.707 108.897C224.213 108.897 223.025 107.925 222.935 106.449H230.009C230.027 106.161 230.027 105.999 230.027 105.801C230.027 102.903 228.047 101.337 225.689 101.337C222.953 101.337 220.991 103.371 220.991 106.017ZM225.617 103.011C226.769 103.011 227.813 103.713 228.029 105.009H223.025C223.295 103.677 224.465 103.011 225.617 103.011ZM237.304 110.409V108.645C237.016 108.753 236.62 108.825 236.242 108.825C235.216 108.825 234.73 108.411 234.73 107.295V103.281H237.304V101.517H234.73V99.0153H232.75V101.517H230.878V103.281H232.75V107.619C232.75 109.653 234.1 110.607 235.828 110.607C236.44 110.607 236.908 110.535 237.304 110.409ZM251.716 108.213L249.988 107.277C249.556 108.195 248.674 108.861 247.522 108.861C245.92 108.861 244.786 107.619 244.786 106.017C244.786 104.415 245.92 103.173 247.522 103.173C248.674 103.173 249.556 103.839 249.988 104.757L251.716 103.821C250.942 102.327 249.376 101.337 247.522 101.337C244.822 101.337 242.77 103.353 242.77 106.017C242.77 108.681 244.822 110.697 247.522 110.697C249.376 110.697 250.942 109.707 251.716 108.213ZM262.309 106.017C262.309 103.407 260.257 101.337 257.593 101.337C254.929 101.337 252.877 103.407 252.877 106.017C252.877 108.627 254.929 110.697 257.593 110.697C260.257 110.697 262.309 108.627 262.309 106.017ZM254.875 106.017C254.875 104.415 255.991 103.173 257.593 103.173C259.177 103.173 260.293 104.415 260.293 106.017C260.293 107.619 259.177 108.861 257.593 108.861C255.991 108.861 254.875 107.619 254.875 106.017ZM263.653 106.017C263.653 108.591 265.525 110.697 267.991 110.697C269.287 110.697 270.367 110.031 270.871 109.311V110.517H272.851V101.517H270.871V102.723C270.367 102.003 269.287 101.337 267.991 101.337C265.525 101.337 263.653 103.443 263.653 106.017ZM271.033 106.017C271.033 107.637 269.953 108.897 268.351 108.897C266.749 108.897 265.669 107.637 265.669 106.017C265.669 104.397 266.749 103.137 268.351 103.137C269.953 103.137 271.033 104.397 271.033 106.017ZM283.831 108.213L282.103 107.277C281.671 108.195 280.789 108.861 279.637 108.861C278.035 108.861 276.901 107.619 276.901 106.017C276.901 104.415 278.035 103.173 279.637 103.173C280.789 103.173 281.671 103.839 282.103 104.757L283.831 103.821C283.057 102.327 281.491 101.337 279.637 101.337C276.937 101.337 274.885 103.353 274.885 106.017C274.885 108.681 276.937 110.697 279.637 110.697C281.491 110.697 283.057 109.707 283.831 108.213ZM285.641 110.517H287.621V106.089C287.621 104.163 288.629 103.137 289.943 103.137C291.095 103.137 291.815 104.001 291.815 105.423V110.517H293.795V105.099C293.795 102.813 292.445 101.337 290.357 101.337C289.187 101.337 288.161 101.841 287.621 102.741V97.0173H285.641V110.517ZM300.564 114.279H302.544V109.311C303.048 110.031 304.146 110.697 305.442 110.697C307.908 110.697 309.78 108.591 309.78 106.017C309.78 103.443 307.908 101.337 305.442 101.337C304.146 101.337 303.048 102.003 302.544 102.723V101.517H300.564V114.279ZM307.764 106.017C307.764 107.637 306.666 108.897 305.082 108.897C303.48 108.897 302.382 107.637 302.382 106.017C302.382 104.397 303.48 103.137 305.082 103.137C306.666 103.137 307.764 104.397 307.764 106.017ZM311.149 106.017C311.149 108.591 313.021 110.697 315.487 110.697C316.783 110.697 317.863 110.031 318.367 109.311V110.517H320.347V101.517H318.367V102.723C317.863 102.003 316.783 101.337 315.487 101.337C313.021 101.337 311.149 103.443 311.149 106.017ZM318.529 106.017C318.529 107.637 317.449 108.897 315.847 108.897C314.245 108.897 313.165 107.637 313.165 106.017C313.165 104.397 314.245 103.137 315.847 103.137C317.449 103.137 318.529 104.397 318.529 106.017ZM331.327 108.213L329.599 107.277C329.167 108.195 328.285 108.861 327.133 108.861C325.531 108.861 324.397 107.619 324.397 106.017C324.397 104.415 325.531 103.173 327.133 103.173C328.285 103.173 329.167 103.839 329.599 104.757L331.327 103.821C330.553 102.327 328.987 101.337 327.133 101.337C324.433 101.337 322.381 103.353 322.381 106.017C322.381 108.681 324.433 110.697 327.133 110.697C328.987 110.697 330.553 109.707 331.327 108.213ZM333.137 110.517H335.117V106.161L339.419 110.517H341.957L337.043 105.531L341.057 101.517H338.555L335.117 104.937V97.0173H333.137V110.517ZM341.77 106.017C341.77 108.753 343.732 110.697 346.468 110.697C348.358 110.697 349.762 109.887 350.572 108.609L349.06 107.529C348.592 108.321 347.746 108.897 346.486 108.897C344.992 108.897 343.804 107.925 343.714 106.449H350.788C350.806 106.161 350.806 105.999 350.806 105.801C350.806 102.903 348.826 101.337 346.468 101.337C343.732 101.337 341.77 103.371 341.77 106.017ZM346.396 103.011C347.548 103.011 348.592 103.713 348.808 105.009H343.804C344.074 103.677 345.244 103.011 346.396 103.011ZM352.194 106.017C352.194 108.591 354.066 110.697 356.532 110.697C357.828 110.697 358.908 110.031 359.412 109.311V110.517H361.392V97.0173H359.412V102.723C358.908 102.003 357.828 101.337 356.532 101.337C354.066 101.337 352.194 103.443 352.194 106.017ZM359.574 106.017C359.574 107.637 358.494 108.897 356.892 108.897C355.29 108.897 354.21 107.637 354.21 106.017C354.21 104.397 355.29 103.137 356.892 103.137C358.494 103.137 359.574 104.397 359.574 106.017ZM45 134.517H46.872L49.896 125.517H47.79L45.828 131.709L43.776 125.517H42.264L40.194 131.709L38.25 125.517H36.162L39.186 134.517H41.058L43.02 128.685L45 134.517ZM53.6809 122.223C53.6809 121.503 53.1049 120.909 52.3669 120.909C51.6469 120.909 51.0349 121.503 51.0349 122.223C51.0349 122.961 51.6469 123.555 52.3669 123.555C53.1049 123.555 53.6809 122.961 53.6809 122.223ZM51.3769 134.517H53.3569V125.517H51.3769V134.517ZM61.3995 134.409V132.645C61.1115 132.753 60.7155 132.825 60.3375 132.825C59.3115 132.825 58.8255 132.411 58.8255 131.295V127.281H61.3995V125.517H58.8255V123.015H56.8455V125.517H54.9735V127.281H56.8455V131.619C56.8455 133.653 58.1955 134.607 59.9235 134.607C60.5355 134.607 61.0035 134.535 61.3995 134.409ZM63.2773 134.517H65.2573V130.089C65.2573 128.163 66.2653 127.137 67.5793 127.137C68.7313 127.137 69.4513 128.001 69.4513 129.423V134.517H71.4313V129.099C71.4313 126.813 70.0813 125.337 67.9933 125.337C66.8233 125.337 65.7973 125.841 65.2573 126.741V121.017H63.2773V134.517ZM80.1811 133.311C80.6851 134.031 81.7831 134.697 83.0791 134.697C85.5451 134.697 87.4171 132.591 87.4171 130.017C87.4171 127.443 85.5451 125.337 83.0791 125.337C81.7831 125.337 80.6851 126.003 80.1811 126.723V121.017H78.2011V134.517H80.1811V133.311ZM85.4011 130.017C85.4011 131.637 84.3031 132.897 82.7191 132.897C81.1171 132.897 80.0191 131.637 80.0191 130.017C80.0191 128.397 81.1171 127.137 82.7191 127.137C84.3031 127.137 85.4011 128.397 85.4011 130.017ZM91.7376 122.223C91.7376 121.503 91.1616 120.909 90.4236 120.909C89.7036 120.909 89.0916 121.503 89.0916 122.223C89.0916 122.961 89.7036 123.555 90.4236 123.555C91.1616 123.555 91.7376 122.961 91.7376 122.223ZM89.4336 134.517H91.4136V125.517H89.4336V134.517ZM99.4562 134.409V132.645C99.1682 132.753 98.7722 132.825 98.3942 132.825C97.3682 132.825 96.8822 132.411 96.8822 131.295V127.281H99.4562V125.517H96.8822V123.015H94.9022V125.517H93.0302V127.281H94.9022V131.619C94.9022 133.653 96.2522 134.607 97.9802 134.607C98.5922 134.607 99.0602 134.535 99.4562 134.409ZM100.581 130.017C100.581 132.753 102.543 134.697 105.279 134.697C107.169 134.697 108.573 133.887 109.383 132.609L107.871 131.529C107.403 132.321 106.557 132.897 105.297 132.897C103.803 132.897 102.615 131.925 102.525 130.449H109.599C109.617 130.161 109.617 129.999 109.617 129.801C109.617 126.903 107.637 125.337 105.279 125.337C102.543 125.337 100.581 127.371 100.581 130.017ZM105.207 127.011C106.359 127.011 107.403 127.713 107.619 129.009H102.615C102.885 127.677 104.055 127.011 105.207 127.011ZM111.436 130.449H116.278V128.505H111.436V130.449ZM124.821 131.907C124.821 130.431 123.885 129.639 122.301 129.171L121.383 128.901C120.501 128.649 120.303 128.271 120.303 127.839C120.303 127.299 120.915 126.993 121.509 126.993C122.247 126.993 122.823 127.353 123.219 127.911L124.587 126.867C123.957 125.877 122.895 125.337 121.545 125.337C119.745 125.337 118.341 126.309 118.323 127.911C118.305 129.243 119.115 130.233 120.681 130.665L121.473 130.881C122.553 131.205 122.859 131.511 122.859 132.033C122.859 132.663 122.265 132.987 121.563 132.987C120.645 132.987 119.763 132.537 119.403 131.745L117.945 132.789C118.593 134.067 119.961 134.697 121.563 134.697C123.417 134.697 124.821 133.635 124.821 131.907ZM129.179 122.223C129.179 121.503 128.603 120.909 127.865 120.909C127.145 120.909 126.533 121.503 126.533 122.223C126.533 122.961 127.145 123.555 127.865 123.555C128.603 123.555 129.179 122.961 129.179 122.223ZM126.875 134.517H128.855V125.517H126.875V134.517ZM130.904 134.517H138.32V132.717H133.478L138.176 127.101V125.517H130.976V127.317H135.62L130.904 132.951V134.517ZM139.569 130.017C139.569 132.753 141.531 134.697 144.267 134.697C146.157 134.697 147.561 133.887 148.371 132.609L146.859 131.529C146.391 132.321 145.545 132.897 144.285 132.897C142.791 132.897 141.603 131.925 141.513 130.449H148.587C148.605 130.161 148.605 129.999 148.605 129.801C148.605 126.903 146.625 125.337 144.267 125.337C141.531 125.337 139.569 127.371 139.569 130.017ZM144.195 127.011C145.347 127.011 146.391 127.713 146.607 129.009H141.603C141.873 127.677 143.043 127.011 144.195 127.011ZM149.993 130.017C149.993 132.591 151.865 134.697 154.331 134.697C155.627 134.697 156.707 134.031 157.211 133.311V134.517H159.191V121.017H157.211V126.723C156.707 126.003 155.627 125.337 154.331 125.337C151.865 125.337 149.993 127.443 149.993 130.017ZM157.373 130.017C157.373 131.637 156.293 132.897 154.691 132.897C153.089 132.897 152.009 131.637 152.009 130.017C152.009 128.397 153.089 127.137 154.691 127.137C156.293 127.137 157.373 128.397 157.373 130.017ZM164.195 134.067C164.375 133.779 164.501 133.455 164.501 133.095C164.501 132.249 163.817 131.529 162.953 131.529C162.089 131.529 161.405 132.249 161.405 133.095C161.405 133.761 161.819 134.301 162.287 134.517L161.045 137.163H162.269L164.195 134.067ZM177.046 131.907C177.046 130.431 176.11 129.639 174.526 129.171L173.608 128.901C172.726 128.649 172.528 128.271 172.528 127.839C172.528 127.299 173.14 126.993 173.734 126.993C174.472 126.993 175.048 127.353 175.444 127.911L176.812 126.867C176.182 125.877 175.12 125.337 173.77 125.337C171.97 125.337 170.566 126.309 170.548 127.911C170.53 129.243 171.34 130.233 172.906 130.665L173.698 130.881C174.778 131.205 175.084 131.511 175.084 132.033C175.084 132.663 174.49 132.987 173.788 132.987C172.87 132.987 171.988 132.537 171.628 131.745L170.17 132.789C170.818 134.067 172.186 134.697 173.788 134.697C175.642 134.697 177.046 133.635 177.046 131.907ZM187.398 132.213L185.67 131.277C185.238 132.195 184.356 132.861 183.204 132.861C181.602 132.861 180.468 131.619 180.468 130.017C180.468 128.415 181.602 127.173 183.204 127.173C184.356 127.173 185.238 127.839 185.67 128.757L187.398 127.821C186.624 126.327 185.058 125.337 183.204 125.337C180.504 125.337 178.452 127.353 178.452 130.017C178.452 132.681 180.504 134.697 183.204 134.697C185.058 134.697 186.624 133.707 187.398 132.213ZM191.511 122.223C191.511 121.503 190.935 120.909 190.197 120.909C189.477 120.909 188.865 121.503 188.865 122.223C188.865 122.961 189.477 123.555 190.197 123.555C190.935 123.555 191.511 122.961 191.511 122.223ZM189.207 134.517H191.187V125.517H189.207V134.517ZM193.218 130.017C193.218 132.753 195.18 134.697 197.916 134.697C199.806 134.697 201.21 133.887 202.02 132.609L200.508 131.529C200.04 132.321 199.194 132.897 197.934 132.897C196.44 132.897 195.252 131.925 195.162 130.449H202.236C202.254 130.161 202.254 129.999 202.254 129.801C202.254 126.903 200.274 125.337 197.916 125.337C195.18 125.337 193.218 127.371 193.218 130.017ZM197.844 127.011C198.996 127.011 200.04 127.713 200.256 129.009H195.252C195.522 127.677 196.692 127.011 197.844 127.011ZM204.289 134.517H206.269V130.089C206.269 128.163 207.277 127.137 208.591 127.137C209.743 127.137 210.463 128.001 210.463 129.423V134.517H212.443V129.099C212.443 126.813 211.093 125.337 209.005 125.337C207.835 125.337 206.809 125.841 206.269 126.741V125.517H204.289V134.517ZM223.275 132.213L221.547 131.277C221.115 132.195 220.233 132.861 219.081 132.861C217.479 132.861 216.345 131.619 216.345 130.017C216.345 128.415 217.479 127.173 219.081 127.173C220.233 127.173 221.115 127.839 221.547 128.757L223.275 127.821C222.501 126.327 220.935 125.337 219.081 125.337C216.381 125.337 214.329 127.353 214.329 130.017C214.329 132.681 216.381 134.697 219.081 134.697C220.935 134.697 222.501 133.707 223.275 132.213ZM224.454 130.017C224.454 132.753 226.416 134.697 229.152 134.697C231.042 134.697 232.446 133.887 233.256 132.609L231.744 131.529C231.276 132.321 230.43 132.897 229.17 132.897C227.676 132.897 226.488 131.925 226.398 130.449H233.472C233.49 130.161 233.49 129.999 233.49 129.801C233.49 126.903 231.51 125.337 229.152 125.337C226.416 125.337 224.454 127.371 224.454 130.017ZM229.08 127.011C230.232 127.011 231.276 127.713 231.492 129.009H226.488C226.758 127.677 227.928 127.011 229.08 127.011ZM235.309 130.449H240.151V128.505H235.309V130.449ZM241.926 130.017C241.926 132.591 243.798 134.697 246.264 134.697C247.56 134.697 248.64 134.031 249.144 133.311V134.517H251.124V121.017H249.144V126.723C248.64 126.003 247.56 125.337 246.264 125.337C243.798 125.337 241.926 127.443 241.926 130.017ZM249.306 130.017C249.306 131.637 248.226 132.897 246.624 132.897C245.022 132.897 243.942 131.637 243.942 130.017C243.942 128.397 245.022 127.137 246.624 127.137C248.226 127.137 249.306 128.397 249.306 130.017ZM253.807 134.517H255.787V130.125C255.787 128.325 256.813 127.371 257.947 127.371C258.307 127.371 258.595 127.425 258.937 127.533V125.499C258.667 125.445 258.415 125.427 258.163 125.427C257.137 125.427 256.129 126.093 255.787 127.119V125.517H253.807V134.517ZM262.949 122.223C262.949 121.503 262.373 120.909 261.635 120.909C260.915 120.909 260.303 121.503 260.303 122.223C260.303 122.961 260.915 123.555 261.635 123.555C262.373 123.555 262.949 122.961 262.949 122.223ZM260.645 134.517H262.625V125.517H260.645V134.517ZM268.093 134.517H269.839L273.925 125.517H271.711L268.957 131.817L266.221 125.517H264.025L268.093 134.517ZM274.446 130.017C274.446 132.753 276.408 134.697 279.144 134.697C281.034 134.697 282.438 133.887 283.248 132.609L281.736 131.529C281.268 132.321 280.422 132.897 279.162 132.897C277.668 132.897 276.48 131.925 276.39 130.449H283.464C283.482 130.161 283.482 129.999 283.482 129.801C283.482 126.903 281.502 125.337 279.144 125.337C276.408 125.337 274.446 127.371 274.446 130.017ZM279.072 127.011C280.224 127.011 281.268 127.713 281.484 129.009H276.48C276.75 127.677 277.92 127.011 279.072 127.011ZM285.518 134.517H287.498V130.089C287.498 128.163 288.506 127.137 289.82 127.137C290.972 127.137 291.692 128.001 291.692 129.423V134.517H293.672V129.099C293.672 126.813 292.322 125.337 290.234 125.337C289.064 125.337 288.038 125.841 287.498 126.741V125.517H285.518V134.517ZM305.525 134.409V132.645C305.237 132.753 304.841 132.825 304.463 132.825C303.437 132.825 302.951 132.411 302.951 131.295V127.281H305.525V125.517H302.951V123.015H300.971V125.517H299.099V127.281H300.971V131.619C300.971 133.653 302.321 134.607 304.049 134.607C304.661 134.607 305.129 134.535 305.525 134.409ZM316.063 130.017C316.063 127.407 314.011 125.337 311.347 125.337C308.683 125.337 306.631 127.407 306.631 130.017C306.631 132.627 308.683 134.697 311.347 134.697C314.011 134.697 316.063 132.627 316.063 130.017ZM308.629 130.017C308.629 128.415 309.745 127.173 311.347 127.173C312.931 127.173 314.047 128.415 314.047 130.017C314.047 131.619 312.931 132.861 311.347 132.861C309.745 132.861 308.629 131.619 308.629 130.017ZM326.839 130.017C326.839 127.407 324.787 125.337 322.123 125.337C319.459 125.337 317.407 127.407 317.407 130.017C317.407 132.627 319.459 134.697 322.123 134.697C324.787 134.697 326.839 132.627 326.839 130.017ZM319.405 130.017C319.405 128.415 320.521 127.173 322.123 127.173C323.707 127.173 324.823 128.415 324.823 130.017C324.823 131.619 323.707 132.861 322.123 132.861C320.521 132.861 319.405 131.619 319.405 130.017ZM328.83 134.517H330.81V121.017H328.83V134.517ZM339.591 131.907C339.591 130.431 338.655 129.639 337.071 129.171L336.153 128.901C335.271 128.649 335.073 128.271 335.073 127.839C335.073 127.299 335.685 126.993 336.279 126.993C337.017 126.993 337.593 127.353 337.989 127.911L339.357 126.867C338.727 125.877 337.665 125.337 336.315 125.337C334.515 125.337 333.111 126.309 333.093 127.911C333.075 129.243 333.885 130.233 335.451 130.665L336.243 130.881C337.323 131.205 337.629 131.511 337.629 132.033C337.629 132.663 337.035 132.987 336.333 132.987C335.415 132.987 334.533 132.537 334.173 131.745L332.715 132.789C333.363 134.067 334.731 134.697 336.333 134.697C338.187 134.697 339.591 133.635 339.591 131.907ZM350.964 134.409V132.645C350.676 132.753 350.28 132.825 349.902 132.825C348.876 132.825 348.39 132.411 348.39 131.295V127.281H350.964V125.517H348.39V123.015H346.41V125.517H344.538V127.281H346.41V131.619C346.41 133.653 347.76 134.607 349.488 134.607C350.1 134.607 350.568 134.535 350.964 134.409ZM361.503 130.017C361.503 127.407 359.451 125.337 356.787 125.337C354.123 125.337 352.071 127.407 352.071 130.017C352.071 132.627 354.123 134.697 356.787 134.697C359.451 134.697 361.503 132.627 361.503 130.017ZM354.069 130.017C354.069 128.415 355.185 127.173 356.787 127.173C358.371 127.173 359.487 128.415 359.487 130.017C359.487 131.619 358.371 132.861 356.787 132.861C355.185 132.861 354.069 131.619 354.069 130.017ZM39.312 157.311C39.816 158.031 40.914 158.697 42.21 158.697C44.676 158.697 46.548 156.591 46.548 154.017C46.548 151.443 44.676 149.337 42.21 149.337C40.914 149.337 39.816 150.003 39.312 150.723V145.017H37.332V158.517H39.312V157.311ZM44.532 154.017C44.532 155.637 43.434 156.897 41.85 156.897C40.248 156.897 39.15 155.637 39.15 154.017C39.15 152.397 40.248 151.137 41.85 151.137C43.434 151.137 44.532 152.397 44.532 154.017ZM57.3484 154.017C57.3484 151.407 55.2964 149.337 52.6324 149.337C49.9684 149.337 47.9164 151.407 47.9164 154.017C47.9164 156.627 49.9684 158.697 52.6324 158.697C55.2964 158.697 57.3484 156.627 57.3484 154.017ZM49.9144 154.017C49.9144 152.415 51.0304 151.173 52.6324 151.173C54.2164 151.173 55.3324 152.415 55.3324 154.017C55.3324 155.619 54.2164 156.861 52.6324 156.861C51.0304 156.861 49.9144 155.619 49.9144 154.017ZM68.1238 154.017C68.1238 151.407 66.0718 149.337 63.4078 149.337C60.7438 149.337 58.6918 151.407 58.6918 154.017C58.6918 156.627 60.7438 158.697 63.4078 158.697C66.0718 158.697 68.1238 156.627 68.1238 154.017ZM60.6898 154.017C60.6898 152.415 61.8058 151.173 63.4078 151.173C64.9918 151.173 66.1078 152.415 66.1078 154.017C66.1078 155.619 64.9918 156.861 63.4078 156.861C61.8058 156.861 60.6898 155.619 60.6898 154.017ZM76.2 155.907C76.2 154.431 75.264 153.639 73.68 153.171L72.762 152.901C71.88 152.649 71.682 152.271 71.682 151.839C71.682 151.299 72.294 150.993 72.888 150.993C73.626 150.993 74.202 151.353 74.598 151.911L75.966 150.867C75.336 149.877 74.274 149.337 72.924 149.337C71.124 149.337 69.72 150.309 69.702 151.911C69.684 153.243 70.494 154.233 72.06 154.665L72.852 154.881C73.932 155.205 74.238 155.511 74.238 156.033C74.238 156.663 73.644 156.987 72.942 156.987C72.024 156.987 71.142 156.537 70.782 155.745L69.324 156.789C69.972 158.067 71.34 158.697 72.942 158.697C74.796 158.697 76.2 157.635 76.2 155.907ZM83.5128 158.409V156.645C83.2248 156.753 82.8288 156.825 82.4508 156.825C81.4248 156.825 80.9388 156.411 80.9388 155.295V151.281H83.5128V149.517H80.9388V147.015H78.9588V149.517H77.0868V151.281H78.9588V155.619C78.9588 157.653 80.3088 158.607 82.0368 158.607C82.6488 158.607 83.1168 158.535 83.5128 158.409ZM92.085 162.279L97.863 149.517H95.667L92.913 155.889L90.141 149.517H87.963L91.833 158.031L89.907 162.279H92.085ZM107.798 154.017C107.798 151.407 105.746 149.337 103.082 149.337C100.418 149.337 98.3656 151.407 98.3656 154.017C98.3656 156.627 100.418 158.697 103.082 158.697C105.746 158.697 107.798 156.627 107.798 154.017ZM100.364 154.017C100.364 152.415 101.48 151.173 103.082 151.173C104.666 151.173 105.782 152.415 105.782 154.017C105.782 155.619 104.666 156.861 103.082 156.861C101.48 156.861 100.364 155.619 100.364 154.017ZM109.663 154.899C109.663 157.203 110.941 158.697 113.011 158.697C114.163 158.697 115.117 158.193 115.639 157.293V158.517H117.619V149.517H115.639V153.945C115.639 155.871 114.721 156.897 113.443 156.897C112.291 156.897 111.643 156.015 111.643 154.575V149.517H109.663V154.899ZM120.283 158.517H122.263V154.125C122.263 152.325 123.289 151.371 124.423 151.371C124.783 151.371 125.071 151.425 125.413 151.533V149.499C125.143 149.445 124.891 149.427 124.639 149.427C123.613 149.427 122.605 150.093 122.263 151.119V149.517H120.283V158.517ZM130.288 154.017C130.288 156.753 132.25 158.697 134.986 158.697C136.876 158.697 138.28 157.887 139.09 156.609L137.578 155.529C137.11 156.321 136.264 156.897 135.004 156.897C133.51 156.897 132.322 155.925 132.232 154.449H139.306C139.324 154.161 139.324 153.999 139.324 153.801C139.324 150.903 137.344 149.337 134.986 149.337C132.25 149.337 130.288 151.371 130.288 154.017ZM134.914 151.011C136.066 151.011 137.11 151.713 137.326 153.009H132.322C132.592 151.677 133.762 151.011 134.914 151.011ZM141.359 158.517H143.339V154.089C143.339 152.199 144.221 151.137 145.499 151.137C146.579 151.137 147.101 152.055 147.101 153.459V158.517H149.081V154.089C149.081 152.199 149.945 151.137 151.223 151.137C152.303 151.137 152.825 152.055 152.825 153.459V158.517H154.805V153.135C154.805 150.831 153.599 149.337 151.565 149.337C150.377 149.337 149.225 149.967 148.685 151.119C148.199 150.003 147.227 149.337 145.895 149.337C144.743 149.337 143.843 149.895 143.339 150.741V149.517H141.359V158.517ZM166.122 154.017C166.122 151.407 164.07 149.337 161.406 149.337C158.742 149.337 156.69 151.407 156.69 154.017C156.69 156.627 158.742 158.697 161.406 158.697C164.07 158.697 166.122 156.627 166.122 154.017ZM158.688 154.017C158.688 152.415 159.804 151.173 161.406 151.173C162.99 151.173 164.106 152.415 164.106 154.017C164.106 155.619 162.99 156.861 161.406 156.861C159.804 156.861 158.688 155.619 158.688 154.017ZM173.319 158.409V156.645C173.031 156.753 172.635 156.825 172.257 156.825C171.231 156.825 170.745 156.411 170.745 155.295V151.281H173.319V149.517H170.745V147.015H168.765V149.517H166.893V151.281H168.765V155.619C168.765 157.653 170.115 158.607 171.843 158.607C172.455 158.607 172.923 158.535 173.319 158.409ZM177.501 146.223C177.501 145.503 176.925 144.909 176.187 144.909C175.467 144.909 174.855 145.503 174.855 146.223C174.855 146.961 175.467 147.555 176.187 147.555C176.925 147.555 177.501 146.961 177.501 146.223ZM175.197 158.517H177.177V149.517H175.197V158.517ZM188.622 154.017C188.622 151.407 186.57 149.337 183.906 149.337C181.242 149.337 179.19 151.407 179.19 154.017C179.19 156.627 181.242 158.697 183.906 158.697C186.57 158.697 188.622 156.627 188.622 154.017ZM181.188 154.017C181.188 152.415 182.304 151.173 183.906 151.173C185.49 151.173 186.606 152.415 186.606 154.017C186.606 155.619 185.49 156.861 183.906 156.861C182.304 156.861 181.188 155.619 181.188 154.017ZM190.613 158.517H192.593V154.089C192.593 152.163 193.601 151.137 194.915 151.137C196.067 151.137 196.787 152.001 196.787 153.423V158.517H198.767V153.099C198.767 150.813 197.417 149.337 195.329 149.337C194.159 149.337 193.133 149.841 192.593 150.741V149.517H190.613V158.517ZM200.653 154.017C200.653 156.591 202.525 158.697 204.991 158.697C206.287 158.697 207.367 158.031 207.871 157.311V158.517H209.851V149.517H207.871V150.723C207.367 150.003 206.287 149.337 204.991 149.337C202.525 149.337 200.653 151.443 200.653 154.017ZM208.033 154.017C208.033 155.637 206.953 156.897 205.351 156.897C203.749 156.897 202.669 155.637 202.669 154.017C202.669 152.397 203.749 151.137 205.351 151.137C206.953 151.137 208.033 152.397 208.033 154.017ZM212.533 158.517H214.513V145.017H212.533V158.517ZM223.714 146.223C223.714 145.503 223.138 144.909 222.4 144.909C221.68 144.909 221.068 145.503 221.068 146.223C221.068 146.961 221.68 147.555 222.4 147.555C223.138 147.555 223.714 146.961 223.714 146.223ZM221.41 158.517H223.39V149.517H221.41V158.517ZM226.051 158.517H228.031V154.089C228.031 152.163 229.039 151.137 230.353 151.137C231.505 151.137 232.225 152.001 232.225 153.423V158.517H234.205V153.099C234.205 150.813 232.855 149.337 230.767 149.337C229.597 149.337 228.571 149.841 228.031 150.741V149.517H226.051V158.517ZM242.015 158.409V156.645C241.727 156.753 241.331 156.825 240.953 156.825C239.927 156.825 239.441 156.411 239.441 155.295V151.281H242.015V149.517H239.441V147.015H237.461V149.517H235.589V151.281H237.461V155.619C237.461 157.653 238.811 158.607 240.539 158.607C241.151 158.607 241.619 158.535 242.015 158.409ZM243.14 154.017C243.14 156.753 245.102 158.697 247.838 158.697C249.728 158.697 251.132 157.887 251.941 156.609L250.43 155.529C249.962 156.321 249.116 156.897 247.856 156.897C246.362 156.897 245.174 155.925 245.083 154.449H252.158C252.176 154.161 252.176 153.999 252.176 153.801C252.176 150.903 250.196 149.337 247.838 149.337C245.102 149.337 243.14 151.371 243.14 154.017ZM247.766 151.011C248.918 151.011 249.962 151.713 250.178 153.009H245.174C245.444 151.677 246.614 151.011 247.766 151.011ZM254.211 158.517H256.191V145.017H254.211V158.517ZM258.852 158.517H260.832V145.017H258.852V158.517ZM265.796 146.223C265.796 145.503 265.22 144.909 264.482 144.909C263.762 144.909 263.15 145.503 263.15 146.223C263.15 146.961 263.762 147.555 264.482 147.555C265.22 147.555 265.796 146.961 265.796 146.223ZM263.492 158.517H265.472V149.517H263.492V158.517ZM276.683 157.905V149.517H274.703V150.723C274.163 149.931 273.065 149.337 271.823 149.337C269.393 149.337 267.503 151.353 267.503 153.891C267.503 156.447 269.393 158.463 271.823 158.463C273.065 158.463 274.163 157.851 274.703 157.059V157.887C274.703 159.705 273.479 160.695 271.985 160.695C270.779 160.695 269.753 160.209 268.997 159.381L267.791 160.803C268.673 161.793 270.239 162.459 272.003 162.459C274.667 162.459 276.683 161.037 276.683 157.905ZM269.501 153.891C269.501 152.289 270.653 151.137 272.183 151.137C273.713 151.137 274.865 152.289 274.865 153.891C274.865 155.493 273.713 156.645 272.183 156.645C270.653 156.645 269.501 155.493 269.501 153.891ZM278.718 154.017C278.718 156.753 280.68 158.697 283.416 158.697C285.306 158.697 286.71 157.887 287.52 156.609L286.008 155.529C285.54 156.321 284.694 156.897 283.434 156.897C281.94 156.897 280.752 155.925 280.662 154.449H287.736C287.754 154.161 287.754 153.999 287.754 153.801C287.754 150.903 285.774 149.337 283.416 149.337C280.68 149.337 278.718 151.371 278.718 154.017ZM283.344 151.011C284.496 151.011 285.54 151.713 285.756 153.009H280.752C281.022 151.677 282.192 151.011 283.344 151.011ZM289.789 158.517H291.769V154.089C291.769 152.163 292.777 151.137 294.091 151.137C295.243 151.137 295.963 152.001 295.963 153.423V158.517H297.943V153.099C297.943 150.813 296.593 149.337 294.505 149.337C293.335 149.337 292.309 149.841 291.769 150.741V149.517H289.789V158.517ZM308.775 156.213L307.047 155.277C306.615 156.195 305.733 156.861 304.581 156.861C302.979 156.861 301.845 155.619 301.845 154.017C301.845 152.415 302.979 151.173 304.581 151.173C305.733 151.173 306.615 151.839 307.047 152.757L308.775 151.821C308.001 150.327 306.435 149.337 304.581 149.337C301.881 149.337 299.829 151.353 299.829 154.017C299.829 156.681 301.881 158.697 304.581 158.697C306.435 158.697 308.001 157.707 308.775 156.213ZM309.954 154.017C309.954 156.753 311.916 158.697 314.652 158.697C316.542 158.697 317.946 157.887 318.756 156.609L317.244 155.529C316.776 156.321 315.93 156.897 314.67 156.897C313.176 156.897 311.988 155.925 311.898 154.449H318.972C318.99 154.161 318.99 153.999 318.99 153.801C318.99 150.903 317.01 149.337 314.652 149.337C311.916 149.337 309.954 151.371 309.954 154.017ZM314.58 151.011C315.732 151.011 316.776 151.713 316.992 153.009H311.988C312.258 151.677 313.428 151.011 314.58 151.011ZM323.635 157.095C323.635 156.249 322.933 155.529 322.069 155.529C321.223 155.529 320.521 156.249 320.521 157.095C320.521 157.959 321.223 158.661 322.069 158.661C322.933 158.661 323.635 157.959 323.635 157.095Z" fill="#4B27DC"/>
<path d="M572.025 133.642C571.941 112.746 562.677 91.8912 544.064 77.7204C518.937 58.5157 483.193 58.8118 458.32 78.3126C439.073 93.4141 430.063 115.791 431.247 137.746C431.67 145.529 425.029 152.17 417.246 151.747C395.291 150.563 372.914 159.573 357.813 178.82C338.312 203.693 338.016 239.437 357.22 264.564C371.391 283.134 392.246 292.441 413.142 292.525C420.841 292.567 426.975 298.659 426.975 306.358C427.059 327.254 436.323 348.109 454.936 362.28C480.063 381.484 515.807 381.188 540.68 361.687C559.927 346.586 568.937 324.209 567.753 302.254C567.33 294.471 573.971 287.83 581.754 288.253C603.709 289.437 626.086 280.427 641.187 261.18C660.688 236.307 660.984 200.563 641.78 175.436C627.609 156.866 606.754 147.559 585.858 147.475C578.159 147.475 572.067 141.341 572.025 133.642Z" fill="#92DBBB"/>
<path d="M542.691 132.914L534.873 145.523H542.691L534.873 159.651" stroke="#987DF7" stroke-width="3.3807" stroke-miterlimit="10" stroke-linecap="round" stroke-linejoin="round"/>
<path d="M242.41 72.4512L238.865 74.0858C238.553 74.2259 238.437 74.6112 238.599 74.9031L240.516 78.3358C240.758 78.7678 240.377 79.2932 239.892 79.1998L236.07 78.4059C235.735 78.3358 235.412 78.5693 235.377 78.9196L234.938 82.831C234.881 83.333 234.269 83.5315 233.934 83.1579L231.301 80.2506C231.07 79.9938 230.677 79.9938 230.446 80.2506L227.814 83.1579C227.479 83.5315 226.867 83.333 226.809 82.831L226.37 78.9196C226.336 78.581 226.012 78.3475 225.677 78.4059L221.855 79.1998C221.37 79.3049 220.989 78.7795 221.232 78.3358L223.148 74.9148C223.322 74.6112 223.195 74.2376 222.883 74.0975L219.338 72.4629C218.887 72.2527 218.887 71.6105 219.338 71.4004L222.883 69.7657C223.195 69.6256 223.31 69.2403 223.148 68.9484L221.232 65.5157C220.989 65.0837 221.37 64.5583 221.855 64.6517L225.677 65.4457C226.012 65.5157 226.336 65.2822 226.37 64.9319L226.809 61.0205C226.867 60.5185 227.479 60.32 227.814 60.6936L230.446 63.6009C230.677 63.8578 231.07 63.8578 231.301 63.6009L233.934 60.6936C234.269 60.32 234.881 60.5185 234.938 61.0205L235.377 64.9319C235.412 65.2705 235.735 65.5041 236.07 65.4457L239.892 64.6517C240.377 64.5466 240.758 65.0721 240.516 65.5157L238.599 68.9368C238.426 69.2403 238.553 69.614 238.865 69.7541L242.41 71.3887C242.86 71.5988 242.86 72.241 242.41 72.4512Z" fill="#FED431"/>
<path d="M423.047 126.107C418.728 127.391 417.158 128.979 415.888 133.346C415.68 134.081 414.64 134.081 414.433 133.346C413.162 128.979 411.592 127.391 407.273 126.107C406.546 125.896 406.546 124.846 407.273 124.635C411.592 123.351 413.162 121.763 414.433 117.396C414.64 116.661 415.68 116.661 415.888 117.396C417.158 121.763 418.728 123.351 423.047 124.635C423.775 124.846 423.775 125.885 423.047 126.107Z" fill="#FF5E4D"/>
<g opacity="0.1">
<path opacity="0.1" d="M486.228 185.992C486.228 199.385 486.218 210.325 486.218 210.325H486.167C486.167 220.787 478.524 229.273 469.079 229.273C462.133 229.273 456.15 224.672 453.486 218.072C450.864 224.207 445.239 228.432 438.713 228.432C432.198 228.432 426.573 224.207 423.951 218.072C421.287 224.672 415.314 229.273 408.358 229.273C398.923 229.273 391.27 220.787 391.27 210.325H391.229C391.229 210.325 391.219 201.305 391.219 189.627C395.696 188.934 400.419 190.184 404.107 193.115C407.006 195.409 409.229 198.613 412.077 200.987C414.966 203.384 418.562 204.872 422.158 204.6C425.436 204.35 428.479 202.691 431.593 201.51C438.119 199.056 445.28 198.704 451.97 200.521C455.289 201.419 458.588 202.85 462 202.589C467.911 202.146 472.439 196.909 476.957 192.66C479.733 190.036 482.878 187.651 486.228 185.992Z" fill="#4B194E"/>
</g>
<path d="M478.484 196.273L474.417 195.989C469.069 195.614 464.1 193.342 460.044 189.423L456.837 186.311L460.617 188.492C464.828 190.911 469.53 193.07 474.601 194.887L478.484 196.273Z" fill="#E1BFF7"/>
<path d="M549.978 153.569C549.312 153.489 548.636 153.455 547.939 153.455C547.786 153.455 547.622 153.455 547.468 153.467C547.775 151.604 547.939 149.673 547.939 147.707C547.939 130.066 535.041 115.775 519.131 115.775C504.369 115.775 492.188 128.089 490.528 143.97C486.973 143.152 485.016 141.982 478.767 141.982C465.623 141.982 453.729 154.444 456.075 169.995C457.263 177.833 459.62 183.207 464.691 187.944C476.318 198.804 493.212 202.098 514.992 202.098C527.204 202.098 541.301 200.519 554.117 194.669C560.417 191.795 566.564 183.059 566.564 174.959C566.554 163.475 560.049 154.705 549.978 153.569Z" fill="#ABD7FE"/>
<path d="M509.838 171.655C508.424 171.655 506.826 171.326 505.023 170.508C503.978 170.031 503.476 168.702 503.906 167.543C504.336 166.384 505.535 165.828 506.58 166.305C510.391 168.043 512.348 166.645 513.485 165.441C514.304 164.578 515.606 164.612 516.384 165.532C517.163 166.441 517.132 167.884 516.302 168.747C514.899 170.224 512.768 171.655 509.838 171.655Z" fill="#031B0D"/>
<path d="M520.397 161.646C520.059 161.646 519.711 161.624 519.373 161.589C517.057 161.306 514.926 160.09 513.369 158.17C512.611 157.239 512.683 155.796 513.523 154.967C514.363 154.126 515.664 154.206 516.412 155.137C517.293 156.228 518.502 156.909 519.803 157.068C521.719 157.307 523.614 156.364 524.741 154.626C525.397 153.604 526.677 153.376 527.599 154.103C528.521 154.83 528.726 156.25 528.07 157.273C526.298 160.033 523.419 161.646 520.397 161.646Z" fill="#031B0D"/>
<path d="M498.024 163.204C497.665 163.204 497.296 163.182 496.927 163.136C494.612 162.841 492.491 161.603 490.955 159.672C490.207 158.729 490.289 157.297 491.129 156.468C491.979 155.639 493.27 155.73 494.018 156.661C494.889 157.752 496.087 158.456 497.399 158.627C499.314 158.876 501.21 157.956 502.347 156.218C503.013 155.207 504.293 154.98 505.205 155.718C506.117 156.457 506.322 157.877 505.656 158.888C503.883 161.614 501.025 163.204 498.024 163.204Z" fill="#031B0D"/>
<path d="M444.523 151.833C440.876 151.833 437.761 150.277 435.241 147.164C434.483 146.233 434.555 144.801 435.395 143.961C436.235 143.12 437.526 143.188 438.284 144.131C440.907 147.346 444.246 148.084 448.826 146.46C449.901 146.074 451.059 146.733 451.407 147.925C451.756 149.118 451.162 150.402 450.086 150.788C448.109 151.481 446.254 151.833 444.523 151.833Z" fill="#031B0D"/>
<path d="M429.466 137.27C424.958 137.27 420.778 134.555 418.566 130.204C418.012 129.114 418.361 127.728 419.344 127.114C420.328 126.501 421.578 126.887 422.131 127.978C423.616 130.908 426.434 132.737 429.466 132.737C431.535 132.737 433.533 131.897 435.07 130.363C435.91 129.523 437.211 129.602 437.959 130.534C438.717 131.454 438.645 132.885 437.805 133.726C435.51 136.009 432.55 137.27 429.466 137.27Z" fill="#031B0D"/>
<path d="M461.46 140.69C457.27 140.69 453.315 138.35 451 134.431C450.375 133.386 450.642 131.977 451.594 131.284C452.537 130.591 453.807 130.887 454.432 131.932C456.092 134.749 459.022 136.362 462.034 136.124C464.103 135.965 466.039 134.976 467.484 133.329C468.273 132.432 469.574 132.409 470.383 133.284C471.192 134.158 471.213 135.601 470.424 136.498C468.273 138.941 465.394 140.418 462.321 140.656C462.023 140.69 461.747 140.69 461.46 140.69Z" fill="#031B0D"/>
<path d="M444.366 141.751C445.577 141.751 446.559 140.663 446.559 139.32C446.559 137.977 445.577 136.889 444.366 136.889C443.155 136.889 442.174 137.977 442.174 139.32C442.174 140.663 443.155 141.751 444.366 141.751Z" fill="#FFDD4D"/>
<path d="M486.266 142.812C484.422 142.347 482.271 141.972 478.767 141.972C465.623 141.972 453.729 154.433 456.075 169.985C457.263 177.823 459.62 183.196 464.691 187.933C470.551 193.409 477.743 196.953 486.225 199.134C486.246 183.185 486.266 154.536 486.266 142.812Z" fill="#DEF6F6"/>
<path d="M487.164 141.344C487.164 141.41 487.154 141.977 487.154 142.936C487.154 143.383 487.154 143.907 487.154 144.517C487.154 144.997 487.174 145.52 487.174 146.098C487.174 146.589 486.968 147.123 486.968 147.679C486.968 148.181 487.133 148.715 487.133 149.26C487.133 149.772 487.081 150.296 487.081 150.841C487.081 151.353 486.916 151.877 486.916 152.422C486.916 152.934 486.782 153.469 486.782 154.003C486.782 154.515 487.05 155.05 487.05 155.584C487.05 156.107 487.216 156.63 487.216 157.165C487.216 157.688 486.792 158.211 486.792 158.746C486.792 159.269 486.947 159.792 486.947 160.327C486.947 160.85 487.185 161.373 487.185 161.907C487.185 162.431 486.937 162.954 486.937 163.488C486.937 164.012 487.226 164.546 487.226 165.069C487.226 165.593 486.937 166.127 486.937 166.65C486.937 167.174 486.751 167.708 486.751 168.231C486.751 168.755 487.216 169.289 487.216 169.823C487.216 170.346 487.216 170.881 487.216 171.404C487.216 171.927 487.185 172.462 487.185 172.985C487.185 173.508 486.999 174.042 486.999 174.577C486.999 175.111 486.957 175.634 486.957 176.169C486.957 176.703 486.865 177.226 486.865 177.76C486.865 178.295 486.844 178.818 486.844 179.352C486.844 179.886 486.792 180.41 486.792 180.944C486.792 181.478 486.772 182.013 486.772 182.536C486.772 183.07 486.854 183.604 486.854 184.128C486.854 184.662 486.761 185.196 486.761 185.72C486.761 186.254 486.906 186.788 486.906 187.311C486.906 187.846 487.174 188.38 487.174 188.903C487.174 189.437 487.257 189.972 487.257 190.495C487.257 191.029 486.751 191.564 486.751 192.087C486.751 192.621 486.999 193.155 486.999 193.679C486.999 194.213 487.05 194.747 487.05 195.271C487.05 195.805 486.947 196.339 486.947 196.851C486.947 197.386 486.865 197.92 486.865 198.432C486.865 198.978 486.916 199.501 486.916 200.024C486.916 200.569 487.03 201.104 487.03 201.616C487.03 202.161 487.05 202.695 487.05 203.208C487.05 203.764 487.071 204.287 487.071 204.789C487.071 205.345 486.741 205.879 486.741 206.37C486.741 206.948 487.154 207.471 487.154 207.951C487.154 208.561 487.216 209.085 487.216 209.532C487.216 210.546 487.247 210.338 487.174 211.123C487.174 211.145 487.164 211.102 487.164 211.123C487.164 211.658 486.937 212.159 486.895 212.683C486.854 213.217 486.854 213.751 486.772 214.274C486.689 214.798 486.658 215.354 486.534 215.855C486.4 216.368 486.307 216.913 486.132 217.404C485.956 217.905 485.522 218.298 485.316 218.777C485.099 219.257 485.078 219.857 484.831 220.304C484.583 220.762 484.253 221.187 483.964 221.623C483.674 222.059 483.323 222.462 483.003 222.866C482.683 223.269 482.25 223.586 481.899 223.956C481.548 224.327 481.228 224.752 480.846 225.09C480.464 225.428 480.071 225.777 479.658 226.082C479.245 226.388 478.843 226.726 478.409 226.987C477.976 227.249 477.532 227.532 477.077 227.761C476.623 227.979 476.148 228.187 475.673 228.372C475.209 228.557 474.703 228.688 474.218 228.83C473.732 228.961 473.237 229.113 472.741 229.211C472.256 229.299 471.73 229.211 471.224 229.255C470.728 229.299 470.222 229.44 469.716 229.44C469.2 229.44 468.684 229.364 468.189 229.31C467.683 229.266 467.146 229.31 466.65 229.222C466.144 229.124 465.639 228.972 465.153 228.83C464.658 228.688 464.214 228.383 463.739 228.197C463.264 228.012 462.892 227.587 462.428 227.358C461.963 227.129 461.488 226.965 461.055 226.693C460.621 226.42 460.218 226.104 459.806 225.788C459.393 225.472 458.773 225.428 458.391 225.079C458.009 224.73 457.885 224.076 457.534 223.695C457.183 223.313 456.791 222.975 456.461 222.561C456.141 222.146 455.583 221.906 455.304 221.459C455.015 221.012 455.098 220.336 454.85 219.868C454.602 219.399 454.231 218.755 454.024 218.265C453.818 218.723 453.415 219.333 453.178 219.769C452.94 220.206 452.651 220.587 452.372 221.002C452.094 221.416 452.011 221.972 451.701 222.353C451.392 222.735 451.144 223.182 450.803 223.542C450.462 223.902 450.122 224.272 449.76 224.589C449.399 224.916 448.914 225.09 448.521 225.374C448.129 225.657 447.623 225.733 447.21 225.984C446.797 226.235 446.55 226.813 446.116 227.02C445.682 227.227 445.135 227.14 444.681 227.314C444.237 227.489 443.772 227.543 443.308 227.674C442.854 227.805 442.42 228.001 441.945 228.078C441.481 228.165 441.006 228.132 440.531 228.176C440.056 228.219 439.602 228.699 439.116 228.699C438.59 228.699 438.084 228.416 437.568 228.361C437.052 228.306 436.525 228.339 436.019 228.241C435.513 228.143 435.018 227.947 434.522 227.794C434.027 227.641 433.469 227.641 432.994 227.445C432.509 227.249 432.055 226.944 431.601 226.693C431.136 226.442 430.692 226.148 430.258 225.864C429.825 225.57 429.515 225.09 429.102 224.752C428.689 224.414 428.348 224.033 427.967 223.651C427.595 223.28 427.213 222.931 426.862 222.517C426.521 222.114 426.304 221.612 426.005 221.176C425.706 220.74 425.355 220.347 425.096 219.879C424.838 219.41 424.456 218.952 424.229 218.461C424.023 218.952 423.734 219.453 423.486 219.922C423.238 220.391 422.918 220.805 422.629 221.241C422.34 221.688 422.061 222.125 421.741 222.539C421.421 222.953 421.194 223.455 420.843 223.836C420.492 224.218 419.996 224.447 419.614 224.796C419.232 225.145 418.799 225.406 418.386 225.722C417.973 226.039 417.756 226.649 417.312 226.922C416.879 227.194 416.3 227.194 415.836 227.423C415.382 227.652 414.969 227.99 414.483 228.176C414.009 228.361 413.513 228.492 413.017 228.634C412.532 228.775 412.006 228.743 411.51 228.83C411.015 228.928 410.55 229.31 410.044 229.353C409.538 229.397 409.022 229.32 408.506 229.32C408 229.32 407.484 229.419 406.988 229.375C406.482 229.331 405.966 229.288 405.481 229.19C404.985 229.102 404.572 228.634 404.087 228.492C403.602 228.35 403.014 228.546 402.549 228.372C402.074 228.187 401.579 228.034 401.124 227.816C400.67 227.587 400.443 226.9 400.009 226.638C399.576 226.377 399.183 226.071 398.77 225.766C398.357 225.461 397.975 225.156 397.594 224.818C397.212 224.48 396.809 224.185 396.448 223.814C396.097 223.444 395.632 223.182 395.312 222.779C394.992 222.375 394.486 222.103 394.197 221.667C393.908 221.23 393.887 220.609 393.639 220.151C393.392 219.693 393.34 219.137 393.123 218.657C392.917 218.178 392.452 217.818 392.277 217.316C392.101 216.826 391.946 216.313 391.812 215.801C391.688 215.288 391.791 214.732 391.699 214.209C391.616 213.697 391.182 213.217 391.141 212.683C391.1 212.159 391.358 211.603 391.358 211.069C391.358 211.047 391.471 211.08 391.471 211.058C391.409 210.273 391.141 210.513 391.141 209.499C391.141 209.052 391.224 208.529 391.224 207.918C391.224 207.438 391.048 206.915 391.048 206.337C391.048 205.846 391.027 205.312 391.027 204.756C391.027 204.255 391.378 203.72 391.378 203.175C391.378 202.663 391.172 202.139 391.172 201.594C391.172 201.082 391.007 200.558 391.007 200.013C391.007 199.501 391.058 198.967 391.058 198.432C391.058 197.92 391.182 197.386 391.182 196.851C391.182 196.328 391.399 195.805 391.389 195.271C391.389 194.747 391.234 194.224 391.234 193.69C391.234 193.166 391.409 192.643 391.409 192.109C391.409 191.585 391.131 191.062 391.131 190.528C391.131 190.004 391.048 189.47 391.048 188.947C391.048 188.423 391.12 187.9 391.12 187.366C391.12 186.843 391.358 186.319 391.358 185.785C391.358 185.262 391.193 184.727 391.193 184.204C391.193 183.681 391.141 183.146 391.141 182.623C391.141 182.1 391.151 181.565 391.151 181.042C391.151 180.508 391.089 179.985 391.089 179.45C391.089 178.916 391.327 178.393 391.327 177.858C391.327 177.324 391.306 176.801 391.306 176.267C391.306 175.732 391.089 175.209 391.089 174.675C391.089 174.141 391.296 173.617 391.296 173.083C391.296 172.549 391.172 172.025 391.172 171.491C391.172 170.957 391.027 170.434 391.027 169.899C391.027 169.365 391.275 168.842 391.275 168.318C391.275 167.784 391.265 167.25 391.265 166.737C391.265 166.203 391.368 165.669 391.368 165.146C391.368 164.611 391.224 164.077 391.224 163.554C391.224 163.009 391.409 162.485 391.409 161.962C391.409 161.417 391.368 160.893 391.368 160.37C391.368 159.825 391.058 159.302 391.058 158.789C391.058 158.244 391.265 157.71 391.265 157.208C391.265 156.652 391.017 156.129 391.017 155.627C391.017 155.06 391.265 154.537 391.265 154.046C391.265 153.469 391.089 152.934 391.089 152.466C391.089 151.833 391.12 151.299 391.12 150.885C391.12 150.361 391.131 149.838 391.141 149.315C391.151 148.791 391.162 148.268 391.172 147.745C391.193 147.221 391.234 146.698 391.265 146.174C391.286 145.651 391.585 145.15 391.626 144.626C391.657 144.103 391.234 143.536 391.275 143.024C391.317 142.5 391.802 142.02 391.853 141.497C391.905 140.974 391.998 140.461 392.06 139.949C392.122 139.426 392.184 138.913 392.246 138.39C392.318 137.866 392.111 137.31 392.184 136.787C392.266 136.264 392.39 135.762 392.483 135.25C392.576 134.737 392.607 134.203 392.7 133.691C392.793 133.178 392.844 132.644 392.948 132.131C393.051 131.619 393.134 131.096 393.247 130.583C393.361 130.071 393.526 129.569 393.65 129.068C393.774 128.555 394.135 128.119 394.269 127.618C394.403 127.116 394.548 126.615 394.692 126.113C394.837 125.612 394.713 125.012 394.868 124.521C395.023 124.02 395.291 123.562 395.456 123.071C395.622 122.58 396.024 122.177 396.2 121.686C396.375 121.196 396.613 120.738 396.799 120.247C396.984 119.757 396.891 119.146 397.088 118.666C397.284 118.187 397.397 117.663 397.614 117.184C397.821 116.704 398.285 116.355 398.502 115.886C398.719 115.417 398.925 114.938 399.152 114.48C399.38 114.011 399.493 113.487 399.741 113.029C399.978 112.572 400.402 112.223 400.649 111.765C400.897 111.307 401.197 110.893 401.465 110.445C401.733 109.998 401.95 109.53 402.229 109.104C402.508 108.668 402.683 108.167 402.972 107.742C403.261 107.316 403.643 106.957 403.943 106.542C404.242 106.117 404.634 105.779 404.934 105.376C405.244 104.961 405.336 104.373 405.656 103.969C405.977 103.566 406.173 103.042 406.503 102.661C406.833 102.268 407.443 102.148 407.783 101.767C408.124 101.385 408.217 100.742 408.568 100.371C408.919 100 409.456 99.8369 409.827 99.4771C410.189 99.1173 410.612 98.8338 410.994 98.4959C411.366 98.1579 411.81 97.9071 412.202 97.58C412.584 97.2529 412.842 96.7514 413.234 96.4352C413.616 96.1735 413.926 95.7374 414.339 95.4321C414.742 95.1268 415.206 94.9088 415.619 94.6253C416.032 94.3418 416.414 93.982 416.837 93.7204C417.261 93.4478 417.746 93.2842 418.179 93.0335C418.613 92.7827 419.047 92.5101 419.491 92.2812C419.934 92.0413 420.327 91.6924 420.781 91.4743C421.235 91.2563 421.721 91.1255 422.185 90.9292C422.639 90.7329 423.145 90.6348 423.61 90.4495C424.074 90.2641 424.549 90.1006 425.014 89.937C425.478 89.7735 426.005 89.8062 426.49 89.6536C426.965 89.5009 427.44 89.3701 427.915 89.2392C428.39 89.1084 428.782 88.5415 429.267 88.4324C429.753 88.3234 430.31 88.6069 430.806 88.5196C431.291 88.4215 431.755 88.1598 432.241 88.0835C432.726 88.0072 433.242 88.1053 433.738 88.0399C434.223 87.9854 434.729 88.0617 435.224 88.0181C435.72 87.9745 436.195 87.7128 436.69 87.6801C437.175 87.6365 437.671 87.4839 438.167 87.473C438.662 87.4621 439.158 87.7455 439.653 87.7564C440.149 87.7673 440.634 87.7782 441.14 87.8001C441.635 87.8219 442.131 87.7782 442.626 87.8219C443.122 87.8546 443.597 88.0726 444.092 88.1271C444.578 88.1817 445.115 87.8764 445.61 87.9418C446.095 88.0072 446.601 88.0072 447.097 88.0944C447.582 88.1708 448.088 88.1926 448.583 88.2798C449.069 88.3779 449.502 88.7813 449.987 88.8903C450.473 88.9994 450.968 89.043 451.453 89.1629C451.939 89.2829 452.465 89.2392 452.94 89.3701C453.425 89.5009 453.828 89.9261 454.303 90.0679C454.788 90.2096 455.232 90.4386 455.707 90.5912C456.192 90.7439 456.688 90.7984 457.152 90.951C457.627 91.1146 458.071 91.3544 458.536 91.518C459.011 91.6924 459.537 91.6815 459.991 91.8669C460.456 92.0522 460.9 92.3139 461.344 92.5101C461.808 92.7173 462.242 92.9681 462.686 93.1861C463.14 93.4042 463.698 93.3824 464.142 93.6113C464.596 93.8403 464.947 94.2655 465.38 94.5054C465.824 94.7561 466.217 95.0832 466.64 95.334C467.074 95.5957 467.538 95.7919 467.951 96.0645C468.374 96.348 468.922 96.4134 469.324 96.7078C469.737 97.0021 470.098 97.3728 470.491 97.689C470.893 98.0052 471.234 98.3977 471.616 98.7248C472.008 99.0519 472.39 99.379 472.762 99.7279C473.134 100.077 473.557 100.371 473.908 100.731C474.269 101.091 474.672 101.418 475.013 101.789C475.353 102.17 475.529 102.715 475.849 103.108C476.169 103.5 476.334 104.035 476.634 104.449C476.943 104.863 477.294 105.223 477.583 105.648C477.872 106.073 478.058 106.564 478.327 107C478.595 107.436 479.266 107.611 479.524 108.058C479.782 108.505 479.886 109.05 480.123 109.508C480.36 109.966 480.433 110.511 480.65 110.98C480.866 111.449 481.259 111.83 481.465 112.299C481.672 112.768 482.023 113.193 482.208 113.673C482.394 114.153 482.57 114.654 482.745 115.145C482.921 115.635 482.714 116.268 482.879 116.758C483.034 117.249 483.427 117.663 483.571 118.165C483.716 118.655 483.674 119.222 483.809 119.724C483.943 120.225 483.953 120.76 484.077 121.261C484.201 121.763 484.521 122.21 484.635 122.722C484.748 123.224 484.81 123.747 484.913 124.26C485.017 124.761 485.068 125.284 485.161 125.797C485.254 126.309 485.264 126.833 485.347 127.356C485.429 127.868 485.719 128.348 485.801 128.861C485.873 129.373 485.708 129.929 485.781 130.452C485.853 130.965 485.977 131.477 486.039 131.99C486.101 132.502 486.452 132.982 486.503 133.505C486.555 134.018 486.441 134.563 486.493 135.086C486.544 135.599 486.823 136.1 486.865 136.624C486.906 137.136 486.689 137.681 486.73 138.204C486.772 138.728 486.875 139.24 486.906 139.764C486.957 140.309 487.133 140.821 487.164 141.344Z" fill="#E1BFF7"/>
<path d="M486.266 185.935C486.266 186.48 486.46 187.082 486.46 187.628C486.46 188.173 486.378 188.718 486.378 189.252C486.378 189.797 486.081 190.343 486.081 190.877C486.081 191.422 486.01 191.967 486.01 192.501C486.01 193.046 486.44 193.592 486.44 194.125C486.44 194.671 486.204 195.216 486.204 195.75C486.204 196.307 486.225 196.84 486.225 197.374C486.225 197.931 486.03 198.465 486.03 198.999C486.03 199.555 486.163 200.101 486.163 200.623C486.163 201.18 486.471 201.725 486.471 202.248C486.471 202.816 486.378 203.35 486.378 203.872C486.378 204.44 486.102 204.985 486.102 205.497C486.102 206.087 485.969 206.621 485.969 207.11C485.969 207.735 486.235 208.268 486.235 208.723C486.235 209.768 486.153 209.518 486.071 210.325C486.071 210.347 486.143 210.313 486.132 210.336C486.132 210.893 486.378 211.472 486.337 212.017C486.296 212.574 486.071 213.108 485.989 213.653C485.907 214.198 485.825 214.755 485.692 215.289C485.559 215.823 485.272 216.3 485.098 216.822C484.924 217.345 484.688 217.822 484.473 218.322C484.258 218.822 484.186 219.401 483.93 219.878C483.684 220.355 483.325 220.764 483.039 221.219C482.752 221.673 482.608 222.252 482.28 222.673C481.963 223.093 481.328 223.207 480.979 223.593C480.631 223.979 480.395 224.502 480.016 224.854C479.637 225.206 479.238 225.524 478.828 225.842C478.418 226.16 478.07 226.58 477.64 226.853C477.209 227.126 476.718 227.273 476.267 227.512C475.816 227.739 475.417 228.137 474.956 228.33C474.494 228.523 473.982 228.602 473.501 228.75C473.019 228.886 472.476 228.648 471.985 228.739C471.503 228.83 471.032 228.977 470.53 229.023C470.038 229.068 469.557 229.205 469.055 229.205C468.542 229.205 468.03 229.488 467.528 229.443C467.026 229.398 466.575 228.909 466.084 228.818C465.582 228.716 465.09 228.693 464.608 228.546C464.117 228.398 463.533 228.568 463.061 228.375C462.59 228.182 462.17 227.796 461.719 227.557C461.258 227.319 460.756 227.16 460.326 226.876C459.896 226.592 459.568 226.092 459.168 225.774C458.759 225.444 458.257 225.24 457.878 224.876C457.498 224.513 457.365 223.854 457.007 223.456C456.658 223.059 456.105 222.866 455.777 222.434C455.46 222.002 455.275 221.457 454.999 220.991C454.712 220.526 454.394 220.094 454.148 219.605C453.903 219.117 453.687 218.504 453.483 217.992C453.278 218.47 452.919 218.969 452.683 219.424C452.448 219.878 452.274 220.367 451.997 220.798C451.72 221.23 451.546 221.741 451.239 222.139C450.932 222.536 450.727 223.059 450.389 223.434C450.051 223.809 449.467 223.877 449.098 224.206C448.739 224.547 448.432 224.967 448.043 225.263C447.653 225.558 447.274 225.887 446.864 226.149C446.455 226.41 445.963 226.501 445.533 226.728C445.102 226.944 444.611 226.955 444.16 227.137C443.719 227.319 443.351 227.716 442.89 227.853C442.439 227.989 442.008 228.296 441.537 228.387C441.076 228.477 440.554 228.114 440.082 228.159C439.611 228.205 439.16 228.307 438.689 228.307C438.167 228.307 437.644 228.58 437.142 228.534C436.63 228.477 436.087 228.512 435.595 228.409C435.093 228.307 434.663 227.807 434.171 227.648C433.68 227.489 433.075 227.66 432.604 227.455C432.122 227.251 431.723 226.819 431.262 226.569C430.801 226.308 430.289 226.149 429.858 225.842C429.428 225.535 429.151 224.967 428.752 224.615C428.342 224.263 428.004 223.854 427.635 223.468C427.266 223.082 426.734 222.866 426.396 222.434C426.057 222.014 425.699 221.582 425.402 221.128C425.105 220.673 425.074 220.014 424.818 219.526C424.562 219.037 424.162 218.367 423.937 217.856C423.732 218.367 423.517 219.151 423.281 219.64C423.035 220.128 422.564 220.457 422.287 220.912C422.001 221.378 421.867 221.946 421.55 222.377C421.232 222.809 420.771 223.093 420.423 223.491C420.075 223.888 419.993 224.627 419.614 224.99C419.234 225.354 418.62 225.399 418.21 225.728C417.8 226.058 417.544 226.649 417.104 226.933C416.673 227.217 416.13 227.307 415.68 227.546C415.229 227.785 414.747 227.955 414.266 228.148C413.795 228.341 413.354 228.648 412.862 228.796C412.381 228.943 411.899 229.182 411.397 229.273C410.905 229.375 410.373 229.295 409.871 229.341C409.369 229.386 408.867 229.148 408.355 229.148C407.853 229.148 407.361 229.205 406.869 229.159C406.367 229.114 405.855 229.193 405.373 229.102C404.882 229.011 404.349 229.045 403.878 228.898C403.396 228.75 402.956 228.432 402.484 228.239C402.013 228.046 401.675 227.546 401.224 227.307C400.773 227.069 400.261 226.989 399.831 226.717C399.401 226.444 398.858 226.342 398.448 226.035C398.038 225.717 397.864 225.058 397.485 224.706C397.106 224.354 396.655 224.093 396.307 223.706C395.958 223.32 395.467 223.059 395.149 222.639C394.832 222.218 394.555 221.741 394.278 221.287C393.991 220.832 394.022 220.173 393.776 219.685C393.53 219.208 392.977 218.913 392.762 218.413C392.557 217.913 392.701 217.254 392.526 216.743C392.352 216.232 392.219 215.72 392.086 215.187C391.963 214.653 391.4 214.232 391.307 213.687C391.225 213.153 391.369 212.562 391.328 212.006C391.287 211.461 391.092 210.927 391.092 210.37C391.092 210.347 391.113 210.393 391.113 210.37C391.051 209.575 391.297 209.791 391.297 208.768C391.297 208.325 391.41 207.791 391.41 207.178C391.41 206.701 391.4 206.167 391.4 205.588C391.4 205.088 391.041 204.554 391.041 203.997C391.041 203.486 391.02 202.963 391.02 202.407C391.02 201.896 391.441 201.362 391.441 200.816C391.441 200.305 391.031 199.771 391.031 199.226C391.031 198.703 391.133 198.181 391.133 197.636C391.133 197.113 391.348 196.579 391.348 196.045C391.348 195.523 391.359 194.989 391.359 194.455C391.359 193.932 391 193.398 391 192.865C391 192.342 391.256 191.808 391.256 191.263C391.256 190.74 391.102 190.104 391.102 189.57C391.604 189.491 392.199 189.457 392.701 189.434C393.203 189.4 393.705 189.638 394.207 189.65C394.709 189.672 395.19 189.82 395.692 189.877C396.194 189.945 396.676 190.002 397.167 190.104C397.659 190.218 398.243 189.888 398.735 190.047C399.216 190.206 399.565 190.808 400.036 191.002C400.507 191.195 401.009 191.274 401.47 191.513C401.921 191.751 402.454 191.842 402.884 192.126C403.314 192.41 403.826 192.603 404.236 192.921C404.646 193.251 404.933 193.785 405.322 194.148C405.711 194.512 405.968 195.046 406.336 195.432C406.715 195.818 407.217 196.034 407.586 196.432C407.955 196.829 408.18 197.363 408.549 197.761C408.918 198.158 409.256 198.579 409.625 198.965C409.994 199.351 410.506 199.567 410.895 199.942C411.285 200.305 411.52 200.896 411.92 201.237C412.33 201.577 412.842 201.793 413.282 202.1C413.723 202.407 414.296 202.429 414.758 202.679C415.219 202.941 415.649 203.236 416.13 203.441C416.612 203.645 417.011 204.145 417.503 204.304C417.995 204.463 418.517 204.622 419.03 204.724C419.542 204.815 420.085 204.838 420.597 204.872C421.109 204.906 421.652 204.917 422.164 204.872C422.636 204.838 423.117 204.758 423.588 204.667C424.049 204.576 424.51 204.395 424.972 204.27C425.422 204.145 425.904 204.065 426.355 203.906C426.805 203.747 427.236 203.531 427.686 203.361C428.127 203.179 428.588 203.066 429.028 202.884C429.469 202.702 429.868 202.407 430.309 202.236C430.75 202.055 431.077 201.532 431.528 201.362C431.989 201.191 432.542 201.271 433.014 201.112C433.485 200.953 433.936 200.714 434.417 200.589C434.899 200.453 435.37 200.282 435.851 200.169C436.333 200.055 436.855 200.169 437.337 200.078C437.818 199.987 438.3 199.896 438.792 199.828C439.283 199.76 439.744 199.476 440.236 199.43C440.728 199.385 441.22 199.294 441.711 199.271C442.203 199.249 442.705 199.419 443.197 199.419C443.689 199.419 444.18 199.34 444.672 199.351C445.164 199.374 445.656 199.465 446.147 199.499C446.639 199.544 447.151 199.396 447.643 199.465C448.135 199.533 448.575 199.953 449.067 200.044C449.549 200.135 450.01 200.362 450.491 200.476C450.973 200.578 451.454 200.669 451.925 200.794C452.397 200.919 452.919 200.816 453.39 200.964C453.862 201.112 454.353 201.169 454.825 201.316C455.296 201.464 455.788 201.532 456.259 201.657C456.73 201.793 457.212 201.861 457.693 201.975C458.175 202.089 458.605 202.441 459.086 202.509C459.568 202.589 460.06 202.713 460.541 202.736C461.023 202.759 461.525 202.827 462.016 202.793C462.518 202.759 463 202.52 463.471 202.418C463.963 202.316 464.393 202.009 464.854 201.85C465.325 201.691 465.899 201.827 466.35 201.612C466.801 201.396 467.21 201.055 467.651 200.794C468.081 200.532 468.409 200.067 468.829 199.771C469.249 199.487 469.659 199.203 470.059 198.874C470.458 198.556 470.796 198.158 471.185 197.817C471.575 197.488 472.077 197.306 472.456 196.954C472.835 196.602 473.081 196.079 473.45 195.716C473.829 195.364 474.197 195 474.566 194.637C474.935 194.273 475.365 193.989 475.744 193.637C476.123 193.273 476.451 192.865 476.82 192.512C477.168 192.183 477.763 192.172 478.121 191.842C478.48 191.524 478.859 191.24 479.228 190.922C479.596 190.615 479.893 190.206 480.273 189.911C480.652 189.616 480.979 189.252 481.369 188.968C481.758 188.684 482.26 188.616 482.649 188.343C483.049 188.082 483.387 187.719 483.786 187.469C484.196 187.219 484.493 186.742 484.903 186.514C485.323 186.253 485.846 186.14 486.266 185.935Z" fill="#D2ADE6"/>
<path d="M478.344 196.296L474.256 196.012C474.093 196.001 473.949 196.035 473.775 196.069C473.539 196.114 473.273 196.171 472.955 196.126C472.617 196.08 472.32 195.898 472.064 195.751C471.89 195.637 471.716 195.535 471.572 195.512C471.408 195.478 471.214 195.489 471.009 195.489C470.732 195.501 470.425 195.512 470.118 195.433C469.831 195.353 469.554 195.239 469.278 195.115C469.103 195.035 468.929 194.967 468.755 194.899C468.458 194.796 468.202 194.637 467.966 194.49C467.802 194.388 467.628 194.274 467.454 194.206C467.28 194.138 467.095 194.104 466.901 194.069C466.634 194.024 466.327 193.967 466.04 193.82C465.6 193.604 465.159 193.376 464.739 193.138C464.463 192.979 464.237 192.763 464.032 192.559C463.889 192.422 463.745 192.275 463.581 192.172C463.418 192.059 463.243 191.979 463.059 191.888C462.803 191.763 462.537 191.638 462.291 191.445C462.137 191.32 461.963 191.218 461.799 191.116C461.543 190.957 461.287 190.798 461.061 190.605C460.815 190.389 460.651 190.173 460.508 189.98C460.406 189.844 460.313 189.707 460.17 189.571L456.974 186.47L460.744 188.639C460.887 188.719 461.051 188.753 461.256 188.776C461.502 188.81 461.778 188.855 462.086 189.026C462.537 189.276 462.987 189.514 463.448 189.753C463.684 189.878 463.899 190.025 464.124 190.173C464.34 190.309 464.544 190.457 464.77 190.571C465.046 190.707 465.272 190.889 465.497 191.07C465.692 191.229 465.887 191.377 466.071 191.468C466.235 191.548 466.46 191.582 466.696 191.604C466.972 191.638 467.28 191.684 467.577 191.82L468.099 192.059C468.386 192.195 468.683 192.331 468.98 192.456C469.267 192.581 469.503 192.763 469.739 192.933C469.933 193.081 470.128 193.229 470.312 193.308C470.527 193.399 470.763 193.445 470.988 193.501C471.255 193.558 471.531 193.626 471.788 193.729C472.033 193.831 472.279 193.956 472.515 194.092C472.73 194.206 472.945 194.331 473.181 194.422L473.724 194.637C473.959 194.728 474.195 194.819 474.472 194.921L478.344 196.296ZM468.192 193.331C468.284 193.388 468.366 193.433 468.458 193.49C468.663 193.615 468.858 193.74 469.052 193.808H469.062C468.898 193.683 468.735 193.57 468.581 193.501C468.448 193.445 468.325 193.388 468.192 193.331ZM466.286 192.684C466.348 192.706 466.399 192.74 466.46 192.763C466.634 192.843 466.839 192.888 467.075 192.933C467.249 192.968 467.433 193.002 467.618 193.058L467.167 192.854C467.003 192.774 466.778 192.752 466.552 192.718C466.47 192.706 466.378 192.695 466.286 192.684Z" fill="#E1BFF7"/>
<path d="M549.998 153.312C549.332 153.232 548.636 153.505 547.939 153.505C547.785 153.505 547.376 153.505 547.222 153.516C547.304 153.039 547.652 152.528 547.714 152.04C547.775 151.562 547.908 151.097 547.949 150.608C547.99 150.131 547.703 149.631 547.724 149.143C547.744 148.666 547.847 148.189 547.847 147.7C547.847 147.155 547.775 146.621 547.755 146.087C547.734 145.542 547.775 145.008 547.724 144.474C547.673 143.94 547.673 143.395 547.601 142.861C547.529 142.327 547.468 141.793 547.376 141.259C547.273 140.725 547.027 140.237 546.904 139.726C546.781 139.203 546.822 138.624 546.679 138.112C546.535 137.601 546.351 137.09 546.187 136.59C546.013 136.079 545.993 135.5 545.798 135.011C545.603 134.511 545.388 134.023 545.173 133.534C544.958 133.046 544.579 132.66 544.333 132.183C544.097 131.706 543.841 131.251 543.585 130.797C543.329 130.342 542.929 129.99 542.653 129.547C542.376 129.104 542.069 128.695 541.772 128.264C541.475 127.832 541.259 127.343 540.942 126.934C540.624 126.525 540.215 126.219 539.876 125.833C539.538 125.446 539.231 125.037 538.872 124.662C538.524 124.288 538.145 123.958 537.776 123.606C537.407 123.254 537.069 122.879 536.68 122.55C536.291 122.22 535.932 121.868 535.533 121.561C535.133 121.255 534.908 120.641 534.498 120.357C534.088 120.073 533.596 119.914 533.166 119.653C532.746 119.392 532.234 119.289 531.804 119.051C531.363 118.812 530.923 118.608 530.472 118.403C530.021 118.187 529.621 117.847 529.16 117.665C528.71 117.483 528.279 117.154 527.818 116.995C527.357 116.836 526.763 117.154 526.292 117.017C525.821 116.881 525.37 116.688 524.899 116.586C524.427 116.483 523.956 116.336 523.475 116.245C522.993 116.165 522.532 115.95 522.04 115.904C521.559 115.847 521.067 115.95 520.575 115.915C520.094 115.893 519.612 115.927 519.121 115.927C518.619 115.927 518.127 115.847 517.625 115.881C517.123 115.904 516.611 115.734 516.119 115.79C515.617 115.847 515.156 116.199 514.664 116.29C514.172 116.381 513.711 116.608 513.22 116.722C512.728 116.836 512.195 116.699 511.714 116.847C511.232 116.983 510.761 117.199 510.29 117.358C509.818 117.529 509.347 117.733 508.886 117.926C508.415 118.119 508.036 118.528 507.585 118.755C507.124 118.983 506.479 118.744 506.028 118.983C505.587 119.232 505.229 119.687 504.799 119.96C504.368 120.232 504.061 120.743 503.641 121.039C503.221 121.334 502.791 121.607 502.391 121.925C501.981 122.243 501.459 122.391 501.069 122.743C500.68 123.083 500.363 123.538 499.994 123.901C499.625 124.265 499.133 124.503 498.775 124.89C498.416 125.276 498.221 125.833 497.883 126.241C497.545 126.65 497.33 127.162 497.013 127.582C496.695 128.014 496.09 128.184 495.793 128.627C495.496 129.07 495.373 129.649 495.097 130.115C494.82 130.581 494.615 131.081 494.369 131.558C494.113 132.035 493.857 132.501 493.622 132.989C493.396 133.478 492.997 133.875 492.792 134.386C492.587 134.886 492.402 135.409 492.218 135.931C492.034 136.443 492.197 137.09 492.044 137.624C491.89 138.147 491.573 138.612 491.439 139.146C491.306 139.68 491.204 140.214 491.101 140.759C490.989 141.293 490.589 141.77 490.497 142.327C490.415 142.872 490.681 143.645 490.62 144.201C490.108 144.088 489.554 143.565 489.093 143.429C488.602 143.293 488.1 143.27 487.628 143.133C487.157 142.997 486.645 143.043 486.143 142.918C485.682 142.804 485.2 142.736 484.678 142.634C484.217 142.543 483.746 142.361 483.223 142.293C482.762 142.236 482.291 141.895 481.758 141.85C481.297 141.816 480.775 142.157 480.252 142.145C479.781 142.134 479.289 141.861 478.756 141.861C478.265 141.861 477.763 142.054 477.271 142.088C476.779 142.122 476.308 142.406 475.826 142.486C475.335 142.554 474.781 142.202 474.3 142.316C473.808 142.418 473.337 142.611 472.855 142.747C472.374 142.884 471.913 143.099 471.442 143.27C470.97 143.44 470.581 143.849 470.12 144.054C469.659 144.258 469.208 144.44 468.758 144.678C468.307 144.917 467.805 145.008 467.364 145.269C466.934 145.53 466.422 145.678 466.012 145.962C465.592 146.257 465.192 146.587 464.783 146.905C464.383 147.223 464.025 147.621 463.645 147.973C463.266 148.325 463.01 148.836 462.652 149.211C462.293 149.586 461.771 149.79 461.433 150.188C461.095 150.586 460.828 151.063 460.511 151.483C460.193 151.903 459.988 152.426 459.701 152.869C459.414 153.312 458.933 153.63 458.677 154.096C458.421 154.561 458.206 155.073 457.98 155.561C457.755 156.05 457.724 156.64 457.529 157.14C457.335 157.64 457.007 158.094 456.843 158.606C456.679 159.117 456.433 159.617 456.3 160.15C456.167 160.673 456.167 161.252 456.075 161.786C455.982 162.32 456.136 162.9 456.075 163.445C456.013 163.99 456.013 164.524 455.993 165.069C455.972 165.615 455.665 166.148 455.675 166.705C455.685 167.25 455.972 167.773 456.023 168.33C456.075 168.875 456.187 169.397 456.269 169.943C456.351 170.477 456.351 171.022 456.443 171.533C456.536 172.067 456.72 172.567 456.822 173.078C456.935 173.612 456.72 174.225 456.853 174.725C456.986 175.248 457.161 175.759 457.314 176.259C457.468 176.77 457.816 177.202 457.99 177.69C458.175 178.19 458.236 178.735 458.441 179.224C458.646 179.712 458.882 180.178 459.107 180.644C459.343 181.109 459.701 181.496 459.957 181.939C460.213 182.382 460.603 182.722 460.89 183.154C461.176 183.574 461.197 184.233 461.515 184.642C461.822 185.04 462.303 185.278 462.641 185.665C462.969 186.039 463.195 186.551 463.553 186.914C463.902 187.278 464.168 187.743 464.547 188.096C464.926 188.448 465.387 188.675 465.776 189.016C466.166 189.345 466.555 189.675 466.954 189.993C467.354 190.311 467.836 190.481 468.245 190.788C468.655 191.095 468.973 191.538 469.393 191.822C469.803 192.106 470.141 192.571 470.561 192.844C470.981 193.117 471.534 193.139 471.974 193.401C472.405 193.662 472.937 193.685 473.378 193.923C473.818 194.162 474.075 194.821 474.525 195.048C474.966 195.275 475.417 195.513 475.867 195.729C476.318 195.945 476.902 195.797 477.353 196.002C477.804 196.195 478.265 196.365 478.726 196.559C479.187 196.74 479.648 196.888 480.119 197.058C480.58 197.229 480.939 197.763 481.41 197.922C481.871 198.081 482.393 198.081 482.865 198.228C483.336 198.376 483.787 198.581 484.268 198.717C484.739 198.853 485.272 198.706 485.754 198.842C486.225 198.967 486.635 199.421 487.116 199.535C487.587 199.648 488.1 199.626 488.581 199.739C489.063 199.842 489.503 200.171 489.995 200.262C490.476 200.353 491.04 199.944 491.521 200.035C492.003 200.126 492.464 200.353 492.956 200.432C493.437 200.512 493.939 200.432 494.431 200.512C494.912 200.58 495.363 200.955 495.845 201.023C496.326 201.091 496.818 201.114 497.31 201.171C497.791 201.227 498.262 201.511 498.754 201.568C499.236 201.625 499.758 201.227 500.25 201.273C500.731 201.318 501.203 201.625 501.694 201.659C502.186 201.693 502.668 201.886 503.159 201.92C503.651 201.954 504.133 202.045 504.635 202.079C505.116 202.114 505.608 202.114 506.1 202.136C506.591 202.159 507.083 201.898 507.585 201.92C508.077 201.943 508.569 201.932 509.06 201.943C509.552 201.954 510.044 201.773 510.536 201.773C511.027 201.784 511.509 202.261 512.001 202.273C512.492 202.284 512.984 201.966 513.476 201.966C513.968 201.966 514.459 201.898 514.961 201.898C515.453 201.898 515.945 202.114 516.437 202.114C516.928 202.114 517.42 201.954 517.912 201.943C518.403 201.932 518.895 202.079 519.387 202.068C519.879 202.057 520.36 201.864 520.862 201.841C521.354 201.818 521.835 201.693 522.337 201.671C522.829 201.648 523.321 201.636 523.813 201.602C524.304 201.568 524.796 201.602 525.288 201.568C525.78 201.523 526.261 201.33 526.753 201.284C527.245 201.239 527.777 201.682 528.269 201.625C528.761 201.568 529.253 201.477 529.744 201.421C530.236 201.364 530.718 201.216 531.209 201.148C531.701 201.08 532.142 200.659 532.633 200.58C533.125 200.5 533.648 200.694 534.129 200.614C534.621 200.535 535.072 200.251 535.563 200.171C536.045 200.08 536.557 200.114 537.039 200.023C537.52 199.921 538.002 199.819 538.493 199.717C538.975 199.614 539.446 199.41 539.928 199.296C540.409 199.183 540.891 199.08 541.372 198.956C541.854 198.831 542.366 198.865 542.847 198.728C543.329 198.603 543.739 198.172 544.21 198.035C544.691 197.899 545.183 197.854 545.665 197.706C546.136 197.558 546.607 197.388 547.078 197.229C547.55 197.07 548.021 196.922 548.492 196.752C548.964 196.581 549.527 196.752 549.998 196.57C550.469 196.388 550.828 195.877 551.289 195.695C551.75 195.502 552.334 195.65 552.795 195.457C553.256 195.264 553.686 194.98 554.147 194.775C554.608 194.571 554.936 194.037 555.397 193.764C555.838 193.503 556.35 193.389 556.79 193.071C557.211 192.764 557.538 192.321 557.948 191.969C558.348 191.628 558.952 191.56 559.331 191.185C559.71 190.822 559.854 190.163 560.212 189.765C560.571 189.368 561.083 189.129 561.411 188.709C561.739 188.289 561.933 187.732 562.241 187.289C562.548 186.846 563.081 186.562 563.368 186.096C563.654 185.63 563.87 185.097 564.115 184.608C564.372 184.12 564.71 183.665 564.935 183.165C565.16 182.654 565.068 181.995 565.263 181.473C565.458 180.95 565.58 180.405 565.724 179.871C565.878 179.326 566.052 178.815 566.154 178.269C566.257 177.713 566.38 177.167 566.431 176.622C566.492 176.054 566.451 175.498 566.451 174.941C566.451 174.384 566.461 173.85 566.431 173.305C566.4 172.748 566.472 172.203 566.41 171.658C566.349 171.113 566.082 170.613 565.99 170.079C565.898 169.534 565.755 169.022 565.632 168.5C565.498 167.966 565.601 167.364 565.437 166.853C565.273 166.33 565.068 165.83 564.863 165.331C564.669 164.831 564.607 164.24 564.382 163.752C564.146 163.263 563.839 162.82 563.572 162.354C563.306 161.889 562.712 161.695 562.415 161.264C562.118 160.832 561.841 160.4 561.503 160.003C561.175 159.594 560.858 159.208 560.489 158.833C560.13 158.458 559.874 157.958 559.485 157.629C559.096 157.299 558.624 157.095 558.214 156.799C557.805 156.504 557.518 155.959 557.088 155.697C556.657 155.447 556.166 155.277 555.715 155.061C555.264 154.845 554.772 154.743 554.301 154.561C553.84 154.391 553.399 154.084 552.918 153.948C552.447 153.812 551.924 153.857 551.432 153.766C550.961 153.698 550.5 153.369 549.998 153.312Z" fill="white"/>
<path d="M509.872 171.71C509.349 171.71 508.899 171.597 508.54 171.494C508.417 171.46 508.304 171.426 508.171 171.403C507.598 171.301 507.065 171.165 506.563 171.006C506.501 170.995 506.419 170.983 506.327 170.972C505.979 170.926 505.497 170.87 504.975 170.642C503.93 170.165 503.428 168.836 503.858 167.677C504.288 166.519 505.487 165.962 506.532 166.439C506.573 166.439 506.665 166.451 506.768 166.462C507.034 166.496 507.362 166.53 507.731 166.655C508.069 166.769 508.417 166.848 508.827 166.928C509.052 166.973 509.278 167.019 509.493 167.087C509.626 167.121 509.749 167.166 509.882 167.178C510.169 167.178 510.528 167.109 510.876 167.03C511.081 166.984 511.296 166.95 511.501 166.928C511.572 166.916 511.644 166.916 511.706 166.905C511.9 166.655 512.177 166.303 512.576 166.008L512.71 165.905C512.996 165.689 513.222 165.53 513.406 165.337C514.226 164.474 515.527 164.508 516.306 165.428C517.084 166.337 517.053 167.78 516.224 168.643C515.783 169.097 515.363 169.415 514.984 169.699L514.922 169.745C514.882 169.79 514.851 169.836 514.82 169.881C514.564 170.211 514.144 170.756 513.458 171.074C512.915 171.324 512.382 171.403 511.993 171.449C511.88 171.46 511.767 171.472 511.665 171.494C511.152 171.597 510.548 171.71 509.872 171.71C509.882 171.71 509.882 171.71 509.872 171.71Z" fill="#031B0D"/>
<path d="M520.936 161.621C520.495 161.621 520.106 161.553 519.778 161.496C519.655 161.474 519.522 161.451 519.389 161.44C519.317 161.44 519.245 161.451 519.163 161.451C518.805 161.474 518.262 161.519 517.657 161.315C517.545 161.281 517.432 161.246 517.319 161.224C516.94 161.122 516.459 161.008 515.977 160.724C515.28 160.326 514.912 159.702 514.686 159.315C514.328 159.156 513.733 158.895 513.252 158.293C512.494 157.361 512.566 155.919 513.416 155.089C514.194 154.317 515.342 154.328 516.11 155.055C516.141 155.067 516.161 155.078 516.192 155.089C516.459 155.203 516.868 155.385 517.258 155.714C517.657 156.055 517.903 156.464 518.077 156.759C518.139 156.771 518.2 156.793 518.251 156.805C518.415 156.85 518.569 156.884 518.723 156.941C518.784 156.941 518.835 156.93 518.897 156.93C519.132 156.907 519.46 156.884 519.829 156.93C520.024 156.952 520.218 156.987 520.413 157.021C520.597 157.055 520.864 157.089 520.946 157.089C521.345 157.043 521.755 156.987 522.062 156.884C522.472 156.737 522.821 156.566 523.107 156.384C523.374 156.214 523.671 155.93 523.999 155.589C524.122 155.464 524.255 155.339 524.388 155.214C524.562 155.055 524.777 154.851 524.849 154.737C525.505 153.715 526.785 153.476 527.707 154.215C528.629 154.942 528.834 156.362 528.179 157.384C527.81 157.952 527.369 158.361 527.021 158.691C526.929 158.781 526.836 158.861 526.744 158.952C526.253 159.44 525.771 159.917 525.156 160.315C524.624 160.656 523.999 160.962 523.323 161.212C522.626 161.462 521.939 161.553 521.345 161.621C521.222 161.61 521.069 161.621 520.936 161.621Z" fill="#031B0D"/>
<path d="M497.357 163.352C497.213 163.352 497.07 163.341 496.916 163.318C496.168 163.227 495.646 162.818 495.308 162.545C494.888 162.568 494.242 162.58 493.566 162.193C492.911 161.818 492.531 161.228 492.306 160.887C492.275 160.842 492.255 160.807 492.224 160.762C491.743 160.33 491.374 159.899 491.077 159.524C490.329 158.581 490.411 157.15 491.261 156.32C492.111 155.491 493.402 155.582 494.15 156.525C494.416 156.866 494.611 157.081 494.826 157.252C495.103 157.49 495.308 157.752 495.461 157.99C495.759 157.99 496.117 158.002 496.506 158.138C496.978 158.297 497.326 158.558 497.572 158.763C497.633 158.751 497.695 158.74 497.746 158.729C498.012 158.672 498.268 158.615 498.525 158.592C498.883 158.558 499.242 158.467 499.621 158.331C499.856 158.251 500.102 158.183 500.348 158.127C500.461 158.104 500.594 158.07 500.686 158.036C500.727 157.979 500.768 157.922 500.809 157.854C500.983 157.615 501.198 157.309 501.485 157.013C501.834 156.661 502.069 156.4 502.243 156.127C502.909 155.116 504.19 154.889 505.102 155.627C506.014 156.366 506.218 157.786 505.552 158.797C505.102 159.49 504.6 160.012 504.21 160.398C504.149 160.467 504.087 160.558 504.026 160.648C503.77 161.012 503.381 161.569 502.756 161.966C502.192 162.318 501.629 162.466 501.209 162.568C501.086 162.602 500.953 162.625 500.83 162.67C500.164 162.909 499.529 163.057 498.883 163.125C498.77 163.136 498.648 163.17 498.535 163.193C498.258 163.261 497.838 163.352 497.357 163.352Z" fill="#031B0D"/>
<path d="M444.847 152.109C444.376 152.109 443.956 152.052 443.577 151.995C443.444 151.972 443.321 151.961 443.188 151.938C442.614 151.87 441.999 151.745 441.364 151.575C440.698 151.393 440.217 150.996 439.899 150.746C439.828 150.689 439.756 150.621 439.674 150.575C439.633 150.564 439.541 150.553 439.449 150.53C439.049 150.439 438.496 150.303 437.932 149.905C437.348 149.496 437 148.939 436.775 148.565C436.723 148.485 436.682 148.406 436.631 148.337C436.58 148.292 436.467 148.212 436.365 148.122C436.058 147.883 435.668 147.576 435.31 147.122C434.552 146.19 434.623 144.759 435.463 143.918C436.303 143.078 437.594 143.146 438.352 144.089C438.424 144.168 438.588 144.305 438.752 144.43C438.957 144.589 439.162 144.759 439.356 144.941C439.746 145.304 439.991 145.713 440.166 145.997C440.176 146.02 440.186 146.031 440.196 146.054C440.237 146.065 440.278 146.065 440.309 146.077C440.596 146.145 440.944 146.224 441.334 146.406C441.743 146.599 442.061 146.861 442.297 147.042C442.358 147.088 442.409 147.145 442.471 147.179C442.87 147.292 443.26 147.36 443.608 147.406C443.772 147.429 443.946 147.451 444.12 147.474C444.345 147.508 444.571 147.542 444.755 147.554C444.796 147.531 444.837 147.508 444.878 147.485C445.196 147.315 445.626 147.088 446.179 147.008C446.692 146.929 447.101 146.849 447.491 146.747C447.706 146.69 447.911 146.645 448.126 146.599C448.361 146.554 448.597 146.508 448.833 146.418C449.908 146.031 451.066 146.69 451.414 147.883C451.763 149.076 451.168 150.359 450.093 150.746C449.662 150.905 449.253 150.984 448.904 151.064C448.751 151.098 448.597 151.132 448.443 151.166C447.952 151.291 447.439 151.405 446.825 151.495C446.763 151.518 446.692 151.564 446.63 151.598C446.271 151.791 445.718 152.075 445.032 152.097C444.95 152.109 444.899 152.109 444.847 152.109Z" fill="#031B0D"/>
<path d="M429.476 137.529C428.861 137.529 428.288 137.495 427.796 137.416C427.069 137.313 426.526 136.904 426.208 136.666C426.177 136.643 426.147 136.62 426.106 136.586C425.686 136.45 425.337 136.268 425.05 136.121C424.968 136.075 424.876 136.03 424.794 135.984C424.743 135.973 424.692 135.973 424.641 135.962C424.262 135.905 423.688 135.837 423.104 135.45C422.612 135.132 422.274 134.723 422.038 134.428C421.977 134.36 421.926 134.28 421.854 134.212C421.475 133.883 421.188 133.531 420.963 133.235C420.881 133.133 420.799 133.031 420.717 132.928C420.369 132.542 420.061 132.133 419.764 131.713C419.744 131.702 419.713 131.679 419.692 131.668C419.334 131.452 418.76 131.065 418.381 130.316C417.828 129.225 418.176 127.839 419.16 127.226C420.051 126.669 421.157 126.931 421.772 127.794C421.793 127.805 421.813 127.817 421.834 127.839C422.12 128.044 422.561 128.339 422.919 128.873C423.145 129.202 423.37 129.486 423.626 129.782C423.77 129.941 423.903 130.111 424.036 130.27C424.169 130.441 424.292 130.6 424.374 130.668C424.661 130.918 424.876 131.179 425.05 131.395C425.071 131.418 425.091 131.452 425.112 131.474H425.122C425.429 131.52 425.839 131.577 426.3 131.781C426.454 131.849 426.608 131.929 426.761 132.008C426.976 132.122 427.161 132.213 427.294 132.258C427.827 132.417 428.226 132.724 428.493 132.917C428.503 132.928 428.523 132.94 428.534 132.951C428.769 132.974 429.036 132.985 429.312 132.997C429.363 132.974 429.415 132.951 429.466 132.917C429.763 132.769 430.162 132.576 430.664 132.497C431.074 132.429 431.464 132.338 431.843 132.213C431.996 132.156 432.201 132.042 432.447 131.906C432.611 131.815 432.765 131.724 432.929 131.633C433.39 131.395 433.717 131.225 433.994 131.02C434.404 130.725 434.701 130.486 434.967 130.225C435.807 129.384 437.108 129.464 437.856 130.407C438.614 131.338 438.543 132.781 437.692 133.61C437.19 134.099 436.688 134.485 436.248 134.803C435.725 135.189 435.223 135.45 434.732 135.7C434.537 135.803 434.424 135.871 434.312 135.927C433.963 136.132 433.533 136.371 433.011 136.552C432.437 136.745 431.863 136.882 431.248 136.984C431.259 136.995 431.187 137.029 431.115 137.063C430.757 137.257 430.193 137.529 429.476 137.529Z" fill="#031B0D"/>
<path d="M460.902 140.803C460.82 140.803 460.748 140.803 460.666 140.791C459.969 140.746 459.447 140.428 459.109 140.223C458.709 140.303 458.064 140.416 457.357 140.155C456.753 139.928 456.322 139.519 456.046 139.258C455.995 139.201 455.933 139.156 455.882 139.11C455.831 139.087 455.718 139.031 455.595 138.985C455.277 138.837 454.868 138.656 454.458 138.349C454.355 138.269 454.253 138.213 454.14 138.144C453.823 137.951 453.433 137.713 453.044 137.338C452.644 136.952 452.235 136.52 451.845 136.032C451.528 135.623 451.139 135.123 450.811 134.566C450.186 133.521 450.452 132.112 451.405 131.42C452.347 130.727 453.618 131.022 454.243 132.078C454.427 132.385 454.693 132.726 454.95 133.067C455.175 133.351 455.472 133.657 455.769 133.941C455.861 134.021 455.984 134.078 456.097 134.146C456.322 134.282 456.548 134.418 456.753 134.578C456.814 134.623 457.009 134.714 457.162 134.782C457.367 134.873 457.572 134.975 457.767 135.077C458.115 135.27 458.392 135.509 458.597 135.702C458.925 135.645 459.365 135.589 459.857 135.691C460.39 135.804 460.789 136.066 461.066 136.225C461.117 136.213 461.178 136.202 461.24 136.191C461.496 136.134 461.762 136.088 462.029 136.077C462.336 136.054 462.643 136.066 462.951 136.088C463.033 136.088 463.104 136.1 463.186 136.111C463.217 136.088 463.238 136.066 463.268 136.043C463.524 135.827 463.883 135.543 464.354 135.339C464.61 135.225 464.877 135.146 465.143 135.077C465.286 135.032 465.471 134.986 465.532 134.952C465.594 134.918 465.747 134.748 465.87 134.634C466.055 134.441 466.249 134.248 466.454 134.078C466.782 133.805 467.09 133.623 467.335 133.487C467.428 133.442 467.52 133.396 467.602 133.328C468.391 132.431 469.651 132.442 470.47 133.317C471.28 134.191 471.269 135.668 470.481 136.565C470.04 137.065 469.559 137.338 469.21 137.531C469.118 137.577 469.026 137.622 468.944 137.69C468.852 137.77 468.749 137.872 468.657 137.974C468.37 138.269 468.012 138.633 467.52 138.94C467.028 139.246 466.557 139.383 466.178 139.485C466.055 139.519 465.922 139.553 465.799 139.61C465.819 139.61 465.758 139.667 465.696 139.712C465.368 139.985 464.856 140.394 464.149 140.564C463.576 140.7 463.063 140.655 462.674 140.632C462.551 140.621 462.418 140.61 462.295 140.621C462.182 140.632 462.059 140.655 461.947 140.678C461.67 140.735 461.312 140.803 460.902 140.803Z" fill="#031B0D"/>
<path d="M486.275 142.815C485.804 142.702 485.302 142.645 484.779 142.543C484.318 142.452 483.806 142.554 483.273 142.486C482.802 142.429 482.331 142.1 481.798 142.054C481.327 142.02 480.815 142.27 480.282 142.259C479.811 142.247 479.309 141.748 478.776 141.748C478.284 141.748 477.782 141.941 477.29 141.975C476.799 142.009 476.327 142.338 475.846 142.406C475.354 142.475 474.852 142.429 474.371 142.531C473.879 142.634 473.408 142.747 472.926 142.884C472.445 143.02 471.943 143.065 471.471 143.236C471 143.406 470.519 143.554 470.058 143.747C469.597 143.951 469.074 144.02 468.623 144.247C468.173 144.485 467.763 144.826 467.333 145.099C466.902 145.36 466.431 145.576 466.011 145.871C465.591 146.167 465.202 146.519 464.802 146.848C464.403 147.166 464.198 147.768 463.819 148.12C463.44 148.473 463.081 148.836 462.722 149.211C462.364 149.586 461.893 149.836 461.554 150.233C461.216 150.631 460.735 150.904 460.417 151.324C460.1 151.744 459.977 152.335 459.69 152.789C459.403 153.232 458.911 153.539 458.655 154.016C458.399 154.482 458.368 155.107 458.133 155.595C457.907 156.084 457.477 156.47 457.282 156.981C457.088 157.481 457.17 158.117 456.996 158.64C456.832 159.151 456.453 159.605 456.319 160.139C456.186 160.662 456.309 161.264 456.217 161.809C456.125 162.343 456.104 162.888 456.043 163.433C455.981 163.979 455.766 164.501 455.746 165.058C455.725 165.603 455.787 166.148 455.797 166.705C455.807 167.25 455.633 167.818 455.684 168.375C455.735 168.92 455.971 169.443 456.053 169.988C456.135 170.522 456.34 171.022 456.432 171.544C456.524 172.078 456.36 172.669 456.473 173.18C456.586 173.714 456.77 174.214 456.893 174.725C457.026 175.248 457.139 175.781 457.293 176.281C457.446 176.793 457.713 177.258 457.887 177.758C458.071 178.258 458.543 178.61 458.747 179.087C458.952 179.576 459.116 180.064 459.352 180.53C459.587 180.996 459.803 181.461 460.059 181.916C460.315 182.359 460.397 182.95 460.684 183.381C460.971 183.802 461.247 184.256 461.554 184.665C461.862 185.062 462.22 185.437 462.558 185.824C462.886 186.198 463.347 186.448 463.706 186.823C464.054 187.187 464.382 187.562 464.761 187.914C465.14 188.266 465.54 188.607 465.939 188.948C466.329 189.288 466.831 189.47 467.23 189.799C467.64 190.129 467.804 190.833 468.214 191.14C468.623 191.447 469.156 191.572 469.576 191.867C469.996 192.162 470.416 192.458 470.857 192.742C471.287 193.014 471.748 193.242 472.188 193.503C472.629 193.764 472.947 194.287 473.397 194.537C473.848 194.775 474.34 194.923 474.801 195.15C475.252 195.377 475.856 195.229 476.317 195.445C476.778 195.661 477.126 196.184 477.598 196.377C478.059 196.57 478.581 196.627 479.052 196.82C479.524 197.002 479.995 197.183 480.476 197.354C480.948 197.524 481.409 197.763 481.89 197.922C482.362 198.081 482.884 198.092 483.365 198.24C483.847 198.387 484.359 198.41 484.841 198.547C485.322 198.683 485.671 198.91 486.162 199.046C486.162 198.512 485.998 198.081 485.998 197.513C485.998 196.968 486.377 196.422 486.377 195.854C486.377 195.309 486.224 194.764 486.224 194.196C486.224 193.65 486.285 193.105 486.285 192.537C486.285 191.992 486.203 191.435 486.203 190.879C486.203 190.333 486.316 189.777 486.316 189.22C486.316 188.675 486.101 188.118 486.101 187.562C486.101 187.016 486.111 186.46 486.111 185.903C486.111 185.358 486.101 184.801 486.101 184.245C486.101 183.699 486.101 183.143 486.101 182.597C486.101 182.052 486.49 181.495 486.49 180.95C486.49 180.405 486.06 179.848 486.06 179.292C486.06 178.746 486.142 178.19 486.142 177.645C486.142 177.099 486.07 176.543 486.07 175.986C486.07 175.429 486.316 174.884 486.316 174.327C486.316 173.771 486.47 173.226 486.47 172.669C486.47 172.112 486.132 171.556 486.132 171.01C486.132 170.454 486.347 169.908 486.347 169.352C486.347 168.795 486.162 168.239 486.162 167.693C486.162 167.137 486.152 166.58 486.152 166.035C486.152 165.478 486.5 164.922 486.5 164.376C486.5 163.82 486.152 163.263 486.152 162.718C486.152 162.161 486.214 161.604 486.214 161.059C486.214 160.503 486.275 159.946 486.275 159.401C486.275 158.844 486.142 158.287 486.142 157.742C486.142 157.186 486.49 156.629 486.49 156.084C486.49 155.527 486.336 154.97 486.336 154.425C486.336 153.868 486.326 153.312 486.326 152.767C486.326 152.199 486.47 151.653 486.47 151.108C486.47 150.54 486.009 149.983 486.009 149.449C486.009 148.882 486.275 148.325 486.275 147.791C486.275 147.223 486.203 146.666 486.203 146.132C486.203 145.553 486.367 145.008 486.367 144.474C486.377 143.883 486.275 143.327 486.275 142.815Z" fill="#DCF2FF"/>
<path d="M365.644 47.0874C365.628 43.5603 364.265 40.0515 361.54 37.6633C357.853 34.4301 352.594 34.4852 348.939 37.7735C346.102 40.3271 344.787 44.093 344.963 47.7855C345.028 49.1082 344.05 50.2104 342.911 50.1369C339.689 49.9349 336.403 51.4596 334.174 54.6928C331.305 58.8813 331.273 64.9069 334.094 69.1321C336.178 72.2551 339.24 73.8166 342.318 73.835C343.457 73.835 344.354 74.8637 344.354 76.168C344.37 79.6952 345.733 83.204 348.458 85.5921C352.145 88.8254 357.404 88.7886 361.059 85.5003C363.896 82.9468 365.211 79.1808 365.034 75.4883C364.97 74.1656 365.948 73.0634 367.086 73.1369C370.309 73.339 373.595 71.8142 375.823 68.581C378.693 64.3925 378.725 58.367 375.92 54.1417C373.836 51.0187 370.774 49.4389 367.696 49.4389C366.541 49.4205 365.644 48.3917 365.644 47.0874Z" fill="white"/>
<path d="M423.575 25.1472C424.084 32.0885 420.042 40.2608 414.892 43.7707C411.993 45.7483 407.455 45.3423 404.337 43.8624C401.22 42.3825 399.037 38.2308 400.042 34.5768C400.885 31.5253 403.772 29.4953 406.589 29.6132C409.407 29.7311 412.016 31.761 413.471 34.4983C414.926 37.2486 415.296 40.6013 414.892 43.7707C414.141 49.6249 410.7 54.9422 406 57.496C401.3 60.0499 395.492 59.788 391 56.7888" stroke="#9881F4" stroke-width="3.3807" stroke-miterlimit="10" stroke-linecap="round" stroke-linejoin="round"/>
<path d="M302.319 88.2857C298.001 89.7263 296.43 91.5075 295.16 96.4056C294.952 97.2307 293.913 97.2307 293.705 96.4056C292.435 91.5075 290.864 89.7263 286.546 88.2857C285.818 88.0499 285.818 86.8712 286.546 86.6355C290.864 85.1949 292.435 83.4137 293.705 78.5155C293.913 77.6905 294.952 77.6905 295.16 78.5155C296.43 83.4137 298.001 85.1949 302.319 86.6355C303.047 86.8712 303.047 88.0368 302.319 88.2857Z" fill="#C1B3F9"/>
</g>
<rect x="0.5" y="1" width="579" height="211" rx="7.5" stroke="black" stroke-opacity="0.06"/>
<defs>
<clipPath id="clip0">
<rect y="0.5" width="580" height="212" rx="8" fill="white"/>
</clipPath>
<clipPath id="clip1">
<rect width="57" height="17" fill="white" transform="translate(36 32.5)"/>
</clipPath>
<clipPath id="clip2">
<rect width="57" height="17" fill="white" transform="translate(36 32.5)"/>
</clipPath>
</defs>
</svg>
