<svg width="134" height="185" viewBox="0 0 134 185" fill="none" xmlns="http://www.w3.org/2000/svg">
<g clip-path="url(#clip0)">
<path d="M133.29 69.03C133.29 70.14 133.22 160.95 133.22 160.95H133.15C133.15 174.18 122.44 184.9 109.2 184.9C99.46 184.9 91.08 179.08 87.34 170.74C83.66 178.49 75.78 183.84 66.63 183.84C57.5 183.84 49.61 178.5 45.94 170.74C42.21 179.08 33.83 184.9 24.08 184.9C10.85 184.9 0.13 174.17 0.13 160.95H0.07C0.07 160.95 0 70.13 0 69.03C0 28.82 30.16 0 66.65 0C103.14 0 133.29 28.82 133.29 69.03Z" fill="#E1BFF7"/>
<path d="M73.8701 73.98C71.8001 75.94 68.9601 77.05 65.8901 76.84C62.5201 76.61 59.6301 74.82 57.8701 72.22" stroke="#491249" stroke-width="3" stroke-miterlimit="10" stroke-linecap="round" stroke-linejoin="round"/>
<path d="M44.5103 69.17C52.2312 69.17 58.4903 62.9109 58.4903 55.19C58.4903 47.469 52.2312 41.21 44.5103 41.21C36.7893 41.21 30.5303 47.469 30.5303 55.19C30.5303 62.9109 36.7893 69.17 44.5103 69.17Z" fill="white"/>
<path d="M44.5099 64.0299C49.3921 64.0299 53.3499 60.0721 53.3499 55.1899C53.3499 50.3077 49.3921 46.3499 44.5099 46.3499C39.6277 46.3499 35.6699 50.3077 35.6699 55.1899C35.6699 60.0721 39.6277 64.0299 44.5099 64.0299Z" fill="#491249"/>
<path d="M88.7798 69.17C96.5007 69.17 102.76 62.9109 102.76 55.19C102.76 47.469 96.5007 41.21 88.7798 41.21C81.0589 41.21 74.7998 47.469 74.7998 55.19C74.7998 62.9109 81.0589 69.17 88.7798 69.17Z" fill="white"/>
<path d="M88.7794 64.0299C93.6616 64.0299 97.6195 60.0721 97.6195 55.1899C97.6195 50.3077 93.6616 46.3499 88.7794 46.3499C83.8973 46.3499 79.9395 50.3077 79.9395 55.1899C79.9395 60.0721 83.8973 64.0299 88.7794 64.0299Z" fill="#491249"/>
<path d="M66.6501 66.35C67.9314 66.35 68.9701 65.3113 68.9701 64.03C68.9701 62.7487 67.9314 61.71 66.6501 61.71C65.3688 61.71 64.3301 62.7487 64.3301 64.03C64.3301 65.3113 65.3688 66.35 66.6501 66.35Z" fill="#491249"/>
<path opacity="0.1" d="M133.24 130.19C133.24 147.12 133.23 160.95 133.23 160.95H133.16C133.16 174.18 122.45 184.9 109.21 184.9C99.4696 184.9 91.0896 179.08 87.3496 170.74C83.6696 178.49 75.7896 183.84 66.6396 183.84C57.5096 183.84 49.6196 178.5 45.9496 170.74C42.2196 179.08 33.8396 184.9 24.0896 184.9C10.8596 184.9 0.13957 174.17 0.13957 160.95H0.0695703C0.0695703 160.95 0.0595703 149.55 0.0595703 134.79C6.33957 133.91 12.9596 135.49 18.1296 139.2C22.1896 142.1 25.3096 146.15 29.2996 149.15C33.3496 152.18 38.3896 154.06 43.4296 153.72C48.0296 153.4 52.2896 151.31 56.6596 149.81C65.8096 146.71 75.8496 146.26 85.2196 148.56C89.8696 149.69 94.4996 151.5 99.2796 151.17C107.57 150.61 113.91 143.99 120.25 138.62C124.13 135.3 128.54 132.29 133.24 130.19Z" fill="#4B194E"/>
<path d="M63.1196 53.05C63.1196 53.38 63.3096 53.72 63.2896 54.06C63.2796 54.39 63.2296 54.73 63.1996 55.06C63.1696 55.39 62.8696 55.7 62.8296 56.03C62.7896 56.36 62.7896 56.7 62.7396 57.02C62.6796 57.35 62.8396 57.72 62.7696 58.05C62.6996 58.38 62.5296 58.68 62.4396 59.01C62.3496 59.33 62.2896 59.66 62.1896 59.98C62.0896 60.3 61.8996 60.59 61.7896 60.9C61.6796 61.21 61.4996 61.5 61.3696 61.81C61.2396 62.12 61.2696 62.5 61.1296 62.8C60.9896 63.1 60.8596 63.42 60.6996 63.71C60.5396 64 60.1996 64.2 60.0296 64.48C59.8596 64.77 59.5896 64.99 59.4096 65.26C59.2196 65.54 59.1096 65.86 58.9096 66.13C58.7096 66.4 58.4696 66.63 58.2596 66.89C58.0496 67.15 57.9596 67.51 57.7296 67.76C57.4996 68 57.2796 68.26 57.0396 68.49C56.7996 68.72 56.5696 68.97 56.3196 69.19C56.0696 69.41 55.6796 69.46 55.4096 69.66C55.1496 69.86 54.9296 70.13 54.6496 70.32C54.3796 70.51 54.1796 70.83 53.8996 71.01C53.6196 71.18 53.1596 71.05 52.8596 71.21C52.5696 71.37 52.3396 71.64 52.0396 71.79C51.7396 71.93 51.3796 71.93 51.0696 72.06C50.7596 72.19 50.5096 72.44 50.1896 72.55C49.8796 72.66 49.5196 72.63 49.1996 72.72C48.8796 72.81 48.6496 73.21 48.3196 73.29C47.9996 73.37 47.6496 73.37 47.3196 73.43C46.9996 73.5 46.6396 73.41 46.3096 73.46C45.9796 73.51 45.6596 73.64 45.3296 73.67C44.9996 73.71 44.6596 73.6 44.3196 73.62C43.9896 73.64 43.6596 73.69 43.3196 73.7C42.9896 73.71 42.6596 73.95 42.3196 73.95C41.9796 73.95 41.6396 73.93 41.3196 73.92C40.9796 73.91 40.6496 73.76 40.3296 73.73C39.9896 73.7 39.6696 73.63 39.3396 73.59C38.9996 73.55 38.6496 73.64 38.3296 73.59C37.9996 73.53 37.6896 73.37 37.3696 73.3C37.0396 73.23 36.6696 73.32 36.3496 73.23C36.0196 73.14 35.7096 73.01 35.3896 72.9C35.0696 72.79 34.8496 72.43 34.5396 72.31C34.2296 72.18 33.9396 72.02 33.6496 71.88C33.3496 71.73 32.9096 71.86 32.6196 71.69C32.3296 71.52 32.1596 71.15 31.8896 70.97C31.6096 70.79 31.2596 70.7 30.9996 70.5C30.7296 70.3 30.4296 70.13 30.1796 69.92C29.9296 69.7 29.8696 69.28 29.6296 69.04C29.3896 68.81 28.9596 68.76 28.7396 68.51C28.5196 68.26 28.2796 68.01 28.0796 67.75C27.8796 67.49 27.9096 67.05 27.7196 66.77C27.5296 66.5 27.3296 66.24 27.1596 65.95C26.9896 65.67 26.7196 65.44 26.5696 65.14C26.4096 64.85 26.2196 64.57 26.0796 64.27C25.9396 63.97 25.7196 63.7 25.5896 63.39C25.4596 63.09 25.3196 62.78 25.1996 62.46C25.0796 62.15 25.1296 61.78 25.0296 61.46C24.9296 61.15 24.6696 60.87 24.5796 60.55C24.4896 60.23 24.6996 59.83 24.6196 59.5C24.5396 59.18 24.3496 58.88 24.2796 58.56C24.2096 58.24 24.2696 57.89 24.2096 57.56C24.1496 57.23 23.9296 56.93 23.8796 56.6C23.8296 56.27 23.8096 55.94 23.7696 55.61C23.7296 55.27 23.5696 54.95 23.5296 54.62C23.4896 54.28 23.5296 53.93 23.4996 53.61C23.4596 53.27 23.3596 52.94 23.3296 52.61C23.2896 52.27 23.2096 51.93 23.1796 51.61C23.1496 51.26 23.2596 50.92 23.2396 50.59C23.2096 50.24 23.0996 49.91 23.0796 49.59C23.0596 49.24 23.0596 48.9 23.0596 48.58C23.0596 48.23 23.1896 47.9 23.2096 47.58C23.2296 47.23 23.3296 46.91 23.3696 46.59C23.4196 46.25 23.2996 45.88 23.3896 45.57C23.4796 45.24 23.5296 44.89 23.6596 44.58C23.7896 44.27 24.1596 44.09 24.3496 43.8C24.5296 43.52 24.6996 43.25 24.9296 43C25.1396 42.76 25.2696 42.4 25.5296 42.18C25.7696 41.97 26.1196 41.86 26.3996 41.66C26.6596 41.48 26.9996 41.39 27.2996 41.22C27.5796 41.06 27.8096 40.8 28.1196 40.64C28.4096 40.49 28.6996 40.33 29.0096 40.18C29.2996 40.04 29.6496 40.01 29.9696 39.87C30.2696 39.74 30.4896 39.41 30.8096 39.29C31.1096 39.17 31.5196 39.29 31.8396 39.17C32.1496 39.06 32.4096 38.79 32.7296 38.67C33.0496 38.56 33.4296 38.62 33.7496 38.52C34.0696 38.41 34.3796 38.26 34.6996 38.17C35.0296 38.07 35.3296 37.92 35.6496 37.83C35.9796 37.74 36.3096 37.66 36.6296 37.58C36.9596 37.5 37.2896 37.41 37.6096 37.34C37.9396 37.27 38.2896 37.29 38.6196 37.23C38.9596 37.17 39.2996 37.19 39.6296 37.14C39.9696 37.09 40.2796 36.91 40.6096 36.88C40.9496 36.84 41.2696 36.66 41.6096 36.63C41.9496 36.6 42.2996 36.73 42.6296 36.72C42.9696 36.71 43.3096 36.72 43.6396 36.72C43.9796 36.72 44.3196 36.56 44.6596 36.57C44.9996 36.58 45.3296 36.74 45.6596 36.77C45.9996 36.8 46.3396 36.75 46.6696 36.79C47.0096 36.83 47.3396 36.9 47.6696 36.95C48.0096 37 48.3496 37.03 48.6696 37.1C48.9996 37.17 49.3096 37.33 49.6396 37.41C49.9696 37.49 50.2696 37.67 50.5896 37.77C50.9196 37.87 51.3096 37.77 51.6196 37.88C51.9396 38 52.1596 38.35 52.4696 38.48C52.7796 38.61 53.1896 38.52 53.4896 38.67C53.7996 38.82 54.1296 38.91 54.4296 39.07C54.7296 39.23 54.9796 39.48 55.2696 39.66C55.5596 39.84 55.8696 39.98 56.1496 40.18C56.4296 40.37 56.6896 40.59 56.9596 40.8C57.2296 41.01 57.3196 41.43 57.5696 41.65C57.8296 41.87 58.2396 41.92 58.4796 42.16C58.7196 42.4 58.9296 42.67 59.1496 42.92C59.3796 43.17 59.4896 43.52 59.6996 43.78C59.9096 44.04 60.3196 44.16 60.5096 44.44C60.7096 44.72 60.7696 45.08 60.9496 45.37C61.1296 45.66 61.4196 45.89 61.5696 46.18C61.7296 46.48 61.6096 46.91 61.7496 47.22C61.8896 47.53 62.1596 47.77 62.2796 48.09C62.3996 48.41 62.5696 48.71 62.6596 49.03C62.7596 49.35 62.7196 49.71 62.7896 50.04C62.8596 50.37 63.0496 50.68 63.0996 51.01C63.1496 51.34 62.9996 51.7 63.0196 52.03C63.0196 52.39 63.1196 52.72 63.1196 53.05Z" stroke="#5E5E5E" stroke-width="3.2761" stroke-miterlimit="10"/>
<path d="M70.0098 53.05C70.0098 53.38 70.2298 53.72 70.2498 54.05C70.2598 54.38 70.3698 54.71 70.3998 55.04C70.4298 55.37 70.2598 55.73 70.2998 56.06C70.3398 56.39 70.2998 56.74 70.3598 57.07C70.4198 57.4 70.7898 57.67 70.8598 57.99C70.9298 58.32 70.7798 58.69 70.8598 59.02C70.9498 59.34 71.2398 59.6 71.3398 59.92C71.4398 60.24 71.4898 60.57 71.6098 60.88C71.7198 61.19 71.7998 61.52 71.9298 61.83C72.0598 62.14 72.0898 62.49 72.2398 62.79C72.3798 63.09 72.5698 63.38 72.7298 63.67C72.8898 63.96 72.9998 64.29 73.1698 64.58C73.3398 64.87 73.6898 65.04 73.8798 65.32C74.0698 65.6 74.2098 65.9 74.4098 66.17C74.6098 66.44 74.7298 66.77 74.9498 67.03C75.1598 67.29 75.4998 67.43 75.7298 67.68C75.9598 67.92 76.1598 68.19 76.3998 68.42C76.6398 68.65 76.7898 68.98 77.0498 69.2C77.2998 69.42 77.6298 69.55 77.8998 69.75C78.1598 69.95 78.4098 70.18 78.6898 70.37C78.9598 70.56 79.2598 70.72 79.5398 70.89C79.8198 71.06 80.0698 71.3 80.3698 71.46C80.6598 71.62 80.9398 71.82 81.2498 71.96C81.5498 72.1 81.9298 72.08 82.2398 72.21C82.5498 72.34 82.8198 72.57 83.1298 72.69C83.4398 72.8 83.8298 72.67 84.1598 72.77C84.4798 72.86 84.7998 72.92 85.1298 73C85.4498 73.08 85.7398 73.3 86.0698 73.36C86.3898 73.43 86.7298 73.43 87.0598 73.48C87.3898 73.53 87.6998 73.73 88.0298 73.77C88.3598 73.81 88.6998 73.8 89.0298 73.82C89.3598 73.84 89.6898 73.91 90.0298 73.92C90.3598 73.93 90.6998 73.97 91.0398 73.97C91.3798 73.97 91.7098 73.91 92.0398 73.9C92.3798 73.89 92.6998 73.63 93.0198 73.6C93.3598 73.57 93.7098 73.75 94.0298 73.71C94.3698 73.67 94.7198 73.75 95.0398 73.69C95.3698 73.63 95.6898 73.48 96.0098 73.41C96.3398 73.34 96.6098 73.04 96.9198 72.95C97.2498 72.86 97.5898 72.86 97.8998 72.75C98.2198 72.64 98.5798 72.66 98.8898 72.54C99.1998 72.41 99.4698 72.18 99.7698 72.04C100.07 71.89 100.32 71.66 100.61 71.49C100.9 71.32 101.26 71.28 101.54 71.09C101.82 70.91 101.99 70.57 102.25 70.37C102.52 70.17 102.75 69.94 103 69.72C103.25 69.5 103.67 69.46 103.91 69.23C104.15 69 104.22 68.61 104.44 68.36C104.66 68.11 104.95 67.92 105.16 67.66C105.36 67.4 105.58 67.14 105.77 66.87C105.96 66.6 106.03 66.25 106.2 65.96C106.37 65.68 106.5 65.37 106.66 65.08C106.82 64.79 107.04 64.54 107.18 64.23C107.32 63.93 107.63 63.7 107.76 63.4C107.89 63.1 107.81 62.71 107.93 62.39C108.05 62.08 108.26 61.81 108.37 61.49C108.47 61.18 108.56 60.86 108.65 60.53C108.74 60.21 108.72 59.86 108.8 59.54C108.88 59.22 109.04 58.92 109.11 58.59C109.18 58.27 109.39 57.97 109.45 57.64C109.51 57.31 109.35 56.95 109.4 56.62C109.45 56.29 109.63 55.98 109.67 55.65C109.71 55.31 109.79 54.98 109.83 54.66C109.87 54.32 109.96 53.99 110 53.66C110.04 53.32 109.77 52.95 109.81 52.62C109.85 52.28 110.19 51.97 110.22 51.65C110.25 51.3 110.07 50.95 110.1 50.63C110.13 50.28 110.14 49.95 110.15 49.63C110.17 49.28 110.11 48.95 110.11 48.63C110.11 48.28 110.28 47.94 110.26 47.62C110.24 47.27 110.33 46.92 110.28 46.6C110.23 46.26 109.85 45.99 109.77 45.68C109.68 45.35 109.66 45.02 109.52 44.72C109.39 44.41 109.39 44.03 109.21 43.74C109.03 43.46 108.64 43.34 108.42 43.08C108.21 42.84 107.97 42.62 107.71 42.4C107.47 42.19 107.26 41.93 106.97 41.73C106.71 41.55 106.51 41.22 106.21 41.05C105.93 40.89 105.52 40.95 105.2 40.79C104.91 40.64 104.64 40.46 104.32 40.32C104.03 40.18 103.83 39.81 103.51 39.67C103.21 39.54 102.87 39.5 102.54 39.38C102.24 39.26 101.87 39.28 101.55 39.16C101.24 39.05 100.98 38.79 100.65 38.67C100.33 38.56 99.9398 38.66 99.6198 38.56C99.2998 38.45 99.0298 38.16 98.7098 38.07C98.3798 37.97 98.0298 37.97 97.7098 37.89C97.3798 37.8 97.0598 37.69 96.7398 37.61C96.4098 37.53 96.1098 37.29 95.7898 37.22C95.4598 37.15 95.0698 37.36 94.7398 37.31C94.3998 37.25 94.0798 37.17 93.7498 37.12C93.4098 37.07 93.0898 36.95 92.7598 36.91C92.4198 36.87 92.0798 36.89 91.7498 36.87C91.4098 36.84 91.0798 36.8 90.7398 36.79C90.3998 36.78 90.0598 36.83 89.7298 36.83C89.3898 36.83 89.0498 36.73 88.7198 36.74C88.3798 36.75 88.0498 36.87 87.7198 36.89C87.3798 36.92 87.0598 37.03 86.7298 37.07C86.3898 37.11 86.0198 36.91 85.6998 36.96C85.3598 37.01 85.0398 37.14 84.7098 37.21C84.3798 37.28 84.0898 37.53 83.7698 37.61C83.4398 37.69 83.0998 37.7 82.7798 37.8C82.4498 37.9 82.0598 37.79 81.7498 37.91C81.4298 38.03 81.1698 38.3 80.8598 38.43C80.5498 38.56 80.2998 38.82 79.9898 38.96C79.6798 39.11 79.2598 39.02 78.9698 39.18C78.6698 39.34 78.4498 39.64 78.1698 39.82C77.8798 40 77.6698 40.28 77.3898 40.47C77.1098 40.66 76.6598 40.62 76.3898 40.82C76.1198 41.03 75.8898 41.29 75.6398 41.51C75.3798 41.73 75.2198 42.06 74.9798 42.3C74.7398 42.54 74.5998 42.86 74.3698 43.11C74.1398 43.36 73.8398 43.54 73.6298 43.8C73.4198 44.06 73.3198 44.4 73.1198 44.68C72.9198 44.96 72.5998 45.14 72.4198 45.42C72.2398 45.71 72.0498 45.99 71.8998 46.29C71.7398 46.59 71.6398 46.92 71.4998 47.22C71.3598 47.53 71.2298 47.84 71.1098 48.15C70.9898 48.47 71.0398 48.83 70.9398 49.15C70.8398 49.47 70.5398 49.74 70.4698 50.07C70.3998 50.4 70.4998 50.76 70.4498 51.09C70.3998 51.42 70.3298 51.75 70.2998 52.08C70.2298 52.38 70.0098 52.72 70.0098 53.05Z" stroke="#5E5E5E" stroke-width="3.2761" stroke-miterlimit="10"/>
<path d="M62.9492 52.9101C63.3492 52.9101 63.3492 53.0801 63.7392 53.0801C64.1292 53.0801 64.1292 53.1401 64.5292 53.1401C64.9292 53.1401 64.9292 52.9001 65.3192 52.9001C65.7192 52.9001 65.7192 52.9601 66.1092 52.9601C66.4992 52.9601 66.4992 53.0201 66.8992 53.0201C67.2992 53.0201 67.2992 53.1801 67.6892 53.1801C68.0892 53.1801 68.0892 53.0401 68.4792 53.0401C68.8792 53.0401 68.8792 53.1701 69.2692 53.1701" stroke="#5E5E5E" stroke-width="2.8376" stroke-miterlimit="10"/>
</g>
<defs>
<clipPath id="clip0">
<rect width="133.29" height="184.91" fill="white"/>
</clipPath>
</defs>
</svg>
