<svg width="575" height="820" viewBox="0 0 575 820" fill="none" xmlns="http://www.w3.org/2000/svg">
<rect width="575" height="820" rx="16" fill="#EEEAFD"/>
<g filter="url(#filter0_d)">
<rect x="159.883" y="172" width="249.084" height="457.582" rx="25.4654" fill="white"/>
</g>
<rect x="194.102" y="278.637" width="173.483" height="12.7327" rx="6.36636" fill="#E6E6E6"/>
<rect x="194.102" y="315.369" width="173.483" height="12.7327" rx="6.36636" fill="#E6E6E6"/>
<rect x="194.102" y="352.102" width="109.024" height="12.7327" rx="6.36636" fill="#E6E6E6"/>
<path d="M291.363 252.769H299.077L291.93 246.832C293.329 244.677 294.124 242.105 294.124 239.345C294.124 231.669 287.922 225.468 280.246 225.468C272.571 225.468 266.369 231.669 266.369 239.345C266.369 247.021 272.571 253.222 280.246 253.222C283.385 253.222 286.259 252.201 288.565 250.462L291.363 252.769ZM271.89 239.345C271.89 234.656 275.558 230.762 280.246 230.762C284.935 230.762 288.603 234.656 288.603 239.345C288.603 240.744 288.263 242.105 287.658 243.278L283.46 239.799L280.322 243.58L284.292 246.87C283.082 247.55 281.721 247.929 280.246 247.929C275.558 247.929 271.89 244.034 271.89 239.345ZM306.334 249.29C306.334 247.21 304.67 245.509 302.553 245.509C300.473 245.509 298.771 247.21 298.771 249.29C298.771 251.369 300.473 253.071 302.553 253.071C304.67 253.071 306.334 251.369 306.334 249.29Z" fill="#212121"/>
<rect x="60" y="436" width="158" height="40" rx="8" fill="#FEC200"/>
<path d="M70.3313 464H73.6471L75.1723 460.419H81.8482L83.3735 464H86.7335L79.9471 448.305H77.0955L70.3313 464ZM76.3439 457.612L78.5103 452.505L80.6766 457.612H76.3439ZM88.1961 464H91.2245V458.606C91.2245 456.484 92.2856 455.467 93.6782 455.467C94.9382 455.467 95.6235 456.44 95.6235 458.032V464H98.6519V457.523C98.6519 454.649 97.0603 452.704 94.3856 452.704C92.9487 452.704 91.7992 453.323 91.2245 454.207V452.947H88.1961V464ZM112.327 458.474C112.327 455.246 109.719 452.704 106.513 452.704C103.308 452.704 100.7 455.246 100.7 458.474C100.7 461.701 103.308 464.243 106.513 464.243C109.719 464.243 112.327 461.701 112.327 458.474ZM103.75 458.474C103.75 456.772 104.922 455.534 106.513 455.534C108.105 455.534 109.254 456.772 109.254 458.474C109.254 460.176 108.105 461.414 106.513 461.414C104.922 461.414 103.75 460.176 103.75 458.474ZM114.511 464H117.539V458.606C117.539 456.484 118.601 455.467 119.993 455.467C121.253 455.467 121.938 456.44 121.938 458.032V464H124.967V457.523C124.967 454.649 123.375 452.704 120.701 452.704C119.264 452.704 118.114 453.323 117.539 454.207V452.947H114.511V464ZM131.62 468.62L138.561 452.947H135.223L132.283 460.109L129.321 452.947H126.005L130.648 463.381L128.327 468.62H131.62ZM140.027 464H143.056V458.606C143.056 456.484 143.962 455.467 145.266 455.467C146.46 455.467 146.99 456.462 146.99 458.098V464H150.019V458.606C150.019 456.484 150.925 455.467 152.229 455.467C153.423 455.467 153.954 456.462 153.954 458.098V464H156.982V457.589C156.982 454.605 155.479 452.704 152.848 452.704C151.588 452.704 150.107 453.367 149.422 454.738C148.759 453.456 147.609 452.704 145.996 452.704C144.647 452.704 143.652 453.345 143.056 454.207V452.947H140.027V464ZM170.656 458.474C170.656 455.246 168.048 452.704 164.842 452.704C161.637 452.704 159.029 455.246 159.029 458.474C159.029 461.701 161.637 464.243 164.842 464.243C168.048 464.243 170.656 461.701 170.656 458.474ZM162.079 458.474C162.079 456.772 163.251 455.534 164.842 455.534C166.434 455.534 167.583 456.772 167.583 458.474C167.583 460.176 166.434 461.414 164.842 461.414C163.251 461.414 162.079 460.176 162.079 458.474ZM172.707 459.358C172.707 462.298 174.188 464.243 176.863 464.243C178.278 464.243 179.317 463.624 179.892 462.74V464H182.92V452.947H179.892V458.341C179.892 460.485 178.963 461.48 177.615 461.48C176.31 461.48 175.736 460.507 175.736 458.849V452.947H172.707V459.358ZM193.749 460.64C193.749 458.717 192.533 457.744 190.544 457.214L189.505 456.904C188.577 456.661 188.422 456.285 188.422 455.954C188.422 455.445 188.997 455.202 189.527 455.202C190.257 455.202 190.898 455.534 191.406 456.175L193.396 454.561C192.556 453.345 191.251 452.704 189.571 452.704C187.228 452.704 185.46 454.008 185.415 456.042C185.371 457.744 186.432 459.048 188.466 459.579L189.284 459.778C190.5 460.109 190.765 460.375 190.765 460.839C190.765 461.392 190.168 461.635 189.549 461.635C188.488 461.635 187.56 461.171 187.073 460.353L184.995 462.121C185.946 463.558 187.604 464.243 189.549 464.243C191.914 464.243 193.749 462.784 193.749 460.64ZM202.912 464H205.941V448.305H201.807L199.597 451.289H202.912V464Z" fill="#212121"/>
<rect x="266" y="537" width="162" height="40" rx="8" fill="#FD8F55"/>
<path d="M276.065 565H279.38L280.906 561.419H287.582L289.107 565H292.467L285.68 549.305H282.829L276.065 565ZM282.077 558.612L284.244 553.505L286.41 558.612H282.077ZM293.929 565H296.958V559.606C296.958 557.484 298.019 556.467 299.412 556.467C300.672 556.467 301.357 557.44 301.357 559.032V565H304.385V558.523C304.385 555.649 302.794 553.704 300.119 553.704C298.682 553.704 297.533 554.323 296.958 555.207V553.947H293.929V565ZM318.06 559.474C318.06 556.246 315.452 553.704 312.247 553.704C309.041 553.704 306.433 556.246 306.433 559.474C306.433 562.701 309.041 565.243 312.247 565.243C315.452 565.243 318.06 562.701 318.06 559.474ZM309.483 559.474C309.483 557.772 310.655 556.534 312.247 556.534C313.838 556.534 314.988 557.772 314.988 559.474C314.988 561.176 313.838 562.414 312.247 562.414C310.655 562.414 309.483 561.176 309.483 559.474ZM320.244 565H323.273V559.606C323.273 557.484 324.334 556.467 325.726 556.467C326.986 556.467 327.672 557.44 327.672 559.032V565H330.7V558.523C330.7 555.649 329.109 553.704 326.434 553.704C324.997 553.704 323.848 554.323 323.273 555.207V553.947H320.244V565ZM337.354 569.62L344.295 553.947H340.957L338.017 561.109L335.055 553.947H331.739L336.381 564.381L334.06 569.62H337.354ZM345.761 565H348.789V559.606C348.789 557.484 349.695 556.467 351 556.467C352.193 556.467 352.724 557.462 352.724 559.098V565H355.752V559.606C355.752 557.484 356.659 556.467 357.963 556.467C359.156 556.467 359.687 557.462 359.687 559.098V565H362.715V558.589C362.715 555.605 361.212 553.704 358.582 553.704C357.322 553.704 355.841 554.367 355.155 555.738C354.492 554.456 353.343 553.704 351.729 553.704C350.381 553.704 349.386 554.345 348.789 555.207V553.947H345.761V565ZM376.389 559.474C376.389 556.246 373.781 553.704 370.576 553.704C367.37 553.704 364.762 556.246 364.762 559.474C364.762 562.701 367.37 565.243 370.576 565.243C373.781 565.243 376.389 562.701 376.389 559.474ZM367.812 559.474C367.812 557.772 368.984 556.534 370.576 556.534C372.167 556.534 373.317 557.772 373.317 559.474C373.317 561.176 372.167 562.414 370.576 562.414C368.984 562.414 367.812 561.176 367.812 559.474ZM378.441 560.358C378.441 563.298 379.922 565.243 382.596 565.243C384.011 565.243 385.05 564.624 385.625 563.74V565H388.653V553.947H385.625V559.341C385.625 561.485 384.696 562.48 383.348 562.48C382.044 562.48 381.469 561.507 381.469 559.849V553.947H378.441V560.358ZM399.483 561.64C399.483 559.717 398.267 558.744 396.277 558.214L395.238 557.904C394.31 557.661 394.155 557.285 394.155 556.954C394.155 556.445 394.73 556.202 395.26 556.202C395.99 556.202 396.631 556.534 397.139 557.175L399.129 555.561C398.289 554.345 396.985 553.704 395.305 553.704C392.961 553.704 391.193 555.008 391.149 557.042C391.105 558.744 392.166 560.048 394.199 560.579L395.017 560.778C396.233 561.109 396.498 561.375 396.498 561.839C396.498 562.392 395.901 562.635 395.283 562.635C394.221 562.635 393.293 562.171 392.807 561.353L390.729 563.121C391.679 564.558 393.337 565.243 395.283 565.243C397.648 565.243 399.483 563.784 399.483 561.64ZM416.891 562.016H410.392C410.812 560.999 412.47 560.137 413.443 559.407C415.432 557.948 416.758 556.578 416.758 553.881C416.758 550.676 414.371 549.04 411.718 549.04C408.602 549.04 406.236 551.162 406.236 554.235H409.287C409.265 552.975 410.259 552.024 411.652 552.024C413.001 552.024 413.73 552.908 413.73 554.058C413.73 555.34 412.625 556.313 411.254 557.285C408.955 558.943 406.192 560.446 406.192 563.961V565H416.891V562.016Z" fill="#212121"/>
<rect x="384" y="436" width="163" height="40" rx="8" fill="#57C896"/>
<path d="M394.403 464H397.719L399.244 460.419H405.92L407.445 464H410.805L404.019 448.305H401.167L394.403 464ZM400.415 457.612L402.582 452.505L404.748 457.612H400.415ZM412.267 464H415.296V458.606C415.296 456.484 416.357 455.467 417.75 455.467C419.01 455.467 419.695 456.44 419.695 458.032V464H422.723V457.523C422.723 454.649 421.132 452.704 418.457 452.704C417.02 452.704 415.871 453.323 415.296 454.207V452.947H412.267V464ZM436.398 458.474C436.398 455.246 433.79 452.704 430.585 452.704C427.379 452.704 424.771 455.246 424.771 458.474C424.771 461.701 427.379 464.243 430.585 464.243C433.79 464.243 436.398 461.701 436.398 458.474ZM427.822 458.474C427.822 456.772 428.993 455.534 430.585 455.534C432.176 455.534 433.326 456.772 433.326 458.474C433.326 460.176 432.176 461.414 430.585 461.414C428.993 461.414 427.822 460.176 427.822 458.474ZM438.582 464H441.611V458.606C441.611 456.484 442.672 455.467 444.065 455.467C445.325 455.467 446.01 456.44 446.01 458.032V464H449.038V457.523C449.038 454.649 447.447 452.704 444.772 452.704C443.335 452.704 442.186 453.323 441.611 454.207V452.947H438.582V464ZM455.692 468.62L462.633 452.947H459.295L456.355 460.109L453.393 452.947H450.077L454.719 463.381L452.398 468.62H455.692ZM464.099 464H467.127V458.606C467.127 456.484 468.033 455.467 469.338 455.467C470.531 455.467 471.062 456.462 471.062 458.098V464H474.09V458.606C474.09 456.484 474.997 455.467 476.301 455.467C477.495 455.467 478.025 456.462 478.025 458.098V464H481.053V457.589C481.053 454.605 479.55 452.704 476.92 452.704C475.66 452.704 474.179 453.367 473.493 454.738C472.83 453.456 471.681 452.704 470.067 452.704C468.719 452.704 467.724 453.345 467.127 454.207V452.947H464.099V464ZM494.727 458.474C494.727 455.246 492.119 452.704 488.914 452.704C485.708 452.704 483.1 455.246 483.1 458.474C483.1 461.701 485.708 464.243 488.914 464.243C492.119 464.243 494.727 461.701 494.727 458.474ZM486.151 458.474C486.151 456.772 487.322 455.534 488.914 455.534C490.505 455.534 491.655 456.772 491.655 458.474C491.655 460.176 490.505 461.414 488.914 461.414C487.322 461.414 486.151 460.176 486.151 458.474ZM496.779 459.358C496.779 462.298 498.26 464.243 500.935 464.243C502.349 464.243 503.388 463.624 503.963 462.74V464H506.991V452.947H503.963V458.341C503.963 460.485 503.035 461.48 501.686 461.48C500.382 461.48 499.807 460.507 499.807 458.849V452.947H496.779V459.358ZM517.821 460.64C517.821 458.717 516.605 457.744 514.615 457.214L513.576 456.904C512.648 456.661 512.493 456.285 512.493 455.954C512.493 455.445 513.068 455.202 513.599 455.202C514.328 455.202 514.969 455.534 515.477 456.175L517.467 454.561C516.627 453.345 515.323 452.704 513.643 452.704C511.3 452.704 509.531 454.008 509.487 456.042C509.443 457.744 510.504 459.048 512.537 459.579L513.355 459.778C514.571 460.109 514.836 460.375 514.836 460.839C514.836 461.392 514.24 461.635 513.621 461.635C512.56 461.635 511.631 461.171 511.145 460.353L509.067 462.121C510.017 463.558 511.675 464.243 513.621 464.243C515.986 464.243 517.821 462.784 517.821 460.64ZM535.671 459.535C535.671 457.766 534.654 456.528 533.483 455.976C534.389 455.357 535.229 454.119 535.229 452.594C535.229 450.096 533.372 448.04 530.145 448.04C527.382 448.04 524.685 449.963 524.685 453.235H527.735C527.713 451.953 528.73 451.024 530.145 451.024C531.294 451.024 532.201 451.754 532.179 452.837C532.157 453.942 531.383 454.716 529.924 454.716H528.73V457.192H530.057C531.604 457.192 532.621 457.987 532.621 459.292C532.599 460.485 531.604 461.259 530.233 461.259C528.686 461.259 527.559 460.441 527.404 458.916H524.398C524.508 462.364 527.249 464.243 530.233 464.243C533.483 464.243 535.671 462.298 535.671 459.535Z" fill="#212121"/>
<line x1="248" y1="431" x2="248" y2="508" stroke="#6442EF" stroke-width="4" stroke-linecap="round"/>
<line x1="102" y1="508" x2="466.432" y2="508" stroke="black" stroke-opacity="0.12" stroke-width="8" stroke-linecap="round"/>
<g filter="url(#filter1_dd)">
<rect x="229.913" y="489.522" width="35.015" height="35.015" rx="17.5075" fill="white"/>
<circle cx="247.42" cy="507.03" r="12.7327" fill="#6442EF"/>
</g>
<g filter="url(#filter2_dd)">
<rect x="120.889" y="489.522" width="35.015" height="35.015" rx="17.5075" fill="white"/>
<circle cx="138.396" cy="507.03" r="12.7327" fill="#FEC200"/>
</g>
<g filter="url(#filter3_dd)">
<rect x="329.732" y="489.522" width="35.015" height="35.015" rx="17.5075" fill="white"/>
<circle cx="347.24" cy="507.03" r="12.7327" fill="#FD8F55"/>
</g>
<g filter="url(#filter4_dd)">
<rect x="449.552" y="489.522" width="35.015" height="35.015" rx="17.5075" fill="white"/>
<circle cx="467.06" cy="507.03" r="12.7327" fill="#57C896"/>
</g>
<rect x="218" y="385" width="59" height="40" rx="8" fill="#6442EF"/>
<path d="M234.289 413H237.494V406.413L243.308 397.305H239.572L235.881 403.252L232.211 397.305H228.498L234.289 406.39V413ZM253.003 407.474C253.003 404.246 250.395 401.704 247.189 401.704C243.984 401.704 241.376 404.246 241.376 407.474C241.376 410.701 243.984 413.243 247.189 413.243C250.395 413.243 253.003 410.701 253.003 407.474ZM244.426 407.474C244.426 405.772 245.598 404.534 247.189 404.534C248.781 404.534 249.93 405.772 249.93 407.474C249.93 409.176 248.781 410.414 247.189 410.414C245.598 410.414 244.426 409.176 244.426 407.474ZM255.054 408.358C255.054 411.298 256.535 413.243 259.21 413.243C260.625 413.243 261.664 412.624 262.239 411.74V413H265.267V401.947H262.239V407.341C262.239 409.485 261.31 410.48 259.962 410.48C258.657 410.48 258.083 409.507 258.083 407.849V401.947H255.054V408.358Z" fill="white"/>
<g clip-path="url(#clip0)">
<path d="M455.999 48.6476C455.999 43.5214 459.608 40.1465 463.801 40.1465C466.189 40.1465 468.025 41.2842 468.896 42.4475L469.283 40.53H472.701V56.7524H469.378L468.896 54.7709C468.121 55.9023 466.316 57.1359 463.705 57.1359C459.385 57.1551 455.999 53.5821 455.999 48.6476ZM469.156 48.6476C469.156 45.5667 467.187 43.4894 464.512 43.4894C461.799 43.4894 459.836 45.6307 459.836 48.6476C459.836 51.6645 461.806 53.8058 464.512 53.8058C467.187 53.8122 469.156 51.7348 469.156 48.6476Z" fill="#4B27DC"/>
<path d="M475.682 31.728H479.455V42.6836C480.294 41.2518 482.098 40.1524 484.423 40.1524C488.134 40.1524 490.357 42.5557 490.357 46.7999V56.7647H486.583V47.5797C486.583 44.9846 485.326 43.5529 483.229 43.5529C481.196 43.5529 479.455 45.3362 479.455 49.1329V56.7583H475.682V31.728Z" fill="#4B27DC"/>
<path d="M500.279 57.155C495.311 57.155 492.186 53.5884 492.186 48.6859C492.186 43.6875 495.445 40.1528 500.248 40.1528C505.476 40.1528 508.182 43.8856 508.182 48.2001C508.182 48.6539 508.151 49.2356 508.055 49.6638H495.896C496.283 52.5849 498.119 53.8185 500.508 53.8185C502.541 53.8185 503.767 52.815 504.51 51.3832L507.636 52.847C506.442 55.3973 503.958 57.155 500.279 57.155ZM495.959 46.9665H504.377C504.085 44.5951 502.408 43.2976 500.248 43.2976C498.246 43.2976 496.442 44.365 495.959 46.9665Z" fill="#4B27DC"/>
<path d="M509.707 48.6476C509.707 43.5214 513.316 40.1465 517.509 40.1465C519.897 40.1465 521.733 41.2842 522.604 42.4475L522.991 40.53H526.409V56.7524H523.086L522.604 54.7709C521.829 55.9023 520.024 57.1359 517.413 57.1359C513.093 57.1551 509.707 53.5821 509.707 48.6476ZM522.864 48.6476C522.864 45.5667 520.895 43.4894 518.22 43.4894C515.507 43.4894 513.544 45.6307 513.544 48.6476C513.544 51.6645 515.514 53.8058 518.22 53.8058C520.895 53.8122 522.864 51.7348 522.864 48.6476Z" fill="#4B27DC"/>
<path d="M536.06 57.1546C531.708 57.1546 528.29 53.6839 528.29 48.6535C528.29 43.4314 531.93 40.1524 536.193 40.1524C538.645 40.1524 540.418 41.3541 541.225 42.5557V31.728H544.998V56.7647H541.771L541.352 54.5595C540.481 55.9146 538.48 57.1546 536.06 57.1546ZM532.095 48.6471C532.095 51.6321 534.097 53.7734 536.803 53.7734C539.478 53.7734 541.447 51.696 541.447 48.6471C541.447 45.5982 539.478 43.5209 536.803 43.5209C534.097 43.5209 532.095 45.6685 532.095 48.6471Z" fill="#4B27DC"/>
</g>
<defs>
<filter id="filter0_d" x="69.8828" y="84" width="429.084" height="637.582" filterUnits="userSpaceOnUse" color-interpolation-filters="sRGB">
<feFlood flood-opacity="0" result="BackgroundImageFix"/>
<feColorMatrix in="SourceAlpha" type="matrix" values="0 0 0 0 0 0 0 0 0 0 0 0 0 0 0 0 0 0 127 0"/>
<feOffset dy="2"/>
<feGaussianBlur stdDeviation="45"/>
<feColorMatrix type="matrix" values="0 0 0 0 0 0 0 0 0 0 0 0 0 0 0 0 0 0 0.12 0"/>
<feBlend mode="normal" in2="BackgroundImageFix" result="effect1_dropShadow"/>
<feBlend mode="normal" in="SourceGraphic" in2="effect1_dropShadow" result="shape"/>
</filter>
<filter id="filter1_dd" x="198.081" y="473.606" width="98.6786" height="98.6786" filterUnits="userSpaceOnUse" color-interpolation-filters="sRGB">
<feFlood flood-opacity="0" result="BackgroundImageFix"/>
<feColorMatrix in="SourceAlpha" type="matrix" values="0 0 0 0 0 0 0 0 0 0 0 0 0 0 0 0 0 0 127 0"/>
<feOffset/>
<feGaussianBlur stdDeviation="3.97897"/>
<feColorMatrix type="matrix" values="0 0 0 0 0 0 0 0 0 0 0 0 0 0 0 0 0 0 0.08 0"/>
<feBlend mode="normal" in2="BackgroundImageFix" result="effect1_dropShadow"/>
<feColorMatrix in="SourceAlpha" type="matrix" values="0 0 0 0 0 0 0 0 0 0 0 0 0 0 0 0 0 0 127 0"/>
<feOffset dy="15.9159"/>
<feGaussianBlur stdDeviation="15.9159"/>
<feColorMatrix type="matrix" values="0 0 0 0 0 0 0 0 0 0 0 0 0 0 0 0 0 0 0.07 0"/>
<feBlend mode="normal" in2="effect1_dropShadow" result="effect2_dropShadow"/>
<feBlend mode="normal" in="SourceGraphic" in2="effect2_dropShadow" result="shape"/>
</filter>
<filter id="filter2_dd" x="89.0569" y="473.606" width="98.6786" height="98.6786" filterUnits="userSpaceOnUse" color-interpolation-filters="sRGB">
<feFlood flood-opacity="0" result="BackgroundImageFix"/>
<feColorMatrix in="SourceAlpha" type="matrix" values="0 0 0 0 0 0 0 0 0 0 0 0 0 0 0 0 0 0 127 0"/>
<feOffset/>
<feGaussianBlur stdDeviation="3.97897"/>
<feColorMatrix type="matrix" values="0 0 0 0 0 0 0 0 0 0 0 0 0 0 0 0 0 0 0.08 0"/>
<feBlend mode="normal" in2="BackgroundImageFix" result="effect1_dropShadow"/>
<feColorMatrix in="SourceAlpha" type="matrix" values="0 0 0 0 0 0 0 0 0 0 0 0 0 0 0 0 0 0 127 0"/>
<feOffset dy="15.9159"/>
<feGaussianBlur stdDeviation="15.9159"/>
<feColorMatrix type="matrix" values="0 0 0 0 0 0 0 0 0 0 0 0 0 0 0 0 0 0 0.07 0"/>
<feBlend mode="normal" in2="effect1_dropShadow" result="effect2_dropShadow"/>
<feBlend mode="normal" in="SourceGraphic" in2="effect2_dropShadow" result="shape"/>
</filter>
<filter id="filter3_dd" x="297.901" y="473.607" width="98.6786" height="98.6786" filterUnits="userSpaceOnUse" color-interpolation-filters="sRGB">
<feFlood flood-opacity="0" result="BackgroundImageFix"/>
<feColorMatrix in="SourceAlpha" type="matrix" values="0 0 0 0 0 0 0 0 0 0 0 0 0 0 0 0 0 0 127 0"/>
<feOffset/>
<feGaussianBlur stdDeviation="3.97897"/>
<feColorMatrix type="matrix" values="0 0 0 0 0 0 0 0 0 0 0 0 0 0 0 0 0 0 0.08 0"/>
<feBlend mode="normal" in2="BackgroundImageFix" result="effect1_dropShadow"/>
<feColorMatrix in="SourceAlpha" type="matrix" values="0 0 0 0 0 0 0 0 0 0 0 0 0 0 0 0 0 0 127 0"/>
<feOffset dy="15.9159"/>
<feGaussianBlur stdDeviation="15.9159"/>
<feColorMatrix type="matrix" values="0 0 0 0 0 0 0 0 0 0 0 0 0 0 0 0 0 0 0.07 0"/>
<feBlend mode="normal" in2="effect1_dropShadow" result="effect2_dropShadow"/>
<feBlend mode="normal" in="SourceGraphic" in2="effect2_dropShadow" result="shape"/>
</filter>
<filter id="filter4_dd" x="417.72" y="473.606" width="98.6786" height="98.6786" filterUnits="userSpaceOnUse" color-interpolation-filters="sRGB">
<feFlood flood-opacity="0" result="BackgroundImageFix"/>
<feColorMatrix in="SourceAlpha" type="matrix" values="0 0 0 0 0 0 0 0 0 0 0 0 0 0 0 0 0 0 127 0"/>
<feOffset/>
<feGaussianBlur stdDeviation="3.97897"/>
<feColorMatrix type="matrix" values="0 0 0 0 0 0 0 0 0 0 0 0 0 0 0 0 0 0 0.08 0"/>
<feBlend mode="normal" in2="BackgroundImageFix" result="effect1_dropShadow"/>
<feColorMatrix in="SourceAlpha" type="matrix" values="0 0 0 0 0 0 0 0 0 0 0 0 0 0 0 0 0 0 127 0"/>
<feOffset dy="15.9159"/>
<feGaussianBlur stdDeviation="15.9159"/>
<feColorMatrix type="matrix" values="0 0 0 0 0 0 0 0 0 0 0 0 0 0 0 0 0 0 0.07 0"/>
<feBlend mode="normal" in2="effect1_dropShadow" result="effect2_dropShadow"/>
<feBlend mode="normal" in="SourceGraphic" in2="effect2_dropShadow" result="shape"/>
</filter>
<clipPath id="clip0">
<rect width="89" height="28" fill="white" transform="translate(456 30)"/>
</clipPath>
</defs>
</svg>
