<svg width="327" height="432" viewBox="0 0 327 432" fill="none" xmlns="http://www.w3.org/2000/svg">
<g clip-path="url(#clip0)">
<rect width="327" height="432" rx="8" fill="#EEEAFD"/>
<path d="M105.644 279.329C105.628 275.677 104.265 272.044 101.54 269.572C97.8525 266.225 92.5943 266.282 88.9392 269.686C86.1017 272.33 84.7871 276.229 84.9634 280.051C85.0276 281.421 84.0497 282.562 82.9114 282.486C79.6892 282.277 76.4028 283.855 74.1744 287.203C71.3049 291.539 71.2728 297.777 74.0943 302.152C76.1783 305.385 79.2403 307.001 82.3183 307.021C83.4565 307.021 84.3543 308.086 84.3543 309.436C84.3703 313.088 85.7329 316.72 88.4582 319.193C92.1454 322.54 97.4036 322.502 101.059 319.098C103.896 316.454 105.211 312.555 105.034 308.732C104.97 307.363 105.948 306.222 107.086 306.298C110.309 306.507 113.595 304.928 115.823 301.581C118.693 297.245 118.725 291.006 115.92 286.632C113.836 283.399 110.774 281.763 107.696 281.763C106.541 281.744 105.644 280.679 105.644 279.329Z" fill="white"/>
<path d="M30 42.8359C30 39.5528 32.3111 37.3914 34.9965 37.3914C36.5264 37.3914 37.7023 38.12 38.2597 38.8651L38.5079 37.637H40.6969V48.0267H38.5689L38.2597 46.7576C37.7633 47.4822 36.6078 48.2723 34.9355 48.2723C32.1687 48.2846 30 45.9962 30 42.8359ZM38.4265 42.8359C38.4265 40.8628 37.1652 39.5323 35.4522 39.5323C33.7148 39.5323 32.4576 40.9037 32.4576 42.8359C32.4576 44.7681 33.7189 46.1395 35.4522 46.1395C37.1652 46.1436 38.4265 44.8132 38.4265 42.8359Z" fill="#4B27DC"/>
<path d="M42.6055 32H45.0223V39.0165C45.5594 38.0995 46.715 37.3954 48.2042 37.3954C50.5803 37.3954 52.0044 38.9346 52.0044 41.6528V48.0348H49.5876V42.1523C49.5876 40.4902 48.7819 39.5733 47.4392 39.5733C46.1372 39.5733 45.0223 40.7154 45.0223 43.147V48.0307H42.6055V32Z" fill="#4B27DC"/>
<path d="M58.3594 48.2844C55.1776 48.2844 53.1758 46.0001 53.1758 42.8603C53.1758 39.6591 55.2631 37.3953 58.3391 37.3953C61.6877 37.3953 63.4211 39.786 63.4211 42.5492C63.4211 42.8398 63.4007 43.2123 63.3397 43.4866H55.552C55.8002 45.3574 56.9761 46.1475 58.5059 46.1475C59.8079 46.1475 60.5932 45.5048 61.0693 44.5878L63.0711 45.5253C62.3062 47.1586 60.7153 48.2844 58.3594 48.2844ZM55.5927 41.7591H60.9838C60.7967 40.2404 59.7225 39.4093 58.3391 39.4093C57.0574 39.4093 55.9019 40.093 55.5927 41.7591Z" fill="#4B27DC"/>
<path d="M64.3975 42.8359C64.3975 39.5528 66.7085 37.3914 69.394 37.3914C70.9238 37.3914 72.0997 38.12 72.6572 38.8651L72.9053 37.637H75.0944V48.0267H72.9664L72.6572 46.7576C72.1608 47.4822 71.0052 48.2723 69.3329 48.2723C66.5661 48.2846 64.3975 45.9962 64.3975 42.8359ZM72.824 42.8359C72.824 40.8628 71.5626 39.5323 69.8497 39.5323C68.1123 39.5323 66.855 40.9037 66.855 42.8359C66.855 44.7681 68.1164 46.1395 69.8497 46.1395C71.5626 46.1436 72.824 44.8132 72.824 42.8359Z" fill="#4B27DC"/>
<path d="M81.275 48.2846C78.4878 48.2846 76.2988 46.0617 76.2988 42.84C76.2988 39.4955 78.6303 37.3954 81.3604 37.3954C82.931 37.3954 84.0662 38.165 84.5829 38.9346V32H86.9998V48.0348H84.9328L84.6643 46.6225C84.1069 47.4904 82.8252 48.2846 81.275 48.2846ZM78.736 42.8359C78.736 44.7476 80.0177 46.119 81.751 46.119C83.464 46.119 84.7253 44.7886 84.7253 42.8359C84.7253 40.8832 83.464 39.5528 81.751 39.5528C80.0177 39.5528 78.736 40.9283 78.736 42.8359Z" fill="#4B27DC"/>
<path d="M42.84 94H45L48.68 79.8H46.2L43.6 90.12L39.54 79.56L35.48 90.12L32.88 79.8H30.42L34.08 94H36.24L39.54 85.32L42.84 94ZM49.1394 89C49.1394 92.04 51.3194 94.2 54.3594 94.2C56.4594 94.2 58.0194 93.3 58.9194 91.88L57.2394 90.68C56.7194 91.56 55.7794 92.2 54.3794 92.2C52.7194 92.2 51.3994 91.12 51.2994 89.48H59.1594C59.1794 89.16 59.1794 88.98 59.1794 88.76C59.1794 85.54 56.9794 83.8 54.3594 83.8C51.3194 83.8 49.1394 86.06 49.1394 89ZM54.2794 85.66C55.5594 85.66 56.7194 86.44 56.9594 87.88H51.3994C51.6994 86.4 52.9994 85.66 54.2794 85.66ZM60.7327 85.12H62.6327V79.8H60.7327V85.12ZM65.3667 94H67.5667V89.12C67.5667 87.12 68.7067 86.06 69.9667 86.06C70.3667 86.06 70.6867 86.12 71.0667 86.24V83.98C70.7667 83.92 70.4867 83.9 70.2067 83.9C69.0667 83.9 67.9467 84.64 67.5667 85.78V84H65.3667V94ZM71.9128 89C71.9128 92.04 74.0928 94.2 77.1328 94.2C79.2328 94.2 80.7928 93.3 81.6928 91.88L80.0128 90.68C79.4928 91.56 78.5528 92.2 77.1528 92.2C75.4928 92.2 74.1728 91.12 74.0728 89.48H81.9328C81.9528 89.16 81.9528 88.98 81.9528 88.76C81.9528 85.54 79.7528 83.8 77.1328 83.8C74.0928 83.8 71.9128 86.06 71.9128 89ZM77.0528 85.66C78.3328 85.66 79.4928 86.44 79.7328 87.88H74.1728C74.4728 86.4 75.7728 85.66 77.0528 85.66ZM86.8769 94H89.2969L90.8969 90.28H97.2569L98.8769 94H101.317L95.1169 79.8H93.0769L86.8769 94ZM91.7969 88.2L94.0769 82.94L96.3569 88.2H91.7969ZM102.886 94H105.086V89.08C105.086 86.94 106.206 85.8 107.666 85.8C108.946 85.8 109.746 86.76 109.746 88.34V94H111.946V87.98C111.946 85.44 110.446 83.8 108.126 83.8C106.826 83.8 105.686 84.36 105.086 85.36V79H102.886V94ZM114.061 89C114.061 92.04 116.241 94.2 119.281 94.2C121.381 94.2 122.941 93.3 123.841 91.88L122.161 90.68C121.641 91.56 120.701 92.2 119.301 92.2C117.641 92.2 116.321 91.12 116.221 89.48H124.081C124.101 89.16 124.101 88.98 124.101 88.76C124.101 85.54 121.901 83.8 119.281 83.8C116.241 83.8 114.061 86.06 114.061 89ZM119.201 85.66C120.481 85.66 121.641 86.44 121.881 87.88H116.321C116.621 86.4 117.921 85.66 119.201 85.66ZM125.643 89C125.643 91.86 127.723 94.2 130.463 94.2C131.903 94.2 133.103 93.46 133.663 92.66V94H135.863V84H133.663V85.34C133.103 84.54 131.903 83.8 130.463 83.8C127.723 83.8 125.643 86.14 125.643 89ZM133.843 89C133.843 90.8 132.643 92.2 130.863 92.2C129.083 92.2 127.883 90.8 127.883 89C127.883 87.2 129.083 85.8 130.863 85.8C132.643 85.8 133.843 87.2 133.843 89ZM138.123 89C138.123 91.86 140.203 94.2 142.943 94.2C144.383 94.2 145.583 93.46 146.143 92.66V94H148.343V79H146.143V85.34C145.583 84.54 144.383 83.8 142.943 83.8C140.203 83.8 138.123 86.14 138.123 89ZM146.323 89C146.323 90.8 145.123 92.2 143.343 92.2C141.563 92.2 140.363 90.8 140.363 89C140.363 87.2 141.563 85.8 143.343 85.8C145.123 85.8 146.323 87.2 146.323 89ZM155.791 89.48H164.831V87.32H155.791V89.48ZM170.197 94H172.617L174.217 90.28H180.577L182.197 94H184.637L178.437 79.8H176.397L170.197 94ZM175.117 88.2L177.397 82.94L179.677 88.2H175.117ZM190.269 98.18H192.469V92.66C193.029 93.46 194.249 94.2 195.689 94.2C198.429 94.2 200.509 91.86 200.509 89C200.509 86.14 198.429 83.8 195.689 83.8C194.249 83.8 193.029 84.54 192.469 85.34V84H190.269V98.18ZM198.269 89C198.269 90.8 197.049 92.2 195.289 92.2C193.509 92.2 192.289 90.8 192.289 89C192.289 87.2 193.509 85.8 195.289 85.8C197.049 85.8 198.269 87.2 198.269 89ZM212.51 89C212.51 86.1 210.23 83.8 207.27 83.8C204.31 83.8 202.03 86.1 202.03 89C202.03 91.9 204.31 94.2 207.27 94.2C210.23 94.2 212.51 91.9 212.51 89ZM204.25 89C204.25 87.22 205.49 85.84 207.27 85.84C209.03 85.84 210.27 87.22 210.27 89C210.27 90.78 209.03 92.16 207.27 92.16C205.49 92.16 204.25 90.78 204.25 89ZM223.942 91.44L222.022 90.4C221.542 91.42 220.562 92.16 219.282 92.16C217.502 92.16 216.242 90.78 216.242 89C216.242 87.22 217.502 85.84 219.282 85.84C220.562 85.84 221.542 86.58 222.022 87.6L223.942 86.56C223.082 84.9 221.342 83.8 219.282 83.8C216.282 83.8 214.002 86.04 214.002 89C214.002 91.96 216.282 94.2 219.282 94.2C221.342 94.2 223.082 93.1 223.942 91.44ZM225.953 94H228.153V89.16L232.933 94H235.753L230.293 88.46L234.753 84H231.973L228.153 87.8V79H225.953V94ZM235.546 89C235.546 92.04 237.726 94.2 240.766 94.2C242.866 94.2 244.426 93.3 245.326 91.88L243.646 90.68C243.126 91.56 242.186 92.2 240.786 92.2C239.126 92.2 237.806 91.12 237.706 89.48H245.566C245.586 89.16 245.586 88.98 245.586 88.76C245.586 85.54 243.386 83.8 240.766 83.8C237.726 83.8 235.546 86.06 235.546 89ZM240.686 85.66C241.966 85.66 243.126 86.44 243.366 87.88H237.806C238.106 86.4 239.406 85.66 240.686 85.66ZM253.671 93.88V91.92C253.351 92.04 252.911 92.12 252.491 92.12C251.351 92.12 250.811 91.66 250.811 90.42V85.96H253.671V84H250.811V81.22H248.611V84H246.531V85.96H248.611V90.78C248.611 93.04 250.111 94.1 252.031 94.1C252.711 94.1 253.231 94.02 253.671 93.88ZM40.7 119.44L38.78 118.4C38.3 119.42 37.32 120.16 36.04 120.16C34.26 120.16 33 118.78 33 117C33 115.22 34.26 113.84 36.04 113.84C37.32 113.84 38.3 114.58 38.78 115.6L40.7 114.56C39.84 112.9 38.1 111.8 36.04 111.8C33.04 111.8 30.76 114.04 30.76 117C30.76 119.96 33.04 122.2 36.04 122.2C38.1 122.2 39.84 121.1 40.7 119.44ZM52.4705 117C52.4705 114.1 50.1905 111.8 47.2305 111.8C44.2705 111.8 41.9905 114.1 41.9905 117C41.9905 119.9 44.2705 122.2 47.2305 122.2C50.1905 122.2 52.4705 119.9 52.4705 117ZM44.2105 117C44.2105 115.22 45.4505 113.84 47.2305 113.84C48.9905 113.84 50.2305 115.22 50.2305 117C50.2305 118.78 48.9905 120.16 47.2305 120.16C45.4505 120.16 44.2105 118.78 44.2105 117ZM53.9631 117C53.9631 119.86 56.0431 122.2 58.7831 122.2C60.2231 122.2 61.4231 121.46 61.9831 120.66V122H64.1831V112H61.9831V113.34C61.4231 112.54 60.2231 111.8 58.7831 111.8C56.0431 111.8 53.9631 114.14 53.9631 117ZM62.1631 117C62.1631 118.8 60.9631 120.2 59.1831 120.2C57.4031 120.2 56.2031 118.8 56.2031 117C56.2031 115.2 57.4031 113.8 59.1831 113.8C60.9631 113.8 62.1631 115.2 62.1631 117ZM76.3836 119.44L74.4636 118.4C73.9836 119.42 73.0036 120.16 71.7236 120.16C69.9436 120.16 68.6836 118.78 68.6836 117C68.6836 115.22 69.9436 113.84 71.7236 113.84C73.0036 113.84 73.9836 114.58 74.4636 115.6L76.3836 114.56C75.5236 112.9 73.7836 111.8 71.7236 111.8C68.7236 111.8 66.4436 114.04 66.4436 117C66.4436 119.96 68.7236 122.2 71.7236 122.2C73.7836 122.2 75.5236 121.1 76.3836 119.44ZM78.3941 122H80.5941V117.08C80.5941 114.94 81.7141 113.8 83.1741 113.8C84.4541 113.8 85.2541 114.76 85.2541 116.34V122H87.4541V115.98C87.4541 113.44 85.9541 111.8 83.6341 111.8C82.3341 111.8 81.1941 112.36 80.5941 113.36V107H78.3941V122ZM94.9761 126.18H97.1761V120.66C97.7361 121.46 98.9561 122.2 100.396 122.2C103.136 122.2 105.216 119.86 105.216 117C105.216 114.14 103.136 111.8 100.396 111.8C98.9561 111.8 97.7361 112.54 97.1761 113.34V112H94.9761V126.18ZM102.976 117C102.976 118.8 101.756 120.2 99.9961 120.2C98.2161 120.2 96.9961 118.8 96.9961 117C96.9961 115.2 98.2161 113.8 99.9961 113.8C101.756 113.8 102.976 115.2 102.976 117ZM106.737 117C106.737 119.86 108.817 122.2 111.557 122.2C112.997 122.2 114.197 121.46 114.757 120.66V122H116.957V112H114.757V113.34C114.197 112.54 112.997 111.8 111.557 111.8C108.817 111.8 106.737 114.14 106.737 117ZM114.937 117C114.937 118.8 113.737 120.2 111.957 120.2C110.177 120.2 108.977 118.8 108.977 117C108.977 115.2 110.177 113.8 111.957 113.8C113.737 113.8 114.937 115.2 114.937 117ZM129.157 119.44L127.237 118.4C126.757 119.42 125.777 120.16 124.497 120.16C122.717 120.16 121.457 118.78 121.457 117C121.457 115.22 122.717 113.84 124.497 113.84C125.777 113.84 126.757 114.58 127.237 115.6L129.157 114.56C128.297 112.9 126.557 111.8 124.497 111.8C121.497 111.8 119.217 114.04 119.217 117C119.217 119.96 121.497 122.2 124.497 122.2C126.557 122.2 128.297 121.1 129.157 119.44ZM131.168 122H133.368V117.16L138.148 122H140.968L135.508 116.46L139.967 112H137.188L133.368 115.8V107H131.168V122ZM140.76 117C140.76 120.04 142.94 122.2 145.98 122.2C148.08 122.2 149.64 121.3 150.54 119.88L148.86 118.68C148.34 119.56 147.4 120.2 146 120.2C144.34 120.2 143.02 119.12 142.92 117.48H150.78C150.8 117.16 150.8 116.98 150.8 116.76C150.8 113.54 148.6 111.8 145.98 111.8C142.94 111.8 140.76 114.06 140.76 117ZM145.9 113.66C147.18 113.66 148.34 114.44 148.58 115.88H143.02C143.32 114.4 144.62 113.66 145.9 113.66ZM152.342 117C152.342 119.86 154.422 122.2 157.162 122.2C158.602 122.2 159.802 121.46 160.362 120.66V122H162.562V107H160.362V113.34C159.802 112.54 158.602 111.8 157.162 111.8C154.422 111.8 152.342 114.14 152.342 117ZM160.542 117C160.542 118.8 159.342 120.2 157.562 120.2C155.782 120.2 154.582 118.8 154.582 117C154.582 115.2 155.782 113.8 157.562 113.8C159.342 113.8 160.542 115.2 160.542 117ZM178.418 122H180.498L183.858 112H181.518L179.338 118.88L177.058 112H175.378L173.078 118.88L170.918 112H168.598L171.958 122H174.038L176.218 115.52L178.418 122ZM188.063 108.34C188.063 107.54 187.423 106.88 186.603 106.88C185.803 106.88 185.123 107.54 185.123 108.34C185.123 109.16 185.803 109.82 186.603 109.82C187.423 109.82 188.063 109.16 188.063 108.34ZM185.503 122H187.703V112H185.503V122ZM196.64 121.88V119.92C196.32 120.04 195.88 120.12 195.46 120.12C194.32 120.12 193.78 119.66 193.78 118.42V113.96H196.64V112H193.78V109.22H191.58V112H189.5V113.96H191.58V118.78C191.58 121.04 193.08 122.1 195 122.1C195.68 122.1 196.2 122.02 196.64 121.88ZM198.726 122H200.926V117.08C200.926 114.94 202.046 113.8 203.506 113.8C204.786 113.8 205.586 114.76 205.586 116.34V122H207.786V115.98C207.786 113.44 206.286 111.8 203.966 111.8C202.666 111.8 201.526 112.36 200.926 113.36V107H198.726V122ZM33.68 148.66C34.24 149.46 35.46 150.2 36.9 150.2C39.64 150.2 41.72 147.86 41.72 145C41.72 142.14 39.64 139.8 36.9 139.8C35.46 139.8 34.24 140.54 33.68 141.34V135H31.48V150H33.68V148.66ZM39.48 145C39.48 146.8 38.26 148.2 36.5 148.2C34.72 148.2 33.5 146.8 33.5 145C33.5 143.2 34.72 141.8 36.5 141.8C38.26 141.8 39.48 143.2 39.48 145ZM46.5205 136.34C46.5205 135.54 45.8805 134.88 45.0605 134.88C44.2605 134.88 43.5805 135.54 43.5805 136.34C43.5805 137.16 44.2605 137.82 45.0605 137.82C45.8805 137.82 46.5205 137.16 46.5205 136.34ZM43.9605 150H46.1605V140H43.9605V150ZM55.0967 149.88V147.92C54.7767 148.04 54.3367 148.12 53.9167 148.12C52.7767 148.12 52.2367 147.66 52.2367 146.42V141.96H55.0967V140H52.2367V137.22H50.0367V140H47.9567V141.96H50.0367V146.78C50.0367 149.04 51.5367 150.1 53.4567 150.1C54.1367 150.1 54.6567 150.02 55.0967 149.88ZM56.3464 145C56.3464 148.04 58.5264 150.2 61.5664 150.2C63.6664 150.2 65.2264 149.3 66.1264 147.88L64.4464 146.68C63.9264 147.56 62.9864 148.2 61.5864 148.2C59.9264 148.2 58.6064 147.12 58.5064 145.48H66.3664C66.3864 145.16 66.3864 144.98 66.3864 144.76C66.3864 141.54 64.1864 139.8 61.5664 139.8C58.5264 139.8 56.3464 142.06 56.3464 145ZM61.4864 141.66C62.7664 141.66 63.9264 142.44 64.1664 143.88H58.6064C58.9064 142.4 60.2064 141.66 61.4864 141.66ZM68.408 145.48H73.788V143.32H68.408V145.48ZM83.28 147.1C83.28 145.46 82.24 144.58 80.48 144.06L79.46 143.76C78.48 143.48 78.26 143.06 78.26 142.58C78.26 141.98 78.94 141.64 79.6 141.64C80.42 141.64 81.06 142.04 81.5 142.66L83.02 141.5C82.32 140.4 81.14 139.8 79.64 139.8C77.64 139.8 76.08 140.88 76.06 142.66C76.04 144.14 76.94 145.24 78.68 145.72L79.56 145.96C80.76 146.32 81.1 146.66 81.1 147.24C81.1 147.94 80.44 148.3 79.66 148.3C78.64 148.3 77.66 147.8 77.26 146.92L75.64 148.08C76.36 149.5 77.88 150.2 79.66 150.2C81.72 150.2 83.28 149.02 83.28 147.1ZM88.122 136.34C88.122 135.54 87.482 134.88 86.662 134.88C85.862 134.88 85.182 135.54 85.182 136.34C85.182 137.16 85.862 137.82 86.662 137.82C87.482 137.82 88.122 137.16 88.122 136.34ZM85.562 150H87.762V140H85.562V150ZM90.0383 150H98.2783V148H92.8983L98.1183 141.76V140H90.1183V142H95.2783L90.0383 148.26V150ZM99.6667 145C99.6667 148.04 101.847 150.2 104.887 150.2C106.987 150.2 108.547 149.3 109.447 147.88L107.767 146.68C107.247 147.56 106.307 148.2 104.907 148.2C103.247 148.2 101.927 147.12 101.827 145.48H109.687C109.707 145.16 109.707 144.98 109.707 144.76C109.707 141.54 107.507 139.8 104.887 139.8C101.847 139.8 99.6667 142.06 99.6667 145ZM104.807 141.66C106.087 141.66 107.247 142.44 107.487 143.88H101.927C102.227 142.4 103.527 141.66 104.807 141.66ZM111.248 145C111.248 147.86 113.328 150.2 116.068 150.2C117.508 150.2 118.708 149.46 119.268 148.66V150H121.468V135H119.268V141.34C118.708 140.54 117.508 139.8 116.068 139.8C113.328 139.8 111.248 142.14 111.248 145ZM119.448 145C119.448 146.8 118.248 148.2 116.468 148.2C114.688 148.2 113.488 146.8 113.488 145C113.488 143.2 114.688 141.8 116.468 141.8C118.248 141.8 119.448 143.2 119.448 145ZM127.029 149.5C127.229 149.18 127.369 148.82 127.369 148.42C127.369 147.48 126.609 146.68 125.649 146.68C124.689 146.68 123.929 147.48 123.929 148.42C123.929 149.16 124.389 149.76 124.909 150L123.529 152.94H124.889L127.029 149.5ZM141.307 147.1C141.307 145.46 140.267 144.58 138.507 144.06L137.487 143.76C136.507 143.48 136.287 143.06 136.287 142.58C136.287 141.98 136.967 141.64 137.627 141.64C138.447 141.64 139.087 142.04 139.527 142.66L141.047 141.5C140.347 140.4 139.167 139.8 137.667 139.8C135.667 139.8 134.107 140.88 134.087 142.66C134.067 144.14 134.967 145.24 136.707 145.72L137.587 145.96C138.787 146.32 139.127 146.66 139.127 147.24C139.127 147.94 138.467 148.3 137.687 148.3C136.667 148.3 135.687 147.8 135.287 146.92L133.667 148.08C134.387 149.5 135.907 150.2 137.687 150.2C139.747 150.2 141.307 149.02 141.307 147.1ZM152.809 147.44L150.889 146.4C150.409 147.42 149.429 148.16 148.149 148.16C146.369 148.16 145.109 146.78 145.109 145C145.109 143.22 146.369 141.84 148.149 141.84C149.429 141.84 150.409 142.58 150.889 143.6L152.809 142.56C151.949 140.9 150.209 139.8 148.149 139.8C145.149 139.8 142.869 142.04 142.869 145C142.869 147.96 145.149 150.2 148.149 150.2C150.209 150.2 151.949 149.1 152.809 147.44ZM157.38 136.34C157.38 135.54 156.74 134.88 155.92 134.88C155.12 134.88 154.44 135.54 154.44 136.34C154.44 137.16 155.12 137.82 155.92 137.82C156.74 137.82 157.38 137.16 157.38 136.34ZM154.82 150H157.02V140H154.82V150ZM159.276 145C159.276 148.04 161.456 150.2 164.496 150.2C166.596 150.2 168.156 149.3 169.056 147.88L167.376 146.68C166.856 147.56 165.916 148.2 164.516 148.2C162.856 148.2 161.536 147.12 161.436 145.48H169.296C169.316 145.16 169.316 144.98 169.316 144.76C169.316 141.54 167.116 139.8 164.496 139.8C161.456 139.8 159.276 142.06 159.276 145ZM164.416 141.66C165.696 141.66 166.856 142.44 167.096 143.88H161.536C161.836 142.4 163.136 141.66 164.416 141.66ZM171.578 150H173.778V145.08C173.778 142.94 174.898 141.8 176.358 141.8C177.638 141.8 178.438 142.76 178.438 144.34V150H180.638V143.98C180.638 141.44 179.138 139.8 176.818 139.8C175.518 139.8 174.378 140.36 173.778 141.36V140H171.578V150ZM192.673 147.44L190.753 146.4C190.273 147.42 189.293 148.16 188.013 148.16C186.233 148.16 184.973 146.78 184.973 145C184.973 143.22 186.233 141.84 188.013 141.84C189.293 141.84 190.273 142.58 190.753 143.6L192.673 142.56C191.813 140.9 190.073 139.8 188.013 139.8C185.013 139.8 182.733 142.04 182.733 145C182.733 147.96 185.013 150.2 188.013 150.2C190.073 150.2 191.813 149.1 192.673 147.44ZM193.983 145C193.983 148.04 196.163 150.2 199.203 150.2C201.303 150.2 202.863 149.3 203.763 147.88L202.083 146.68C201.563 147.56 200.623 148.2 199.223 148.2C197.563 148.2 196.243 147.12 196.143 145.48H204.003C204.023 145.16 204.023 144.98 204.023 144.76C204.023 141.54 201.823 139.8 199.203 139.8C196.163 139.8 193.983 142.06 193.983 145ZM199.123 141.66C200.403 141.66 201.563 142.44 201.803 143.88H196.243C196.543 142.4 197.843 141.66 199.123 141.66ZM206.045 145.48H211.425V143.32H206.045V145.48ZM213.397 145C213.397 147.86 215.477 150.2 218.217 150.2C219.657 150.2 220.857 149.46 221.417 148.66V150H223.617V135H221.417V141.34C220.857 140.54 219.657 139.8 218.217 139.8C215.477 139.8 213.397 142.14 213.397 145ZM221.597 145C221.597 146.8 220.397 148.2 218.617 148.2C216.837 148.2 215.637 146.8 215.637 145C215.637 143.2 216.837 141.8 218.617 141.8C220.397 141.8 221.597 143.2 221.597 145ZM226.597 150H228.797V145.12C228.797 143.12 229.937 142.06 231.197 142.06C231.597 142.06 231.917 142.12 232.297 142.24V139.98C231.997 139.92 231.717 139.9 231.437 139.9C230.297 139.9 229.177 140.64 228.797 141.78V140H226.597V150ZM236.755 136.34C236.755 135.54 236.115 134.88 235.295 134.88C234.495 134.88 233.815 135.54 233.815 136.34C233.815 137.16 234.495 137.82 235.295 137.82C236.115 137.82 236.755 137.16 236.755 136.34ZM234.195 150H236.395V140H234.195V150ZM242.471 150H244.411L248.951 140H246.491L243.431 147L240.391 140H237.951L242.471 150ZM249.53 145C249.53 148.04 251.71 150.2 254.75 150.2C256.85 150.2 258.41 149.3 259.31 147.88L257.63 146.68C257.11 147.56 256.17 148.2 254.77 148.2C253.11 148.2 251.79 147.12 251.69 145.48H259.55C259.57 145.16 259.57 144.98 259.57 144.76C259.57 141.54 257.37 139.8 254.75 139.8C251.71 139.8 249.53 142.06 249.53 145ZM254.67 141.66C255.95 141.66 257.11 142.44 257.35 143.88H251.79C252.09 142.4 253.39 141.66 254.67 141.66ZM261.832 150H264.032V145.08C264.032 142.94 265.152 141.8 266.612 141.8C267.892 141.8 268.692 142.76 268.692 144.34V150H270.892V143.98C270.892 141.44 269.392 139.8 267.072 139.8C265.772 139.8 264.632 140.36 264.032 141.36V140H261.832V150ZM37.46 177.88V175.92C37.14 176.04 36.7 176.12 36.28 176.12C35.14 176.12 34.6 175.66 34.6 174.42V169.96H37.46V168H34.6V165.22H32.4V168H30.32V169.96H32.4V174.78C32.4 177.04 33.9 178.1 35.82 178.1C36.5 178.1 37.02 178.02 37.46 177.88ZM49.1697 173C49.1697 170.1 46.8897 167.8 43.9297 167.8C40.9697 167.8 38.6897 170.1 38.6897 173C38.6897 175.9 40.9697 178.2 43.9297 178.2C46.8897 178.2 49.1697 175.9 49.1697 173ZM40.9097 173C40.9097 171.22 42.1497 169.84 43.9297 169.84C45.6897 169.84 46.9297 171.22 46.9297 173C46.9297 174.78 45.6897 176.16 43.9297 176.16C42.1497 176.16 40.9097 174.78 40.9097 173ZM61.1423 173C61.1423 170.1 58.8623 167.8 55.9023 167.8C52.9423 167.8 50.6623 170.1 50.6623 173C50.6623 175.9 52.9423 178.2 55.9023 178.2C58.8623 178.2 61.1423 175.9 61.1423 173ZM52.8823 173C52.8823 171.22 54.1223 169.84 55.9023 169.84C57.6623 169.84 58.9023 171.22 58.9023 173C58.9023 174.78 57.6623 176.16 55.9023 176.16C54.1223 176.16 52.8823 174.78 52.8823 173ZM63.355 178H65.555V163H63.355V178ZM75.3113 175.1C75.3113 173.46 74.2713 172.58 72.5113 172.06L71.4913 171.76C70.5113 171.48 70.2913 171.06 70.2913 170.58C70.2913 169.98 70.9713 169.64 71.6313 169.64C72.4513 169.64 73.0913 170.04 73.5313 170.66L75.0513 169.5C74.3513 168.4 73.1713 167.8 71.6713 167.8C69.6712 167.8 68.1113 168.88 68.0913 170.66C68.0713 172.14 68.9713 173.24 70.7113 173.72L71.5913 173.96C72.7913 174.32 73.1313 174.66 73.1313 175.24C73.1313 175.94 72.4713 176.3 71.6913 176.3C70.6713 176.3 69.6913 175.8 69.2913 174.92L67.6713 176.08C68.3913 177.5 69.9113 178.2 71.6913 178.2C73.7513 178.2 75.3113 177.02 75.3113 175.1ZM87.9483 177.88V175.92C87.6283 176.04 87.1883 176.12 86.7683 176.12C85.6283 176.12 85.0883 175.66 85.0883 174.42V169.96H87.9483V168H85.0883V165.22H82.8883V168H80.8083V169.96H82.8883V174.78C82.8883 177.04 84.3883 178.1 86.3083 178.1C86.9883 178.1 87.5083 178.02 87.9483 177.88ZM99.658 173C99.658 170.1 97.378 167.8 94.418 167.8C91.458 167.8 89.178 170.1 89.178 173C89.178 175.9 91.458 178.2 94.418 178.2C97.378 178.2 99.658 175.9 99.658 173ZM91.398 173C91.398 171.22 92.638 169.84 94.418 169.84C96.178 169.84 97.418 171.22 97.418 173C97.418 174.78 96.178 176.16 94.418 176.16C92.638 176.16 91.398 174.78 91.398 173ZM108.778 176.66C109.338 177.46 110.558 178.2 111.998 178.2C114.738 178.2 116.818 175.86 116.818 173C116.818 170.14 114.738 167.8 111.998 167.8C110.558 167.8 109.338 168.54 108.778 169.34V163H106.578V178H108.778V176.66ZM114.578 173C114.578 174.8 113.358 176.2 111.598 176.2C109.818 176.2 108.598 174.8 108.598 173C108.598 171.2 109.818 169.8 111.598 169.8C113.358 169.8 114.578 171.2 114.578 173ZM128.818 173C128.818 170.1 126.538 167.8 123.578 167.8C120.618 167.8 118.338 170.1 118.338 173C118.338 175.9 120.618 178.2 123.578 178.2C126.538 178.2 128.818 175.9 128.818 173ZM120.558 173C120.558 171.22 121.798 169.84 123.578 169.84C125.338 169.84 126.578 171.22 126.578 173C126.578 174.78 125.338 176.16 123.578 176.16C121.798 176.16 120.558 174.78 120.558 173ZM140.791 173C140.791 170.1 138.511 167.8 135.551 167.8C132.591 167.8 130.311 170.1 130.311 173C130.311 175.9 132.591 178.2 135.551 178.2C138.511 178.2 140.791 175.9 140.791 173ZM132.531 173C132.531 171.22 133.771 169.84 135.551 169.84C137.311 169.84 138.551 171.22 138.551 173C138.551 174.78 137.311 176.16 135.551 176.16C133.771 176.16 132.531 174.78 132.531 173ZM149.764 175.1C149.764 173.46 148.724 172.58 146.964 172.06L145.944 171.76C144.964 171.48 144.744 171.06 144.744 170.58C144.744 169.98 145.424 169.64 146.084 169.64C146.904 169.64 147.544 170.04 147.984 170.66L149.504 169.5C148.804 168.4 147.624 167.8 146.124 167.8C144.124 167.8 142.564 168.88 142.544 170.66C142.524 172.14 143.424 173.24 145.164 173.72L146.044 173.96C147.244 174.32 147.584 174.66 147.584 175.24C147.584 175.94 146.924 176.3 146.144 176.3C145.124 176.3 144.144 175.8 143.744 174.92L142.124 176.08C142.844 177.5 144.364 178.2 146.144 178.2C148.204 178.2 149.764 177.02 149.764 175.1ZM157.89 177.88V175.92C157.57 176.04 157.13 176.12 156.71 176.12C155.57 176.12 155.03 175.66 155.03 174.42V169.96H157.89V168H155.03V165.22H152.83V168H150.75V169.96H152.83V174.78C152.83 177.04 154.33 178.1 156.25 178.1C156.93 178.1 157.45 178.02 157.89 177.88ZM167.414 182.18L173.834 168H171.394L168.334 175.08L165.254 168H162.834L167.134 177.46L164.994 182.18H167.414ZM184.873 173C184.873 170.1 182.593 167.8 179.633 167.8C176.673 167.8 174.393 170.1 174.393 173C174.393 175.9 176.673 178.2 179.633 178.2C182.593 178.2 184.873 175.9 184.873 173ZM176.613 173C176.613 171.22 177.853 169.84 179.633 169.84C181.393 169.84 182.633 171.22 182.633 173C182.633 174.78 181.393 176.16 179.633 176.16C177.853 176.16 176.613 174.78 176.613 173ZM186.945 173.98C186.945 176.54 188.365 178.2 190.665 178.2C191.945 178.2 193.005 177.64 193.585 176.64V178H195.785V168H193.585V172.92C193.585 175.06 192.565 176.2 191.145 176.2C189.865 176.2 189.145 175.22 189.145 173.62V168H186.945V173.98ZM198.746 178H200.946V173.12C200.946 171.12 202.086 170.06 203.346 170.06C203.746 170.06 204.066 170.12 204.446 170.24V167.98C204.146 167.92 203.866 167.9 203.586 167.9C202.446 167.9 201.326 168.64 200.946 169.78V168H198.746V178ZM30.78 201C30.78 204.04 32.96 206.2 36 206.2C38.1 206.2 39.66 205.3 40.56 203.88L38.88 202.68C38.36 203.56 37.42 204.2 36.02 204.2C34.36 204.2 33.04 203.12 32.94 201.48H40.8C40.82 201.16 40.82 200.98 40.82 200.76C40.82 197.54 38.62 195.8 36 195.8C32.96 195.8 30.78 198.06 30.78 201ZM35.92 197.66C37.2 197.66 38.36 198.44 38.6 199.88H33.04C33.34 198.4 34.64 197.66 35.92 197.66ZM43.0816 206H45.2816V201.08C45.2816 198.98 46.2616 197.8 47.6816 197.8C48.8816 197.8 49.4616 198.82 49.4616 200.38V206H51.6616V201.08C51.6616 198.98 52.6216 197.8 54.0416 197.8C55.2416 197.8 55.8216 198.82 55.8216 200.38V206H58.0216V200.02C58.0216 197.46 56.6816 195.8 54.4216 195.8C53.1016 195.8 51.8216 196.5 51.2216 197.78C50.6816 196.54 49.6016 195.8 48.1216 195.8C46.8416 195.8 45.8416 196.42 45.2816 197.36V196H43.0816V206ZM70.5955 201C70.5955 198.1 68.3155 195.8 65.3555 195.8C62.3955 195.8 60.1155 198.1 60.1155 201C60.1155 203.9 62.3955 206.2 65.3555 206.2C68.3155 206.2 70.5955 203.9 70.5955 201ZM62.3355 201C62.3355 199.22 63.5755 197.84 65.3555 197.84C67.1155 197.84 68.3555 199.22 68.3555 201C68.3555 202.78 67.1155 204.16 65.3555 204.16C63.5755 204.16 62.3355 202.78 62.3355 201ZM78.5928 205.88V203.92C78.2728 204.04 77.8328 204.12 77.4128 204.12C76.2728 204.12 75.7328 203.66 75.7328 202.42V197.96H78.5928V196H75.7328V193.22H73.5328V196H71.4528V197.96H73.5328V202.78C73.5328 205.04 75.0328 206.1 76.9528 206.1C77.6328 206.1 78.1528 206.02 78.5928 205.88ZM83.2392 192.34C83.2392 191.54 82.5992 190.88 81.7792 190.88C80.9792 190.88 80.2992 191.54 80.2992 192.34C80.2992 193.16 80.9792 193.82 81.7792 193.82C82.5992 193.82 83.2392 193.16 83.2392 192.34ZM80.6792 206H82.8792V196H80.6792V206ZM95.5955 201C95.5955 198.1 93.3155 195.8 90.3555 195.8C87.3955 195.8 85.1155 198.1 85.1155 201C85.1155 203.9 87.3955 206.2 90.3555 206.2C93.3155 206.2 95.5955 203.9 95.5955 201ZM87.3355 201C87.3355 199.22 88.5755 197.84 90.3555 197.84C92.1155 197.84 93.3555 199.22 93.3555 201C93.3555 202.78 92.1155 204.16 90.3555 204.16C88.5755 204.16 87.3355 202.78 87.3355 201ZM97.8081 206H100.008V201.08C100.008 198.94 101.128 197.8 102.588 197.8C103.868 197.8 104.668 198.76 104.668 200.34V206H106.868V199.98C106.868 197.44 105.368 195.8 103.048 195.8C101.748 195.8 100.608 196.36 100.008 197.36V196H97.8081V206ZM108.963 201C108.963 203.86 111.043 206.2 113.783 206.2C115.223 206.2 116.423 205.46 116.983 204.66V206H119.183V196H116.983V197.34C116.423 196.54 115.223 195.8 113.783 195.8C111.043 195.8 108.963 198.14 108.963 201ZM117.163 201C117.163 202.8 115.963 204.2 114.183 204.2C112.403 204.2 111.203 202.8 111.203 201C111.203 199.2 112.403 197.8 114.183 197.8C115.963 197.8 117.163 199.2 117.163 201ZM122.164 206H124.364V191H122.164V206ZM134.587 192.34C134.587 191.54 133.947 190.88 133.127 190.88C132.327 190.88 131.647 191.54 131.647 192.34C131.647 193.16 132.327 193.82 133.127 193.82C133.947 193.82 134.587 193.16 134.587 192.34ZM132.027 206H134.227V196H132.027V206ZM137.183 206H139.383V201.08C139.383 198.94 140.503 197.8 141.963 197.8C143.243 197.8 144.043 198.76 144.043 200.34V206H146.243V199.98C146.243 197.44 144.743 195.8 142.423 195.8C141.123 195.8 139.983 196.36 139.383 197.36V196H137.183V206ZM154.921 205.88V203.92C154.601 204.04 154.161 204.12 153.741 204.12C152.601 204.12 152.061 203.66 152.061 202.42V197.96H154.921V196H152.061V193.22H149.861V196H147.781V197.96H149.861V202.78C149.861 205.04 151.361 206.1 153.281 206.1C153.961 206.1 154.481 206.02 154.921 205.88ZM156.171 201C156.171 204.04 158.351 206.2 161.391 206.2C163.491 206.2 165.051 205.3 165.951 203.88L164.271 202.68C163.751 203.56 162.811 204.2 161.411 204.2C159.751 204.2 158.431 203.12 158.331 201.48H166.191C166.211 201.16 166.211 200.98 166.211 200.76C166.211 197.54 164.011 195.8 161.391 195.8C158.351 195.8 156.171 198.06 156.171 201ZM161.311 197.66C162.591 197.66 163.751 198.44 163.991 199.88H158.431C158.731 198.4 160.031 197.66 161.311 197.66ZM168.472 206H170.672V191H168.472V206ZM173.628 206H175.828V191H173.628V206ZM181.345 192.34C181.345 191.54 180.705 190.88 179.885 190.88C179.085 190.88 178.405 191.54 178.405 192.34C178.405 193.16 179.085 193.82 179.885 193.82C180.705 193.82 181.345 193.16 181.345 192.34ZM178.785 206H180.985V196H178.785V206ZM193.441 205.32V196H191.241V197.34C190.641 196.46 189.421 195.8 188.041 195.8C185.341 195.8 183.241 198.04 183.241 200.86C183.241 203.7 185.341 205.94 188.041 205.94C189.421 205.94 190.641 205.26 191.241 204.38V205.3C191.241 207.32 189.881 208.42 188.221 208.42C186.881 208.42 185.741 207.88 184.901 206.96L183.561 208.54C184.541 209.64 186.281 210.38 188.241 210.38C191.201 210.38 193.441 208.8 193.441 205.32ZM185.461 200.86C185.461 199.08 186.741 197.8 188.441 197.8C190.141 197.8 191.421 199.08 191.421 200.86C191.421 202.64 190.141 203.92 188.441 203.92C186.741 203.92 185.461 202.64 185.461 200.86ZM195.702 201C195.702 204.04 197.882 206.2 200.922 206.2C203.022 206.2 204.582 205.3 205.482 203.88L203.802 202.68C203.282 203.56 202.342 204.2 200.942 204.2C199.282 204.2 197.962 203.12 197.862 201.48H205.722C205.742 201.16 205.742 200.98 205.742 200.76C205.742 197.54 203.542 195.8 200.922 195.8C197.882 195.8 195.702 198.06 195.702 201ZM200.842 197.66C202.122 197.66 203.282 198.44 203.522 199.88H197.962C198.262 198.4 199.562 197.66 200.842 197.66ZM208.003 206H210.203V201.08C210.203 198.94 211.323 197.8 212.783 197.8C214.063 197.8 214.863 198.76 214.863 200.34V206H217.063V199.98C217.063 197.44 215.563 195.8 213.243 195.8C211.943 195.8 210.803 196.36 210.203 197.36V196H208.003V206ZM229.098 203.44L227.178 202.4C226.698 203.42 225.718 204.16 224.438 204.16C222.658 204.16 221.398 202.78 221.398 201C221.398 199.22 222.658 197.84 224.438 197.84C225.718 197.84 226.698 198.58 227.178 199.6L229.098 198.56C228.238 196.9 226.498 195.8 224.438 195.8C221.438 195.8 219.158 198.04 219.158 201C219.158 203.96 221.438 206.2 224.438 206.2C226.498 206.2 228.238 205.1 229.098 203.44ZM230.409 201C230.409 204.04 232.589 206.2 235.629 206.2C237.729 206.2 239.289 205.3 240.189 203.88L238.509 202.68C237.989 203.56 237.049 204.2 235.649 204.2C233.989 204.2 232.669 203.12 232.569 201.48H240.429C240.449 201.16 240.449 200.98 240.449 200.76C240.449 197.54 238.249 195.8 235.629 195.8C232.589 195.8 230.409 198.06 230.409 201ZM235.549 197.66C236.829 197.66 237.989 198.44 238.229 199.88H232.669C232.969 198.4 234.269 197.66 235.549 197.66ZM245.61 204.42C245.61 203.48 244.83 202.68 243.87 202.68C242.93 202.68 242.15 203.48 242.15 204.42C242.15 205.38 242.93 206.16 243.87 206.16C244.83 206.16 245.61 205.38 245.61 204.42Z" fill="#4B27DC"/>
<path d="M333.025 317.142C332.941 296.246 323.677 275.391 305.064 261.22C279.937 242.016 244.193 242.312 219.32 261.813C200.073 276.914 191.063 299.291 192.247 321.246C192.67 329.029 186.029 335.67 178.246 335.247C156.291 334.063 133.914 343.073 118.813 362.32C99.3118 387.193 99.0157 422.937 118.22 448.064C132.391 466.634 153.246 475.941 174.142 476.025C181.841 476.067 187.975 482.159 187.975 489.858C188.059 510.754 197.323 531.609 215.936 545.78C241.063 564.984 276.807 564.688 301.68 545.187C320.927 530.086 329.937 507.709 328.753 485.754C328.33 477.971 334.971 471.33 342.754 471.753C364.709 472.937 387.086 463.927 402.187 444.68C421.688 419.807 421.984 384.063 402.78 358.936C388.609 340.366 367.754 331.059 346.858 330.975C339.159 330.975 333.067 324.841 333.025 317.142Z" fill="#92DBBB"/>
<path d="M303.691 316.414L295.873 329.023H303.691L295.873 343.151" stroke="#987DF7" stroke-width="3.3807" stroke-miterlimit="10" stroke-linecap="round" stroke-linejoin="round"/>
<path d="M184.047 309.607C179.728 310.891 178.158 312.479 176.888 316.846C176.68 317.581 175.64 317.581 175.433 316.846C174.162 312.479 172.592 310.891 168.273 309.607C167.546 309.396 167.546 308.346 168.273 308.135C172.592 306.851 174.162 305.263 175.433 300.896C175.64 300.161 176.68 300.161 176.888 300.896C178.158 305.263 179.728 306.851 184.047 308.135C184.775 308.346 184.775 309.385 184.047 309.607Z" fill="#FF5E4D"/>
<g opacity="0.1">
<path opacity="0.1" d="M247.228 369.492C247.228 382.885 247.218 393.825 247.218 393.825H247.167C247.167 404.287 239.524 412.773 230.079 412.773C223.133 412.773 217.15 408.172 214.486 401.572C211.864 407.707 206.239 411.932 199.713 411.932C193.198 411.932 187.573 407.707 184.951 401.572C182.287 408.172 176.314 412.773 169.358 412.773C159.923 412.773 152.27 404.287 152.27 393.825H152.229C152.229 393.825 152.219 384.805 152.219 373.127C156.696 372.434 161.419 373.684 165.107 376.615C168.006 378.909 170.229 382.113 173.077 384.487C175.966 386.884 179.562 388.372 183.158 388.1C186.436 387.85 189.479 386.191 192.593 385.01C199.119 382.556 206.28 382.204 212.97 384.021C216.289 384.919 219.588 386.35 223 386.089C228.911 385.646 233.439 380.409 237.957 376.16C240.733 373.536 243.878 371.151 247.228 369.492Z" fill="#4B194E"/>
</g>
<path d="M239.484 379.773L235.417 379.489C230.069 379.114 225.1 376.842 221.044 372.923L217.837 369.811L221.617 371.992C225.828 374.411 230.53 376.57 235.601 378.387L239.484 379.773Z" fill="#E1BFF7"/>
<path d="M310.978 337.069C310.312 336.989 309.636 336.955 308.939 336.955C308.786 336.955 308.622 336.955 308.468 336.967C308.775 335.104 308.939 333.173 308.939 331.207C308.939 313.566 296.041 299.275 280.131 299.275C265.369 299.275 253.188 311.589 251.528 327.47C247.973 326.652 246.016 325.482 239.767 325.482C226.623 325.482 214.729 337.944 217.075 353.495C218.263 361.333 220.62 366.707 225.691 371.444C237.318 382.304 254.212 385.598 275.992 385.598C288.204 385.598 302.301 384.019 315.117 378.169C321.417 375.295 327.564 366.559 327.564 358.459C327.554 346.975 321.049 338.205 310.978 337.069Z" fill="#ABD7FE"/>
<path d="M270.838 355.155C269.424 355.155 267.826 354.826 266.023 354.008C264.978 353.531 264.476 352.202 264.906 351.043C265.336 349.884 266.535 349.328 267.58 349.805C271.391 351.543 273.348 350.145 274.485 348.941C275.304 348.078 276.606 348.112 277.384 349.032C278.163 349.941 278.132 351.384 277.302 352.247C275.899 353.724 273.768 355.155 270.838 355.155Z" fill="#031B0D"/>
<path d="M281.397 345.146C281.059 345.146 280.711 345.124 280.373 345.089C278.057 344.806 275.926 343.59 274.369 341.67C273.611 340.739 273.683 339.296 274.523 338.467C275.363 337.626 276.664 337.706 277.412 338.637C278.293 339.728 279.502 340.409 280.803 340.568C282.719 340.807 284.614 339.864 285.741 338.126C286.397 337.104 287.677 336.876 288.599 337.603C289.521 338.33 289.726 339.75 289.07 340.773C287.298 343.533 284.419 345.146 281.397 345.146Z" fill="#031B0D"/>
<path d="M259.024 346.704C258.665 346.704 258.296 346.682 257.927 346.636C255.612 346.341 253.491 345.103 251.955 343.172C251.207 342.229 251.289 340.797 252.129 339.968C252.979 339.139 254.27 339.23 255.018 340.161C255.889 341.252 257.087 341.956 258.399 342.127C260.314 342.376 262.21 341.456 263.347 339.718C264.013 338.707 265.293 338.48 266.205 339.218C267.117 339.957 267.322 341.377 266.656 342.388C264.883 345.114 262.025 346.704 259.024 346.704Z" fill="#031B0D"/>
<path d="M205.523 335.333C201.876 335.333 198.761 333.777 196.241 330.664C195.483 329.733 195.555 328.301 196.395 327.461C197.235 326.62 198.526 326.688 199.284 327.631C201.907 330.846 205.246 331.584 209.826 329.96C210.901 329.574 212.059 330.233 212.407 331.425C212.756 332.618 212.162 333.902 211.086 334.288C209.109 334.981 207.254 335.333 205.523 335.333Z" fill="#031B0D"/>
<path d="M190.466 320.77C185.958 320.77 181.778 318.055 179.566 313.704C179.012 312.614 179.361 311.228 180.344 310.614C181.328 310.001 182.578 310.387 183.131 311.478C184.616 314.408 187.434 316.237 190.466 316.237C192.535 316.237 194.533 315.397 196.07 313.863C196.91 313.023 198.211 313.102 198.959 314.034C199.717 314.954 199.645 316.385 198.805 317.226C196.51 319.509 193.55 320.77 190.466 320.77Z" fill="#031B0D"/>
<path d="M222.46 324.19C218.27 324.19 214.315 321.85 212 317.931C211.375 316.886 211.642 315.477 212.594 314.784C213.537 314.091 214.807 314.387 215.432 315.432C217.092 318.249 220.022 319.862 223.034 319.624C225.103 319.465 227.039 318.476 228.484 316.829C229.273 315.932 230.574 315.909 231.383 316.784C232.192 317.658 232.213 319.101 231.424 319.998C229.273 322.441 226.394 323.918 223.321 324.156C223.023 324.19 222.747 324.19 222.46 324.19Z" fill="#031B0D"/>
<path d="M205.366 325.251C206.577 325.251 207.559 324.163 207.559 322.82C207.559 321.477 206.577 320.389 205.366 320.389C204.155 320.389 203.174 321.477 203.174 322.82C203.174 324.163 204.155 325.251 205.366 325.251Z" fill="#FFDD4D"/>
<path d="M247.266 326.312C245.422 325.847 243.271 325.472 239.767 325.472C226.623 325.472 214.729 337.933 217.075 353.485C218.263 361.323 220.62 366.696 225.691 371.433C231.551 376.909 238.743 380.453 247.225 382.634C247.246 366.685 247.266 338.036 247.266 326.312Z" fill="#DEF6F6"/>
<path d="M248.164 324.844C248.164 324.91 248.154 325.477 248.154 326.436C248.154 326.883 248.154 327.407 248.154 328.017C248.154 328.497 248.174 329.02 248.174 329.598C248.174 330.089 247.968 330.623 247.968 331.179C247.968 331.681 248.133 332.215 248.133 332.76C248.133 333.272 248.081 333.796 248.081 334.341C248.081 334.853 247.916 335.377 247.916 335.922C247.916 336.434 247.782 336.969 247.782 337.503C247.782 338.015 248.05 338.55 248.05 339.084C248.05 339.607 248.216 340.13 248.216 340.665C248.216 341.188 247.792 341.711 247.792 342.246C247.792 342.769 247.947 343.292 247.947 343.827C247.947 344.35 248.185 344.873 248.185 345.407C248.185 345.931 247.937 346.454 247.937 346.988C247.937 347.512 248.226 348.046 248.226 348.569C248.226 349.093 247.937 349.627 247.937 350.15C247.937 350.674 247.751 351.208 247.751 351.731C247.751 352.255 248.216 352.789 248.216 353.323C248.216 353.846 248.216 354.381 248.216 354.904C248.216 355.427 248.185 355.962 248.185 356.485C248.185 357.008 247.999 357.542 247.999 358.077C247.999 358.611 247.957 359.134 247.957 359.669C247.957 360.203 247.865 360.726 247.865 361.26C247.865 361.795 247.844 362.318 247.844 362.852C247.844 363.386 247.792 363.91 247.792 364.444C247.792 364.978 247.772 365.513 247.772 366.036C247.772 366.57 247.854 367.104 247.854 367.628C247.854 368.162 247.761 368.696 247.761 369.22C247.761 369.754 247.906 370.288 247.906 370.811C247.906 371.346 248.174 371.88 248.174 372.403C248.174 372.937 248.257 373.472 248.257 373.995C248.257 374.529 247.751 375.064 247.751 375.587C247.751 376.121 247.999 376.655 247.999 377.179C247.999 377.713 248.05 378.247 248.05 378.771C248.05 379.305 247.947 379.839 247.947 380.351C247.947 380.886 247.865 381.42 247.865 381.932C247.865 382.478 247.916 383.001 247.916 383.524C247.916 384.069 248.03 384.604 248.03 385.116C248.03 385.661 248.05 386.195 248.05 386.708C248.05 387.264 248.071 387.787 248.071 388.289C248.071 388.845 247.741 389.379 247.741 389.87C247.741 390.448 248.154 390.971 248.154 391.451C248.154 392.061 248.216 392.585 248.216 393.032C248.216 394.046 248.247 393.838 248.174 394.623C248.174 394.645 248.164 394.602 248.164 394.623C248.164 395.158 247.937 395.659 247.895 396.183C247.854 396.717 247.854 397.251 247.772 397.774C247.689 398.298 247.658 398.854 247.534 399.355C247.4 399.868 247.307 400.413 247.132 400.904C246.956 401.405 246.522 401.798 246.316 402.277C246.099 402.757 246.078 403.357 245.831 403.804C245.583 404.262 245.253 404.687 244.964 405.123C244.674 405.559 244.323 405.962 244.003 406.366C243.683 406.769 243.25 407.086 242.899 407.456C242.548 407.827 242.228 408.252 241.846 408.59C241.464 408.928 241.071 409.277 240.658 409.582C240.245 409.888 239.843 410.226 239.409 410.487C238.976 410.749 238.532 411.032 238.077 411.261C237.623 411.479 237.148 411.687 236.673 411.872C236.209 412.057 235.703 412.188 235.218 412.33C234.732 412.461 234.237 412.613 233.741 412.711C233.256 412.799 232.73 412.711 232.224 412.755C231.728 412.799 231.222 412.94 230.716 412.94C230.2 412.94 229.684 412.864 229.189 412.81C228.683 412.766 228.146 412.81 227.65 412.722C227.144 412.624 226.639 412.472 226.153 412.33C225.658 412.188 225.214 411.883 224.739 411.697C224.264 411.512 223.892 411.087 223.428 410.858C222.963 410.629 222.488 410.465 222.055 410.193C221.621 409.92 221.218 409.604 220.806 409.288C220.393 408.972 219.773 408.928 219.391 408.579C219.009 408.23 218.885 407.576 218.534 407.195C218.183 406.813 217.791 406.475 217.461 406.061C217.141 405.646 216.583 405.406 216.304 404.959C216.015 404.512 216.098 403.836 215.85 403.368C215.602 402.899 215.231 402.255 215.024 401.765C214.818 402.223 214.415 402.833 214.178 403.269C213.94 403.706 213.651 404.087 213.372 404.502C213.094 404.916 213.011 405.472 212.701 405.853C212.392 406.235 212.144 406.682 211.803 407.042C211.462 407.402 211.122 407.772 210.76 408.089C210.399 408.416 209.914 408.59 209.521 408.874C209.129 409.157 208.623 409.233 208.21 409.484C207.797 409.735 207.55 410.313 207.116 410.52C206.682 410.727 206.135 410.64 205.681 410.814C205.237 410.989 204.772 411.043 204.308 411.174C203.854 411.305 203.42 411.501 202.945 411.578C202.481 411.665 202.006 411.632 201.531 411.676C201.056 411.719 200.602 412.199 200.116 412.199C199.59 412.199 199.084 411.916 198.568 411.861C198.052 411.806 197.525 411.839 197.019 411.741C196.513 411.643 196.018 411.447 195.522 411.294C195.027 411.141 194.469 411.141 193.994 410.945C193.509 410.749 193.055 410.444 192.601 410.193C192.136 409.942 191.692 409.648 191.258 409.364C190.825 409.07 190.515 408.59 190.102 408.252C189.689 407.914 189.348 407.533 188.967 407.151C188.595 406.78 188.213 406.431 187.862 406.017C187.521 405.614 187.304 405.112 187.005 404.676C186.706 404.24 186.355 403.847 186.096 403.379C185.838 402.91 185.456 402.452 185.229 401.961C185.023 402.452 184.734 402.953 184.486 403.422C184.238 403.891 183.918 404.305 183.629 404.741C183.34 405.188 183.061 405.625 182.741 406.039C182.421 406.453 182.194 406.955 181.843 407.336C181.492 407.718 180.996 407.947 180.614 408.296C180.232 408.645 179.799 408.906 179.386 409.222C178.973 409.539 178.756 410.149 178.312 410.422C177.879 410.694 177.3 410.694 176.836 410.923C176.382 411.152 175.969 411.49 175.483 411.676C175.009 411.861 174.513 411.992 174.017 412.134C173.532 412.275 173.006 412.243 172.51 412.33C172.015 412.428 171.55 412.81 171.044 412.853C170.538 412.897 170.022 412.82 169.506 412.82C169 412.82 168.484 412.919 167.988 412.875C167.482 412.831 166.966 412.788 166.481 412.69C165.985 412.602 165.572 412.134 165.087 411.992C164.602 411.85 164.014 412.046 163.549 411.872C163.074 411.687 162.579 411.534 162.124 411.316C161.67 411.087 161.443 410.4 161.009 410.138C160.576 409.877 160.183 409.571 159.77 409.266C159.357 408.961 158.975 408.656 158.594 408.318C158.212 407.98 157.809 407.685 157.448 407.314C157.097 406.944 156.632 406.682 156.312 406.279C155.992 405.875 155.486 405.603 155.197 405.167C154.908 404.73 154.887 404.109 154.639 403.651C154.392 403.193 154.34 402.637 154.123 402.157C153.917 401.678 153.452 401.318 153.277 400.816C153.101 400.326 152.946 399.813 152.812 399.301C152.688 398.788 152.791 398.232 152.699 397.709C152.616 397.197 152.182 396.717 152.141 396.183C152.1 395.659 152.358 395.103 152.358 394.569C152.358 394.547 152.471 394.58 152.471 394.558C152.409 393.773 152.141 394.013 152.141 392.999C152.141 392.552 152.224 392.029 152.224 391.418C152.224 390.938 152.048 390.415 152.048 389.837C152.048 389.346 152.027 388.812 152.027 388.256C152.027 387.755 152.378 387.22 152.378 386.675C152.378 386.163 152.172 385.639 152.172 385.094C152.172 384.582 152.007 384.058 152.007 383.513C152.007 383.001 152.058 382.467 152.058 381.932C152.058 381.42 152.182 380.886 152.182 380.351C152.182 379.828 152.399 379.305 152.389 378.771C152.389 378.247 152.234 377.724 152.234 377.19C152.234 376.666 152.409 376.143 152.409 375.609C152.409 375.085 152.131 374.562 152.131 374.028C152.131 373.504 152.048 372.97 152.048 372.447C152.048 371.923 152.12 371.4 152.12 370.866C152.12 370.343 152.358 369.819 152.358 369.285C152.358 368.762 152.193 368.227 152.193 367.704C152.193 367.181 152.141 366.646 152.141 366.123C152.141 365.6 152.151 365.065 152.151 364.542C152.151 364.008 152.089 363.485 152.089 362.95C152.089 362.416 152.327 361.893 152.327 361.358C152.327 360.824 152.306 360.301 152.306 359.767C152.306 359.232 152.089 358.709 152.089 358.175C152.089 357.641 152.296 357.117 152.296 356.583C152.296 356.049 152.172 355.525 152.172 354.991C152.172 354.457 152.027 353.934 152.027 353.399C152.027 352.865 152.275 352.342 152.275 351.818C152.275 351.284 152.265 350.75 152.265 350.237C152.265 349.703 152.368 349.169 152.368 348.646C152.368 348.111 152.224 347.577 152.224 347.054C152.224 346.509 152.409 345.985 152.409 345.462C152.409 344.917 152.368 344.393 152.368 343.87C152.368 343.325 152.058 342.802 152.058 342.289C152.058 341.744 152.265 341.21 152.265 340.708C152.265 340.152 152.017 339.629 152.017 339.127C152.017 338.56 152.265 338.037 152.265 337.546C152.265 336.969 152.089 336.434 152.089 335.966C152.089 335.333 152.12 334.799 152.12 334.385C152.12 333.861 152.131 333.338 152.141 332.815C152.151 332.291 152.162 331.768 152.172 331.245C152.193 330.721 152.234 330.198 152.265 329.674C152.286 329.151 152.585 328.65 152.626 328.126C152.657 327.603 152.234 327.036 152.275 326.524C152.317 326 152.802 325.52 152.853 324.997C152.905 324.474 152.998 323.961 153.06 323.449C153.122 322.926 153.184 322.413 153.246 321.89C153.318 321.366 153.111 320.81 153.184 320.287C153.266 319.764 153.39 319.262 153.483 318.75C153.576 318.237 153.607 317.703 153.7 317.191C153.793 316.678 153.844 316.144 153.948 315.631C154.051 315.119 154.134 314.596 154.247 314.083C154.361 313.571 154.526 313.069 154.65 312.568C154.774 312.055 155.135 311.619 155.269 311.118C155.403 310.616 155.548 310.115 155.692 309.613C155.837 309.112 155.713 308.512 155.868 308.021C156.023 307.52 156.291 307.062 156.456 306.571C156.622 306.08 157.024 305.677 157.2 305.186C157.375 304.696 157.613 304.238 157.799 303.747C157.984 303.257 157.891 302.646 158.088 302.166C158.284 301.687 158.397 301.163 158.614 300.684C158.821 300.204 159.285 299.855 159.502 299.386C159.719 298.917 159.925 298.438 160.152 297.98C160.38 297.511 160.493 296.987 160.741 296.529C160.978 296.072 161.402 295.723 161.649 295.265C161.897 294.807 162.197 294.393 162.465 293.945C162.733 293.498 162.95 293.03 163.229 292.604C163.508 292.168 163.683 291.667 163.972 291.242C164.261 290.816 164.643 290.457 164.943 290.042C165.242 289.617 165.634 289.279 165.934 288.876C166.244 288.461 166.336 287.873 166.656 287.469C166.977 287.066 167.173 286.542 167.503 286.161C167.833 285.768 168.443 285.648 168.783 285.267C169.124 284.885 169.217 284.242 169.568 283.871C169.919 283.5 170.456 283.337 170.827 282.977C171.189 282.617 171.612 282.334 171.994 281.996C172.366 281.658 172.81 281.407 173.202 281.08C173.584 280.753 173.842 280.251 174.234 279.935C174.616 279.674 174.926 279.237 175.339 278.932C175.742 278.627 176.206 278.409 176.619 278.125C177.032 277.842 177.414 277.482 177.837 277.22C178.261 276.948 178.746 276.784 179.179 276.533C179.613 276.283 180.047 276.01 180.491 275.781C180.934 275.541 181.327 275.192 181.781 274.974C182.235 274.756 182.721 274.625 183.185 274.429C183.639 274.233 184.145 274.135 184.61 273.949C185.074 273.764 185.549 273.601 186.014 273.437C186.478 273.273 187.005 273.306 187.49 273.154C187.965 273.001 188.44 272.87 188.915 272.739C189.39 272.608 189.782 272.041 190.267 271.932C190.753 271.823 191.31 272.107 191.806 272.02C192.291 271.922 192.755 271.66 193.241 271.584C193.726 271.507 194.242 271.605 194.738 271.54C195.223 271.485 195.729 271.562 196.224 271.518C196.72 271.474 197.195 271.213 197.69 271.18C198.175 271.137 198.671 270.984 199.167 270.973C199.662 270.962 200.158 271.246 200.653 271.256C201.149 271.267 201.634 271.278 202.14 271.3C202.635 271.322 203.131 271.278 203.626 271.322C204.122 271.355 204.597 271.573 205.092 271.627C205.578 271.682 206.115 271.376 206.61 271.442C207.095 271.507 207.601 271.507 208.097 271.594C208.582 271.671 209.088 271.693 209.583 271.78C210.069 271.878 210.502 272.281 210.987 272.39C211.473 272.499 211.968 272.543 212.453 272.663C212.939 272.783 213.465 272.739 213.94 272.87C214.425 273.001 214.828 273.426 215.303 273.568C215.788 273.71 216.232 273.939 216.707 274.091C217.192 274.244 217.688 274.298 218.152 274.451C218.627 274.615 219.071 274.854 219.536 275.018C220.011 275.192 220.537 275.182 220.991 275.367C221.456 275.552 221.9 275.814 222.344 276.01C222.808 276.217 223.242 276.468 223.686 276.686C224.14 276.904 224.698 276.882 225.142 277.111C225.596 277.34 225.947 277.766 226.38 278.005C226.824 278.256 227.217 278.583 227.64 278.834C228.074 279.096 228.538 279.292 228.951 279.564C229.374 279.848 229.922 279.913 230.324 280.208C230.737 280.502 231.098 280.873 231.491 281.189C231.893 281.505 232.234 281.898 232.616 282.225C233.008 282.552 233.39 282.879 233.762 283.228C234.134 283.577 234.557 283.871 234.908 284.231C235.269 284.591 235.672 284.918 236.013 285.289C236.353 285.67 236.529 286.215 236.849 286.608C237.169 287 237.334 287.535 237.634 287.949C237.943 288.363 238.294 288.723 238.583 289.148C238.872 289.573 239.058 290.064 239.327 290.5C239.595 290.936 240.266 291.111 240.524 291.558C240.782 292.005 240.886 292.55 241.123 293.008C241.36 293.466 241.433 294.011 241.65 294.48C241.866 294.949 242.259 295.33 242.465 295.799C242.672 296.268 243.023 296.693 243.208 297.173C243.394 297.653 243.57 298.154 243.745 298.645C243.921 299.135 243.714 299.768 243.879 300.258C244.034 300.749 244.427 301.163 244.571 301.665C244.716 302.155 244.674 302.722 244.809 303.224C244.943 303.725 244.953 304.26 245.077 304.761C245.201 305.263 245.521 305.71 245.635 306.222C245.748 306.724 245.81 307.247 245.913 307.76C246.017 308.261 246.068 308.784 246.161 309.297C246.254 309.809 246.264 310.333 246.347 310.856C246.429 311.368 246.719 311.848 246.801 312.361C246.873 312.873 246.708 313.429 246.781 313.952C246.853 314.465 246.977 314.977 247.039 315.49C247.101 316.002 247.452 316.482 247.503 317.005C247.555 317.518 247.441 318.063 247.493 318.586C247.544 319.099 247.823 319.6 247.865 320.124C247.906 320.636 247.689 321.181 247.73 321.704C247.772 322.228 247.875 322.74 247.906 323.264C247.957 323.809 248.133 324.321 248.164 324.844Z" fill="#E1BFF7"/>
<path d="M247.266 369.435C247.266 369.98 247.46 370.582 247.46 371.128C247.46 371.673 247.378 372.218 247.378 372.752C247.378 373.297 247.081 373.843 247.081 374.377C247.081 374.922 247.01 375.467 247.01 376.001C247.01 376.546 247.44 377.092 247.44 377.625C247.44 378.171 247.204 378.716 247.204 379.25C247.204 379.807 247.225 380.34 247.225 380.874C247.225 381.431 247.03 381.965 247.03 382.499C247.03 383.055 247.163 383.601 247.163 384.123C247.163 384.68 247.471 385.225 247.471 385.748C247.471 386.316 247.378 386.85 247.378 387.372C247.378 387.94 247.102 388.485 247.102 388.997C247.102 389.587 246.969 390.121 246.969 390.61C246.969 391.235 247.235 391.768 247.235 392.223C247.235 393.268 247.153 393.018 247.071 393.825C247.071 393.847 247.143 393.813 247.132 393.836C247.132 394.393 247.378 394.972 247.337 395.517C247.296 396.074 247.071 396.608 246.989 397.153C246.907 397.698 246.825 398.255 246.692 398.789C246.559 399.323 246.272 399.8 246.098 400.322C245.924 400.845 245.688 401.322 245.473 401.822C245.258 402.322 245.186 402.901 244.93 403.378C244.684 403.855 244.325 404.264 244.039 404.719C243.752 405.173 243.608 405.752 243.28 406.173C242.963 406.593 242.328 406.707 241.979 407.093C241.631 407.479 241.395 408.002 241.016 408.354C240.637 408.706 240.238 409.024 239.828 409.342C239.418 409.66 239.07 410.08 238.64 410.353C238.209 410.626 237.718 410.773 237.267 411.012C236.816 411.239 236.417 411.637 235.956 411.83C235.494 412.023 234.982 412.102 234.501 412.25C234.019 412.386 233.476 412.148 232.985 412.239C232.503 412.33 232.032 412.477 231.53 412.523C231.038 412.568 230.557 412.705 230.055 412.705C229.542 412.705 229.03 412.988 228.528 412.943C228.026 412.898 227.575 412.409 227.084 412.318C226.582 412.216 226.09 412.193 225.608 412.046C225.117 411.898 224.533 412.068 224.061 411.875C223.59 411.682 223.17 411.296 222.719 411.057C222.258 410.819 221.756 410.66 221.326 410.376C220.896 410.092 220.568 409.592 220.168 409.274C219.759 408.944 219.257 408.74 218.878 408.376C218.498 408.013 218.365 407.354 218.007 406.956C217.658 406.559 217.105 406.366 216.777 405.934C216.46 405.502 216.275 404.957 215.999 404.491C215.712 404.026 215.394 403.594 215.148 403.105C214.903 402.617 214.687 402.004 214.483 401.492C214.278 401.97 213.919 402.469 213.683 402.924C213.448 403.378 213.274 403.867 212.997 404.298C212.72 404.73 212.546 405.241 212.239 405.639C211.932 406.036 211.727 406.559 211.389 406.934C211.051 407.309 210.467 407.377 210.098 407.706C209.739 408.047 209.432 408.467 209.043 408.763C208.653 409.058 208.274 409.387 207.864 409.649C207.455 409.91 206.963 410.001 206.533 410.228C206.102 410.444 205.611 410.455 205.16 410.637C204.719 410.819 204.351 411.216 203.89 411.353C203.439 411.489 203.008 411.796 202.537 411.887C202.076 411.977 201.554 411.614 201.082 411.659C200.611 411.705 200.16 411.807 199.689 411.807C199.167 411.807 198.644 412.08 198.142 412.034C197.63 411.977 197.087 412.012 196.595 411.909C196.093 411.807 195.663 411.307 195.171 411.148C194.68 410.989 194.075 411.16 193.604 410.955C193.122 410.751 192.723 410.319 192.262 410.069C191.801 409.808 191.289 409.649 190.858 409.342C190.428 409.035 190.151 408.467 189.752 408.115C189.342 407.763 189.004 407.354 188.635 406.968C188.266 406.582 187.734 406.366 187.396 405.934C187.057 405.514 186.699 405.082 186.402 404.628C186.105 404.173 186.074 403.514 185.818 403.026C185.562 402.537 185.162 401.867 184.937 401.356C184.732 401.867 184.517 402.651 184.281 403.14C184.035 403.628 183.564 403.957 183.287 404.412C183.001 404.878 182.867 405.446 182.55 405.877C182.232 406.309 181.771 406.593 181.423 406.991C181.075 407.388 180.993 408.127 180.614 408.49C180.234 408.854 179.62 408.899 179.21 409.228C178.8 409.558 178.544 410.149 178.104 410.433C177.673 410.717 177.13 410.807 176.68 411.046C176.229 411.285 175.747 411.455 175.266 411.648C174.795 411.841 174.354 412.148 173.862 412.296C173.381 412.443 172.899 412.682 172.397 412.773C171.905 412.875 171.373 412.795 170.871 412.841C170.369 412.886 169.867 412.648 169.355 412.648C168.853 412.648 168.361 412.705 167.869 412.659C167.367 412.614 166.855 412.693 166.373 412.602C165.882 412.511 165.349 412.545 164.878 412.398C164.396 412.25 163.956 411.932 163.484 411.739C163.013 411.546 162.675 411.046 162.224 410.807C161.773 410.569 161.261 410.489 160.831 410.217C160.401 409.944 159.858 409.842 159.448 409.535C159.038 409.217 158.864 408.558 158.485 408.206C158.106 407.854 157.655 407.593 157.307 407.206C156.958 406.82 156.467 406.559 156.149 406.139C155.832 405.718 155.555 405.241 155.278 404.787C154.991 404.332 155.022 403.673 154.776 403.185C154.53 402.708 153.977 402.413 153.762 401.913C153.557 401.413 153.701 400.754 153.526 400.243C153.352 399.732 153.219 399.22 153.086 398.687C152.963 398.153 152.4 397.732 152.307 397.187C152.225 396.653 152.369 396.062 152.328 395.506C152.287 394.961 152.092 394.427 152.092 393.87C152.092 393.847 152.113 393.893 152.113 393.87C152.051 393.075 152.297 393.291 152.297 392.268C152.297 391.825 152.41 391.291 152.41 390.678C152.41 390.201 152.4 389.667 152.4 389.088C152.4 388.588 152.041 388.054 152.041 387.497C152.041 386.986 152.02 386.463 152.02 385.907C152.02 385.396 152.441 384.862 152.441 384.316C152.441 383.805 152.031 383.271 152.031 382.726C152.031 382.203 152.133 381.681 152.133 381.136C152.133 380.613 152.348 380.079 152.348 379.545C152.348 379.023 152.359 378.489 152.359 377.955C152.359 377.432 152 376.898 152 376.365C152 375.842 152.256 375.308 152.256 374.763C152.256 374.24 152.102 373.604 152.102 373.07C152.604 372.991 153.199 372.957 153.701 372.934C154.203 372.9 154.705 373.138 155.207 373.15C155.709 373.172 156.19 373.32 156.692 373.377C157.194 373.445 157.676 373.502 158.167 373.604C158.659 373.718 159.243 373.388 159.735 373.547C160.216 373.706 160.565 374.308 161.036 374.502C161.507 374.695 162.009 374.774 162.47 375.013C162.921 375.251 163.454 375.342 163.884 375.626C164.314 375.91 164.826 376.103 165.236 376.421C165.646 376.751 165.933 377.285 166.322 377.648C166.711 378.012 166.968 378.546 167.336 378.932C167.715 379.318 168.217 379.534 168.586 379.932C168.955 380.329 169.18 380.863 169.549 381.261C169.918 381.658 170.256 382.079 170.625 382.465C170.994 382.851 171.506 383.067 171.895 383.442C172.285 383.805 172.52 384.396 172.92 384.737C173.33 385.077 173.842 385.293 174.282 385.6C174.723 385.907 175.296 385.929 175.758 386.179C176.219 386.441 176.649 386.736 177.13 386.941C177.612 387.145 178.011 387.645 178.503 387.804C178.995 387.963 179.517 388.122 180.03 388.224C180.542 388.315 181.085 388.338 181.597 388.372C182.109 388.406 182.652 388.417 183.164 388.372C183.636 388.338 184.117 388.258 184.588 388.167C185.049 388.076 185.51 387.895 185.972 387.77C186.422 387.645 186.904 387.565 187.355 387.406C187.805 387.247 188.236 387.031 188.686 386.861C189.127 386.679 189.588 386.566 190.028 386.384C190.469 386.202 190.868 385.907 191.309 385.736C191.75 385.555 192.077 385.032 192.528 384.862C192.989 384.691 193.542 384.771 194.014 384.612C194.485 384.453 194.936 384.214 195.417 384.089C195.899 383.953 196.37 383.782 196.851 383.669C197.333 383.555 197.855 383.669 198.337 383.578C198.818 383.487 199.3 383.396 199.792 383.328C200.283 383.26 200.744 382.976 201.236 382.93C201.728 382.885 202.22 382.794 202.711 382.771C203.203 382.749 203.705 382.919 204.197 382.919C204.689 382.919 205.18 382.84 205.672 382.851C206.164 382.874 206.656 382.965 207.147 382.999C207.639 383.044 208.151 382.896 208.643 382.965C209.135 383.033 209.575 383.453 210.067 383.544C210.549 383.635 211.01 383.862 211.491 383.976C211.973 384.078 212.454 384.169 212.925 384.294C213.397 384.419 213.919 384.316 214.39 384.464C214.862 384.612 215.353 384.669 215.825 384.816C216.296 384.964 216.788 385.032 217.259 385.157C217.73 385.293 218.212 385.361 218.693 385.475C219.175 385.589 219.605 385.941 220.086 386.009C220.568 386.089 221.06 386.213 221.541 386.236C222.023 386.259 222.525 386.327 223.016 386.293C223.518 386.259 224 386.02 224.471 385.918C224.963 385.816 225.393 385.509 225.854 385.35C226.325 385.191 226.899 385.327 227.35 385.112C227.801 384.896 228.21 384.555 228.651 384.294C229.081 384.032 229.409 383.567 229.829 383.271C230.249 382.987 230.659 382.703 231.059 382.374C231.458 382.056 231.796 381.658 232.185 381.317C232.575 380.988 233.077 380.806 233.456 380.454C233.835 380.102 234.081 379.579 234.45 379.216C234.829 378.864 235.197 378.5 235.566 378.137C235.935 377.773 236.365 377.489 236.744 377.137C237.123 376.773 237.451 376.365 237.82 376.012C238.168 375.683 238.763 375.672 239.121 375.342C239.48 375.024 239.859 374.74 240.228 374.422C240.596 374.115 240.893 373.706 241.273 373.411C241.652 373.116 241.979 372.752 242.369 372.468C242.758 372.184 243.26 372.116 243.649 371.843C244.049 371.582 244.387 371.219 244.786 370.969C245.196 370.719 245.493 370.242 245.903 370.014C246.323 369.753 246.846 369.64 247.266 369.435Z" fill="#D2ADE6"/>
<path d="M239.344 379.796L235.256 379.512C235.093 379.501 234.949 379.535 234.775 379.569C234.539 379.614 234.273 379.671 233.955 379.626C233.617 379.58 233.32 379.398 233.064 379.251C232.89 379.137 232.716 379.035 232.572 379.012C232.408 378.978 232.214 378.989 232.009 378.989C231.732 379.001 231.425 379.012 231.118 378.933C230.831 378.853 230.554 378.739 230.278 378.615C230.103 378.535 229.929 378.467 229.755 378.399C229.458 378.296 229.202 378.137 228.966 377.99C228.802 377.888 228.628 377.774 228.454 377.706C228.28 377.638 228.095 377.604 227.901 377.569C227.634 377.524 227.327 377.467 227.04 377.32C226.6 377.104 226.159 376.876 225.739 376.638C225.463 376.479 225.237 376.263 225.032 376.059C224.889 375.922 224.745 375.775 224.581 375.672C224.418 375.559 224.243 375.479 224.059 375.388C223.803 375.263 223.537 375.138 223.291 374.945C223.137 374.82 222.963 374.718 222.799 374.616C222.543 374.457 222.287 374.298 222.061 374.105C221.815 373.889 221.651 373.673 221.508 373.48C221.406 373.344 221.313 373.207 221.17 373.071L217.974 369.97L221.744 372.139C221.887 372.219 222.051 372.253 222.256 372.276C222.502 372.31 222.778 372.355 223.086 372.526C223.537 372.776 223.987 373.014 224.448 373.253C224.684 373.378 224.899 373.525 225.124 373.673C225.34 373.809 225.544 373.957 225.77 374.071C226.046 374.207 226.272 374.389 226.497 374.57C226.692 374.729 226.887 374.877 227.071 374.968C227.235 375.048 227.46 375.082 227.696 375.104C227.972 375.138 228.28 375.184 228.577 375.32L229.099 375.559C229.386 375.695 229.683 375.831 229.98 375.956C230.267 376.081 230.503 376.263 230.739 376.433C230.933 376.581 231.128 376.729 231.312 376.808C231.527 376.899 231.763 376.945 231.988 377.001C232.255 377.058 232.531 377.126 232.788 377.229C233.033 377.331 233.279 377.456 233.515 377.592C233.73 377.706 233.945 377.831 234.181 377.922L234.724 378.137C234.959 378.228 235.195 378.319 235.472 378.421L239.344 379.796ZM229.192 376.831C229.284 376.888 229.366 376.933 229.458 376.99C229.663 377.115 229.858 377.24 230.052 377.308H230.062C229.898 377.183 229.735 377.07 229.581 377.001C229.448 376.945 229.325 376.888 229.192 376.831ZM227.286 376.184C227.348 376.206 227.399 376.24 227.46 376.263C227.634 376.343 227.839 376.388 228.075 376.433C228.249 376.468 228.433 376.502 228.618 376.558L228.167 376.354C228.003 376.274 227.778 376.252 227.552 376.218C227.47 376.206 227.378 376.195 227.286 376.184Z" fill="#E1BFF7"/>
<path d="M310.998 336.812C310.332 336.732 309.636 337.005 308.939 337.005C308.785 337.005 308.376 337.005 308.222 337.016C308.304 336.539 308.652 336.028 308.714 335.54C308.775 335.062 308.908 334.597 308.949 334.108C308.99 333.631 308.703 333.131 308.724 332.643C308.744 332.166 308.847 331.689 308.847 331.2C308.847 330.655 308.775 330.121 308.755 329.587C308.734 329.042 308.775 328.508 308.724 327.974C308.673 327.44 308.673 326.895 308.601 326.361C308.529 325.827 308.468 325.293 308.376 324.759C308.273 324.225 308.027 323.737 307.904 323.226C307.781 322.703 307.822 322.124 307.679 321.612C307.535 321.101 307.351 320.59 307.187 320.09C307.013 319.579 306.993 319 306.798 318.511C306.603 318.011 306.388 317.523 306.173 317.034C305.958 316.546 305.579 316.16 305.333 315.683C305.097 315.206 304.841 314.751 304.585 314.297C304.329 313.842 303.929 313.49 303.653 313.047C303.376 312.604 303.069 312.195 302.772 311.764C302.475 311.332 302.259 310.843 301.942 310.434C301.624 310.025 301.215 309.719 300.876 309.333C300.538 308.946 300.231 308.537 299.872 308.162C299.524 307.788 299.145 307.458 298.776 307.106C298.407 306.754 298.069 306.379 297.68 306.05C297.291 305.72 296.932 305.368 296.533 305.061C296.133 304.755 295.908 304.141 295.498 303.857C295.088 303.573 294.596 303.414 294.166 303.153C293.746 302.892 293.234 302.789 292.804 302.551C292.363 302.312 291.923 302.108 291.472 301.903C291.021 301.687 290.621 301.347 290.16 301.165C289.71 300.983 289.279 300.654 288.818 300.495C288.357 300.336 287.763 300.654 287.292 300.517C286.821 300.381 286.37 300.188 285.899 300.086C285.427 299.983 284.956 299.836 284.475 299.745C283.993 299.665 283.532 299.45 283.04 299.404C282.559 299.347 282.067 299.45 281.575 299.415C281.094 299.393 280.612 299.427 280.121 299.427C279.619 299.427 279.127 299.347 278.625 299.381C278.123 299.404 277.611 299.234 277.119 299.29C276.617 299.347 276.156 299.699 275.664 299.79C275.172 299.881 274.711 300.108 274.22 300.222C273.728 300.336 273.195 300.199 272.714 300.347C272.232 300.483 271.761 300.699 271.29 300.858C270.818 301.029 270.347 301.233 269.886 301.426C269.415 301.619 269.036 302.028 268.585 302.255C268.124 302.483 267.479 302.244 267.028 302.483C266.587 302.732 266.229 303.187 265.799 303.46C265.368 303.732 265.061 304.243 264.641 304.539C264.221 304.834 263.791 305.107 263.391 305.425C262.981 305.743 262.459 305.891 262.069 306.243C261.68 306.583 261.363 307.038 260.994 307.401C260.625 307.765 260.133 308.003 259.775 308.39C259.416 308.776 259.221 309.333 258.883 309.741C258.545 310.15 258.33 310.662 258.013 311.082C257.695 311.514 257.09 311.684 256.793 312.127C256.496 312.57 256.373 313.149 256.097 313.615C255.82 314.081 255.615 314.581 255.369 315.058C255.113 315.535 254.857 316.001 254.622 316.489C254.396 316.978 253.997 317.375 253.792 317.886C253.587 318.386 253.402 318.909 253.218 319.431C253.034 319.943 253.197 320.59 253.044 321.124C252.89 321.647 252.573 322.112 252.439 322.646C252.306 323.18 252.204 323.714 252.101 324.259C251.989 324.793 251.589 325.27 251.497 325.827C251.415 326.372 251.681 327.145 251.62 327.701C251.108 327.588 250.554 327.065 250.093 326.929C249.602 326.793 249.1 326.77 248.628 326.633C248.157 326.497 247.645 326.543 247.143 326.418C246.682 326.304 246.2 326.236 245.678 326.134C245.217 326.043 244.746 325.861 244.223 325.793C243.762 325.736 243.291 325.395 242.758 325.35C242.297 325.316 241.775 325.657 241.252 325.645C240.781 325.634 240.289 325.361 239.756 325.361C239.265 325.361 238.763 325.554 238.271 325.588C237.779 325.622 237.308 325.906 236.826 325.986C236.335 326.054 235.781 325.702 235.3 325.816C234.808 325.918 234.337 326.111 233.855 326.247C233.374 326.384 232.913 326.599 232.442 326.77C231.97 326.94 231.581 327.349 231.12 327.554C230.659 327.758 230.208 327.94 229.758 328.178C229.307 328.417 228.805 328.508 228.364 328.769C227.934 329.03 227.422 329.178 227.012 329.462C226.592 329.757 226.192 330.087 225.783 330.405C225.383 330.723 225.025 331.121 224.645 331.473C224.266 331.825 224.01 332.336 223.652 332.711C223.293 333.086 222.771 333.29 222.433 333.688C222.095 334.086 221.828 334.563 221.511 334.983C221.193 335.403 220.988 335.926 220.701 336.369C220.414 336.812 219.933 337.13 219.677 337.596C219.421 338.061 219.206 338.573 218.98 339.061C218.755 339.55 218.724 340.14 218.529 340.64C218.335 341.14 218.007 341.594 217.843 342.106C217.679 342.617 217.433 343.117 217.3 343.65C217.167 344.173 217.167 344.752 217.075 345.286C216.982 345.82 217.136 346.4 217.075 346.945C217.013 347.49 217.013 348.024 216.993 348.569C216.972 349.115 216.665 349.648 216.675 350.205C216.685 350.75 216.972 351.273 217.023 351.83C217.075 352.375 217.187 352.897 217.269 353.443C217.351 353.977 217.351 354.522 217.443 355.033C217.536 355.567 217.72 356.067 217.822 356.578C217.935 357.112 217.72 357.725 217.853 358.225C217.986 358.748 218.161 359.259 218.314 359.759C218.468 360.27 218.816 360.702 218.99 361.19C219.175 361.69 219.236 362.235 219.441 362.724C219.646 363.212 219.882 363.678 220.107 364.144C220.343 364.609 220.701 364.996 220.957 365.439C221.213 365.882 221.603 366.222 221.89 366.654C222.176 367.074 222.197 367.733 222.515 368.142C222.822 368.54 223.303 368.778 223.641 369.165C223.969 369.539 224.195 370.051 224.553 370.414C224.902 370.778 225.168 371.243 225.547 371.596C225.926 371.948 226.387 372.175 226.776 372.516C227.166 372.845 227.555 373.175 227.954 373.493C228.354 373.811 228.836 373.981 229.245 374.288C229.655 374.595 229.973 375.038 230.393 375.322C230.803 375.606 231.141 376.071 231.561 376.344C231.981 376.617 232.534 376.639 232.974 376.901C233.405 377.162 233.937 377.185 234.378 377.423C234.818 377.662 235.075 378.321 235.525 378.548C235.966 378.775 236.417 379.013 236.867 379.229C237.318 379.445 237.902 379.297 238.353 379.502C238.804 379.695 239.265 379.865 239.726 380.059C240.187 380.24 240.648 380.388 241.119 380.558C241.58 380.729 241.939 381.263 242.41 381.422C242.871 381.581 243.393 381.581 243.865 381.728C244.336 381.876 244.787 382.081 245.268 382.217C245.739 382.353 246.272 382.206 246.754 382.342C247.225 382.467 247.635 382.921 248.116 383.035C248.587 383.148 249.1 383.126 249.581 383.239C250.063 383.342 250.503 383.671 250.995 383.762C251.476 383.853 252.04 383.444 252.521 383.535C253.003 383.626 253.464 383.853 253.956 383.932C254.437 384.012 254.939 383.932 255.431 384.012C255.912 384.08 256.363 384.455 256.845 384.523C257.326 384.591 257.818 384.614 258.31 384.671C258.791 384.727 259.262 385.011 259.754 385.068C260.236 385.125 260.758 384.727 261.25 384.773C261.731 384.818 262.203 385.125 262.694 385.159C263.186 385.193 263.668 385.386 264.159 385.42C264.651 385.454 265.133 385.545 265.635 385.579C266.116 385.614 266.608 385.614 267.1 385.636C267.591 385.659 268.083 385.398 268.585 385.42C269.077 385.443 269.569 385.432 270.06 385.443C270.552 385.454 271.044 385.273 271.536 385.273C272.027 385.284 272.509 385.761 273.001 385.773C273.492 385.784 273.984 385.466 274.476 385.466C274.968 385.466 275.459 385.398 275.961 385.398C276.453 385.398 276.945 385.614 277.437 385.614C277.928 385.614 278.42 385.454 278.912 385.443C279.403 385.432 279.895 385.579 280.387 385.568C280.879 385.557 281.36 385.364 281.862 385.341C282.354 385.318 282.835 385.193 283.337 385.171C283.829 385.148 284.321 385.136 284.813 385.102C285.304 385.068 285.796 385.102 286.288 385.068C286.78 385.023 287.261 384.83 287.753 384.784C288.245 384.739 288.777 385.182 289.269 385.125C289.761 385.068 290.253 384.977 290.744 384.921C291.236 384.864 291.718 384.716 292.209 384.648C292.701 384.58 293.142 384.159 293.633 384.08C294.125 384 294.648 384.194 295.129 384.114C295.621 384.035 296.072 383.751 296.563 383.671C297.045 383.58 297.557 383.614 298.039 383.523C298.52 383.421 299.002 383.319 299.493 383.217C299.975 383.114 300.446 382.91 300.928 382.796C301.409 382.683 301.891 382.58 302.372 382.456C302.854 382.331 303.366 382.365 303.847 382.228C304.329 382.103 304.739 381.672 305.21 381.535C305.691 381.399 306.183 381.354 306.665 381.206C307.136 381.058 307.607 380.888 308.078 380.729C308.55 380.57 309.021 380.422 309.492 380.252C309.964 380.081 310.527 380.252 310.998 380.07C311.469 379.888 311.828 379.377 312.289 379.195C312.75 379.002 313.334 379.15 313.795 378.957C314.256 378.764 314.686 378.48 315.147 378.275C315.608 378.071 315.936 377.537 316.397 377.264C316.838 377.003 317.35 376.889 317.79 376.571C318.211 376.264 318.538 375.821 318.948 375.469C319.348 375.128 319.952 375.06 320.331 374.685C320.71 374.322 320.854 373.663 321.212 373.265C321.571 372.868 322.083 372.629 322.411 372.209C322.739 371.789 322.933 371.232 323.241 370.789C323.548 370.346 324.081 370.062 324.368 369.596C324.654 369.13 324.87 368.597 325.115 368.108C325.372 367.62 325.71 367.165 325.935 366.665C326.16 366.154 326.068 365.495 326.263 364.973C326.458 364.45 326.58 363.905 326.724 363.371C326.878 362.826 327.052 362.315 327.154 361.769C327.257 361.213 327.38 360.667 327.431 360.122C327.492 359.554 327.451 358.998 327.451 358.441C327.451 357.884 327.461 357.35 327.431 356.805C327.4 356.248 327.472 355.703 327.41 355.158C327.349 354.613 327.082 354.113 326.99 353.579C326.898 353.034 326.755 352.522 326.632 352C326.498 351.466 326.601 350.864 326.437 350.353C326.273 349.83 326.068 349.33 325.863 348.831C325.669 348.331 325.607 347.74 325.382 347.252C325.146 346.763 324.839 346.32 324.572 345.854C324.306 345.389 323.712 345.195 323.415 344.764C323.118 344.332 322.841 343.9 322.503 343.503C322.175 343.094 321.858 342.708 321.489 342.333C321.13 341.958 320.874 341.458 320.485 341.129C320.096 340.799 319.624 340.595 319.214 340.299C318.805 340.004 318.518 339.459 318.088 339.197C317.657 338.947 317.166 338.777 316.715 338.561C316.264 338.345 315.772 338.243 315.301 338.061C314.84 337.891 314.399 337.584 313.918 337.448C313.447 337.312 312.924 337.357 312.432 337.266C311.961 337.198 311.5 336.869 310.998 336.812Z" fill="white"/>
<path d="M270.872 355.21C270.349 355.21 269.899 355.097 269.54 354.994C269.417 354.96 269.304 354.926 269.171 354.903C268.598 354.801 268.065 354.665 267.563 354.506C267.501 354.495 267.419 354.483 267.327 354.472C266.979 354.426 266.497 354.37 265.975 354.142C264.93 353.665 264.428 352.336 264.858 351.177C265.288 350.019 266.487 349.462 267.532 349.939C267.573 349.939 267.665 349.951 267.768 349.962C268.034 349.996 268.362 350.03 268.731 350.155C269.069 350.269 269.417 350.348 269.827 350.428C270.052 350.473 270.278 350.519 270.493 350.587C270.626 350.621 270.749 350.666 270.882 350.678C271.169 350.678 271.528 350.609 271.876 350.53C272.081 350.484 272.296 350.45 272.501 350.428C272.572 350.416 272.644 350.416 272.706 350.405C272.9 350.155 273.177 349.803 273.576 349.508L273.71 349.405C273.996 349.189 274.222 349.03 274.406 348.837C275.226 347.974 276.527 348.008 277.306 348.928C278.084 349.837 278.053 351.28 277.224 352.143C276.783 352.597 276.363 352.915 275.984 353.199L275.922 353.245C275.882 353.29 275.851 353.336 275.82 353.381C275.564 353.711 275.144 354.256 274.458 354.574C273.915 354.824 273.382 354.903 272.993 354.949C272.88 354.96 272.767 354.972 272.665 354.994C272.152 355.097 271.548 355.21 270.872 355.21C270.882 355.21 270.882 355.21 270.872 355.21Z" fill="#031B0D"/>
<path d="M281.936 345.121C281.495 345.121 281.106 345.053 280.778 344.996C280.655 344.974 280.522 344.951 280.389 344.94C280.317 344.94 280.245 344.951 280.163 344.951C279.805 344.974 279.262 345.019 278.657 344.815C278.545 344.781 278.432 344.746 278.319 344.724C277.94 344.622 277.459 344.508 276.977 344.224C276.28 343.826 275.912 343.202 275.686 342.815C275.328 342.656 274.733 342.395 274.252 341.793C273.494 340.861 273.566 339.419 274.416 338.589C275.194 337.817 276.342 337.828 277.11 338.555C277.141 338.567 277.161 338.578 277.192 338.589C277.459 338.703 277.868 338.885 278.258 339.214C278.657 339.555 278.903 339.964 279.077 340.259C279.139 340.271 279.2 340.293 279.251 340.305C279.415 340.35 279.569 340.384 279.723 340.441C279.784 340.441 279.835 340.43 279.897 340.43C280.132 340.407 280.46 340.384 280.829 340.43C281.024 340.452 281.218 340.487 281.413 340.521C281.597 340.555 281.864 340.589 281.946 340.589C282.345 340.543 282.755 340.487 283.062 340.384C283.472 340.237 283.821 340.066 284.107 339.884C284.374 339.714 284.671 339.43 284.999 339.089C285.122 338.964 285.255 338.839 285.388 338.714C285.562 338.555 285.777 338.351 285.849 338.237C286.505 337.215 287.785 336.976 288.707 337.715C289.629 338.442 289.834 339.862 289.179 340.884C288.81 341.452 288.369 341.861 288.021 342.191C287.929 342.281 287.836 342.361 287.744 342.452C287.253 342.94 286.771 343.417 286.156 343.815C285.624 344.156 284.999 344.462 284.323 344.712C283.626 344.962 282.939 345.053 282.345 345.121C282.222 345.11 282.069 345.121 281.936 345.121Z" fill="#031B0D"/>
<path d="M258.357 346.852C258.213 346.852 258.07 346.841 257.916 346.818C257.168 346.727 256.646 346.318 256.308 346.045C255.888 346.068 255.242 346.08 254.566 345.693C253.911 345.318 253.531 344.728 253.306 344.387C253.275 344.342 253.255 344.307 253.224 344.262C252.743 343.83 252.374 343.399 252.077 343.024C251.329 342.081 251.411 340.65 252.261 339.82C253.111 338.991 254.402 339.082 255.15 340.025C255.416 340.366 255.611 340.581 255.826 340.752C256.103 340.99 256.308 341.252 256.461 341.49C256.759 341.49 257.117 341.502 257.506 341.638C257.978 341.797 258.326 342.058 258.572 342.263C258.633 342.251 258.695 342.24 258.746 342.229C259.012 342.172 259.268 342.115 259.525 342.092C259.883 342.058 260.242 341.967 260.621 341.831C260.856 341.751 261.102 341.683 261.348 341.627C261.461 341.604 261.594 341.57 261.686 341.536C261.727 341.479 261.768 341.422 261.809 341.354C261.983 341.115 262.198 340.809 262.485 340.513C262.834 340.161 263.069 339.9 263.243 339.627C263.909 338.616 265.19 338.389 266.102 339.127C267.014 339.866 267.218 341.286 266.552 342.297C266.102 342.99 265.6 343.512 265.21 343.898C265.149 343.967 265.087 344.058 265.026 344.148C264.77 344.512 264.381 345.069 263.756 345.466C263.192 345.818 262.629 345.966 262.209 346.068C262.086 346.102 261.953 346.125 261.83 346.17C261.164 346.409 260.529 346.557 259.883 346.625C259.77 346.636 259.648 346.67 259.535 346.693C259.258 346.761 258.838 346.852 258.357 346.852Z" fill="#031B0D"/>
<path d="M205.847 335.609C205.376 335.609 204.956 335.552 204.577 335.495C204.444 335.472 204.321 335.461 204.188 335.438C203.614 335.37 202.999 335.245 202.364 335.075C201.698 334.893 201.217 334.496 200.899 334.246C200.828 334.189 200.756 334.121 200.674 334.075C200.633 334.064 200.541 334.053 200.449 334.03C200.049 333.939 199.496 333.803 198.932 333.405C198.348 332.996 198 332.439 197.775 332.065C197.723 331.985 197.682 331.906 197.631 331.837C197.58 331.792 197.467 331.712 197.365 331.622C197.058 331.383 196.668 331.076 196.31 330.622C195.552 329.69 195.623 328.259 196.463 327.418C197.303 326.578 198.594 326.646 199.352 327.589C199.424 327.668 199.588 327.805 199.752 327.93C199.957 328.089 200.162 328.259 200.356 328.441C200.746 328.804 200.991 329.213 201.166 329.497C201.176 329.52 201.186 329.531 201.196 329.554C201.237 329.565 201.278 329.565 201.309 329.577C201.596 329.645 201.944 329.724 202.334 329.906C202.743 330.099 203.061 330.361 203.297 330.542C203.358 330.588 203.409 330.645 203.471 330.679C203.87 330.792 204.26 330.86 204.608 330.906C204.772 330.929 204.946 330.951 205.12 330.974C205.345 331.008 205.571 331.042 205.755 331.054C205.796 331.031 205.837 331.008 205.878 330.985C206.196 330.815 206.626 330.588 207.179 330.508C207.692 330.429 208.101 330.349 208.491 330.247C208.706 330.19 208.911 330.145 209.126 330.099C209.361 330.054 209.597 330.008 209.833 329.918C210.908 329.531 212.066 330.19 212.414 331.383C212.763 332.576 212.168 333.859 211.093 334.246C210.662 334.405 210.253 334.484 209.904 334.564C209.751 334.598 209.597 334.632 209.443 334.666C208.952 334.791 208.439 334.905 207.825 334.995C207.763 335.018 207.692 335.064 207.63 335.098C207.271 335.291 206.718 335.575 206.032 335.597C205.95 335.609 205.899 335.609 205.847 335.609Z" fill="#031B0D"/>
<path d="M190.476 321.029C189.861 321.029 189.288 320.995 188.796 320.916C188.069 320.813 187.526 320.404 187.208 320.166C187.177 320.143 187.147 320.12 187.106 320.086C186.686 319.95 186.337 319.768 186.05 319.621C185.968 319.575 185.876 319.53 185.794 319.484C185.743 319.473 185.692 319.473 185.641 319.462C185.262 319.405 184.688 319.337 184.104 318.95C183.612 318.632 183.274 318.223 183.038 317.928C182.977 317.86 182.926 317.78 182.854 317.712C182.475 317.383 182.188 317.031 181.963 316.735C181.881 316.633 181.799 316.531 181.717 316.428C181.369 316.042 181.061 315.633 180.764 315.213C180.744 315.202 180.713 315.179 180.692 315.168C180.334 314.952 179.76 314.565 179.381 313.816C178.828 312.725 179.176 311.339 180.16 310.726C181.051 310.169 182.157 310.431 182.772 311.294C182.793 311.305 182.813 311.317 182.834 311.339C183.12 311.544 183.561 311.839 183.919 312.373C184.145 312.702 184.37 312.986 184.626 313.282C184.77 313.441 184.903 313.611 185.036 313.77C185.169 313.941 185.292 314.1 185.374 314.168C185.661 314.418 185.876 314.679 186.05 314.895C186.071 314.918 186.091 314.952 186.112 314.974H186.122C186.429 315.02 186.839 315.077 187.3 315.281C187.454 315.349 187.608 315.429 187.761 315.508C187.976 315.622 188.161 315.713 188.294 315.758C188.827 315.917 189.226 316.224 189.493 316.417C189.503 316.428 189.523 316.44 189.534 316.451C189.769 316.474 190.036 316.485 190.312 316.497C190.363 316.474 190.415 316.451 190.466 316.417C190.763 316.269 191.162 316.076 191.664 315.997C192.074 315.929 192.464 315.838 192.843 315.713C192.996 315.656 193.201 315.542 193.447 315.406C193.611 315.315 193.765 315.224 193.929 315.133C194.39 314.895 194.717 314.725 194.994 314.52C195.404 314.225 195.701 313.986 195.967 313.725C196.807 312.884 198.108 312.964 198.856 313.907C199.614 314.838 199.543 316.281 198.692 317.11C198.19 317.599 197.688 317.985 197.248 318.303C196.725 318.689 196.223 318.95 195.732 319.2C195.537 319.303 195.424 319.371 195.312 319.427C194.963 319.632 194.533 319.871 194.011 320.052C193.437 320.245 192.863 320.382 192.248 320.484C192.259 320.495 192.187 320.529 192.115 320.563C191.757 320.757 191.193 321.029 190.476 321.029Z" fill="#031B0D"/>
<path d="M221.902 324.303C221.82 324.303 221.748 324.303 221.666 324.291C220.969 324.246 220.447 323.928 220.109 323.723C219.709 323.803 219.064 323.916 218.357 323.655C217.753 323.428 217.322 323.019 217.046 322.758C216.995 322.701 216.933 322.656 216.882 322.61C216.831 322.587 216.718 322.531 216.595 322.485C216.277 322.337 215.868 322.156 215.458 321.849C215.355 321.769 215.253 321.713 215.14 321.644C214.823 321.451 214.433 321.213 214.044 320.838C213.644 320.452 213.235 320.02 212.845 319.532C212.528 319.123 212.139 318.623 211.811 318.066C211.186 317.021 211.452 315.612 212.405 314.92C213.347 314.227 214.618 314.522 215.243 315.578C215.427 315.885 215.693 316.226 215.95 316.567C216.175 316.851 216.472 317.157 216.769 317.441C216.861 317.521 216.984 317.578 217.097 317.646C217.322 317.782 217.548 317.918 217.753 318.078C217.814 318.123 218.009 318.214 218.162 318.282C218.367 318.373 218.572 318.475 218.767 318.577C219.115 318.77 219.392 319.009 219.597 319.202C219.925 319.145 220.365 319.089 220.857 319.191C221.39 319.304 221.789 319.566 222.066 319.725C222.117 319.713 222.178 319.702 222.24 319.691C222.496 319.634 222.762 319.588 223.029 319.577C223.336 319.554 223.643 319.566 223.951 319.588C224.033 319.588 224.104 319.6 224.186 319.611C224.217 319.588 224.238 319.566 224.268 319.543C224.524 319.327 224.883 319.043 225.354 318.839C225.61 318.725 225.877 318.646 226.143 318.577C226.286 318.532 226.471 318.486 226.532 318.452C226.594 318.418 226.747 318.248 226.87 318.134C227.055 317.941 227.249 317.748 227.454 317.578C227.782 317.305 228.09 317.123 228.335 316.987C228.428 316.942 228.52 316.896 228.602 316.828C229.391 315.931 230.651 315.942 231.47 316.817C232.28 317.691 232.269 319.168 231.481 320.065C231.04 320.565 230.559 320.838 230.21 321.031C230.118 321.077 230.026 321.122 229.944 321.19C229.852 321.27 229.749 321.372 229.657 321.474C229.37 321.769 229.012 322.133 228.52 322.44C228.028 322.746 227.557 322.883 227.178 322.985C227.055 323.019 226.922 323.053 226.799 323.11C226.819 323.11 226.758 323.167 226.696 323.212C226.368 323.485 225.856 323.894 225.149 324.064C224.576 324.2 224.063 324.155 223.674 324.132C223.551 324.121 223.418 324.11 223.295 324.121C223.182 324.132 223.059 324.155 222.947 324.178C222.67 324.235 222.312 324.303 221.902 324.303Z" fill="#031B0D"/>
<path d="M247.275 326.315C246.804 326.202 246.302 326.145 245.779 326.043C245.318 325.952 244.806 326.054 244.273 325.986C243.802 325.929 243.331 325.6 242.798 325.554C242.327 325.52 241.815 325.77 241.282 325.759C240.811 325.747 240.309 325.248 239.776 325.248C239.284 325.248 238.782 325.441 238.29 325.475C237.799 325.509 237.327 325.838 236.846 325.906C236.354 325.975 235.852 325.929 235.371 326.031C234.879 326.134 234.408 326.247 233.926 326.384C233.445 326.52 232.943 326.565 232.471 326.736C232 326.906 231.519 327.054 231.058 327.247C230.597 327.451 230.074 327.52 229.623 327.747C229.173 327.985 228.763 328.326 228.333 328.599C227.902 328.86 227.431 329.076 227.011 329.371C226.591 329.667 226.202 330.019 225.802 330.348C225.403 330.666 225.198 331.268 224.819 331.62C224.44 331.973 224.081 332.336 223.722 332.711C223.364 333.086 222.893 333.336 222.554 333.733C222.216 334.131 221.735 334.404 221.417 334.824C221.1 335.244 220.977 335.835 220.69 336.289C220.403 336.732 219.911 337.039 219.655 337.516C219.399 337.982 219.368 338.607 219.133 339.095C218.907 339.584 218.477 339.97 218.282 340.481C218.088 340.981 218.17 341.617 217.996 342.14C217.832 342.651 217.453 343.105 217.319 343.639C217.186 344.162 217.309 344.764 217.217 345.309C217.125 345.843 217.104 346.388 217.043 346.933C216.981 347.479 216.766 348.001 216.746 348.558C216.725 349.103 216.787 349.648 216.797 350.205C216.807 350.75 216.633 351.318 216.684 351.875C216.735 352.42 216.971 352.943 217.053 353.488C217.135 354.022 217.34 354.522 217.432 355.044C217.524 355.578 217.36 356.169 217.473 356.68C217.586 357.214 217.77 357.714 217.893 358.225C218.026 358.748 218.139 359.281 218.293 359.781C218.446 360.293 218.713 360.758 218.887 361.258C219.071 361.758 219.543 362.11 219.747 362.587C219.952 363.076 220.116 363.564 220.352 364.03C220.587 364.496 220.803 364.961 221.059 365.416C221.315 365.859 221.397 366.45 221.684 366.881C221.971 367.302 222.247 367.756 222.554 368.165C222.862 368.562 223.22 368.937 223.558 369.324C223.886 369.698 224.347 369.948 224.706 370.323C225.054 370.687 225.382 371.062 225.761 371.414C226.14 371.766 226.54 372.107 226.939 372.448C227.329 372.788 227.831 372.97 228.23 373.299C228.64 373.629 228.804 374.333 229.214 374.64C229.623 374.947 230.156 375.072 230.576 375.367C230.996 375.662 231.416 375.958 231.857 376.242C232.287 376.514 232.748 376.742 233.188 377.003C233.629 377.264 233.947 377.787 234.397 378.037C234.848 378.275 235.34 378.423 235.801 378.65C236.252 378.877 236.856 378.729 237.317 378.945C237.778 379.161 238.126 379.684 238.598 379.877C239.059 380.07 239.581 380.127 240.052 380.32C240.524 380.502 240.995 380.683 241.476 380.854C241.948 381.024 242.409 381.263 242.89 381.422C243.362 381.581 243.884 381.592 244.365 381.74C244.847 381.887 245.359 381.91 245.841 382.047C246.322 382.183 246.671 382.41 247.162 382.546C247.162 382.012 246.998 381.581 246.998 381.013C246.998 380.468 247.377 379.922 247.377 379.354C247.377 378.809 247.224 378.264 247.224 377.696C247.224 377.15 247.285 376.605 247.285 376.037C247.285 375.492 247.203 374.935 247.203 374.379C247.203 373.833 247.316 373.277 247.316 372.72C247.316 372.175 247.101 371.618 247.101 371.062C247.101 370.516 247.111 369.96 247.111 369.403C247.111 368.858 247.101 368.301 247.101 367.745C247.101 367.199 247.101 366.643 247.101 366.097C247.101 365.552 247.49 364.995 247.49 364.45C247.49 363.905 247.06 363.348 247.06 362.792C247.06 362.246 247.142 361.69 247.142 361.145C247.142 360.599 247.07 360.043 247.07 359.486C247.07 358.929 247.316 358.384 247.316 357.827C247.316 357.271 247.47 356.726 247.47 356.169C247.47 355.612 247.132 355.056 247.132 354.51C247.132 353.954 247.347 353.408 247.347 352.852C247.347 352.295 247.162 351.739 247.162 351.193C247.162 350.637 247.152 350.08 247.152 349.535C247.152 348.978 247.5 348.422 247.5 347.876C247.5 347.32 247.152 346.763 247.152 346.218C247.152 345.661 247.214 345.104 247.214 344.559C247.214 344.003 247.275 343.446 247.275 342.901C247.275 342.344 247.142 341.787 247.142 341.242C247.142 340.686 247.49 340.129 247.49 339.584C247.49 339.027 247.336 338.47 247.336 337.925C247.336 337.368 247.326 336.812 247.326 336.267C247.326 335.699 247.47 335.153 247.47 334.608C247.47 334.04 247.009 333.483 247.009 332.949C247.009 332.382 247.275 331.825 247.275 331.291C247.275 330.723 247.203 330.166 247.203 329.632C247.203 329.053 247.367 328.508 247.367 327.974C247.377 327.383 247.275 326.827 247.275 326.315Z" fill="#DCF2FF"/>
<path d="M247.41 114.951L243.865 116.586C243.553 116.726 243.437 117.111 243.599 117.403L245.516 120.836C245.758 121.268 245.377 121.793 244.892 121.7L241.07 120.906C240.735 120.836 240.412 121.069 240.377 121.42L239.938 125.331C239.881 125.833 239.269 126.032 238.934 125.658L236.301 122.751C236.07 122.494 235.677 122.494 235.446 122.751L232.814 125.658C232.479 126.032 231.867 125.833 231.809 125.331L231.37 121.42C231.336 121.081 231.012 120.847 230.677 120.906L226.855 121.7C226.37 121.805 225.989 121.279 226.232 120.836L228.148 117.415C228.322 117.111 228.195 116.738 227.883 116.597L224.338 114.963C223.887 114.753 223.887 114.111 224.338 113.9L227.883 112.266C228.195 112.126 228.31 111.74 228.148 111.448L226.232 108.016C225.989 107.584 226.37 107.058 226.855 107.152L230.677 107.946C231.012 108.016 231.336 107.782 231.37 107.432L231.809 103.521C231.867 103.018 232.479 102.82 232.814 103.194L235.446 106.101C235.677 106.358 236.07 106.358 236.301 106.101L238.934 103.194C239.269 102.82 239.881 103.018 239.938 103.521L240.377 107.432C240.412 107.771 240.735 108.004 241.07 107.946L244.892 107.152C245.377 107.047 245.758 107.572 245.516 108.016L243.599 111.437C243.426 111.74 243.553 112.114 243.865 112.254L247.41 113.889C247.86 114.099 247.86 114.741 247.41 114.951Z" fill="#FED431"/>
<path d="M302.319 99.0138C298.001 100.505 296.43 102.349 295.16 107.42C294.952 108.275 293.913 108.275 293.705 107.42C292.435 102.349 290.864 100.505 286.546 99.0138C285.818 98.7697 285.818 97.5494 286.546 97.3053C290.864 95.8138 292.435 93.9698 293.705 88.8987C293.913 88.0445 294.952 88.0445 295.16 88.8987C296.43 93.9698 298.001 95.8138 302.319 97.3053C303.047 97.5494 303.047 98.7561 302.319 99.0138Z" fill="#C1B3F9"/>
<path d="M300.575 164.872C301.084 172.058 297.042 180.519 291.892 184.153C288.993 186.2 284.455 185.78 281.337 184.248C278.22 182.716 276.037 178.418 277.042 174.635C277.885 171.475 280.772 169.374 283.589 169.496C286.407 169.618 289.016 171.719 290.471 174.553C291.926 177.401 292.296 180.872 291.892 184.153C291.141 190.214 287.7 195.719 283 198.363C278.3 201.007 272.492 200.736 268 197.631" stroke="#9881F4" stroke-width="3.3807" stroke-miterlimit="10" stroke-linecap="round" stroke-linejoin="round"/>
</g>
<rect x="0.5" y="0.5" width="326" height="431" rx="7.5" stroke="black" stroke-opacity="0.06"/>
<defs>
<clipPath id="clip0">
<rect width="327" height="432" rx="8" fill="white"/>
</clipPath>
</defs>
</svg>
