<svg width="375" height="284" viewBox="0 0 375 284" fill="none" xmlns="http://www.w3.org/2000/svg">
<g clip-path="url(#clip0)">
<rect width="375" height="284" fill="#EEEAFD"/>
<g filter="url(#filter0_d)">
<rect x="99.9951" y="28.9785" width="153.868" height="282.665" rx="15.7309" fill="white"/>
</g>
<rect x="121.134" y="94.8521" width="107.167" height="7.86547" rx="3.93274" fill="#E6E6E6"/>
<rect x="121.134" y="117.543" width="107.167" height="7.86547" rx="3.93274" fill="#E6E6E6"/>
<rect x="121.134" y="140.234" width="67.3481" height="7.86547" rx="3.93274" fill="#E6E6E6"/>
<path d="M181.216 79.0161H185.981L181.566 75.3489C182.43 74.0175 182.921 72.4291 182.921 70.724C182.921 65.9823 179.09 62.1516 174.349 62.1516C169.607 62.1516 165.776 65.9823 165.776 70.724C165.776 75.4657 169.607 79.2964 174.349 79.2964C176.287 79.2964 178.062 78.6657 179.487 77.5913L181.216 79.0161ZM169.186 70.724C169.186 67.8276 171.452 65.4217 174.349 65.4217C177.245 65.4217 179.511 67.8276 179.511 70.724C179.511 71.5882 179.3 72.4291 178.927 73.1532L176.334 71.0043L174.395 73.3401L176.848 75.3723C176.1 75.7927 175.259 76.0263 174.349 76.0263C171.452 76.0263 169.186 73.6204 169.186 70.724ZM190.464 76.8672C190.464 75.5825 189.436 74.5314 188.128 74.5314C186.843 74.5314 185.792 75.5825 185.792 76.8672C185.792 78.1519 186.843 79.203 188.128 79.203C189.436 79.203 190.464 78.1519 190.464 76.8672Z" fill="#212121"/>
<rect x="38.2939" y="192.061" width="97.6024" height="24.7095" rx="4.9419" fill="#FEC200"/>
<path d="M44.6759 209.238H46.7242L47.6665 207.026H51.7904L52.7326 209.238H54.8082L50.616 199.543H48.8545L44.6759 209.238ZM48.3902 205.292L49.7284 202.138L51.0666 205.292H48.3902ZM55.7117 209.238H57.5825V205.906C57.5825 204.595 58.2379 203.967 59.0982 203.967C59.8766 203.967 60.2999 204.568 60.2999 205.551V209.238H62.1707V205.237C62.1707 203.462 61.1875 202.26 59.5352 202.26C58.6476 202.26 57.9375 202.643 57.5825 203.189V202.411H55.7117V209.238ZM70.6183 205.824C70.6183 203.831 69.007 202.26 67.0269 202.26C65.0469 202.26 63.4356 203.831 63.4356 205.824C63.4356 207.818 65.0469 209.388 67.0269 209.388C69.007 209.388 70.6183 207.818 70.6183 205.824ZM65.32 205.824C65.32 204.773 66.0438 204.008 67.0269 204.008C68.0101 204.008 68.7202 204.773 68.7202 205.824C68.7202 206.876 68.0101 207.641 67.0269 207.641C66.0438 207.641 65.32 206.876 65.32 205.824ZM71.9674 209.238H73.8382V205.906C73.8382 204.595 74.4936 203.967 75.3539 203.967C76.1323 203.967 76.5556 204.568 76.5556 205.551V209.238H78.4264V205.237C78.4264 203.462 77.4432 202.26 75.7909 202.26C74.9033 202.26 74.1932 202.643 73.8382 203.189V202.411H71.9674V209.238ZM82.5364 212.092L86.8242 202.411H84.7622L82.9461 206.835L81.1163 202.411H79.068L81.9356 208.856L80.5018 212.092H82.5364ZM87.7297 209.238H89.6005V205.906C89.6005 204.595 90.1604 203.967 90.966 203.967C91.7034 203.967 92.0311 204.582 92.0311 205.592V209.238H93.9019V205.906C93.9019 204.595 94.4618 203.967 95.2675 203.967C96.0048 203.967 96.3326 204.582 96.3326 205.592V209.238H98.2034V205.278C98.2034 203.435 97.2748 202.26 95.6498 202.26C94.8715 202.26 93.9565 202.67 93.5332 203.517C93.1236 202.725 92.4135 202.26 91.4167 202.26C90.5837 202.26 89.9692 202.656 89.6005 203.189V202.411H87.7297V209.238ZM106.65 205.824C106.65 203.831 105.039 202.26 103.059 202.26C101.079 202.26 99.4675 203.831 99.4675 205.824C99.4675 207.818 101.079 209.388 103.059 209.388C105.039 209.388 106.65 207.818 106.65 205.824ZM101.352 205.824C101.352 204.773 102.076 204.008 103.059 204.008C104.042 204.008 104.752 204.773 104.752 205.824C104.752 206.876 104.042 207.641 103.059 207.641C102.076 207.641 101.352 206.876 101.352 205.824ZM107.917 206.371C107.917 208.187 108.832 209.388 110.485 209.388C111.359 209.388 112 209.006 112.355 208.46V209.238H114.226V202.411H112.355V205.743C112.355 207.067 111.782 207.682 110.949 207.682C110.143 207.682 109.788 207.081 109.788 206.057V202.411H107.917V206.371ZM120.916 207.163C120.916 205.975 120.165 205.374 118.936 205.046L118.294 204.855C117.72 204.705 117.625 204.473 117.625 204.268C117.625 203.954 117.98 203.803 118.308 203.803C118.758 203.803 119.154 204.008 119.468 204.404L120.697 203.407C120.178 202.656 119.373 202.26 118.335 202.26C116.887 202.26 115.795 203.066 115.768 204.322C115.74 205.374 116.396 206.179 117.652 206.507L118.157 206.63C118.908 206.835 119.072 206.999 119.072 207.286C119.072 207.627 118.704 207.777 118.321 207.777C117.666 207.777 117.092 207.49 116.792 206.985L115.508 208.078C116.095 208.965 117.12 209.388 118.321 209.388C119.782 209.388 120.916 208.487 120.916 207.163ZM126.576 209.238H128.447V199.543H125.893L124.528 201.386H126.576V209.238Z" fill="#212121"/>
<rect x="165.548" y="254.453" width="100.073" height="24.7095" rx="4.9419" fill="#FD8F55"/>
<path d="M171.765 271.63H173.813L174.756 269.418H178.88L179.822 271.63H181.897L177.705 261.935H175.944L171.765 271.63ZM175.479 267.683L176.818 264.529L178.156 267.683H175.479ZM182.801 271.63H184.672V268.298C184.672 266.987 185.327 266.359 186.187 266.359C186.966 266.359 187.389 266.96 187.389 267.943V271.63H189.26V267.629C189.26 265.854 188.277 264.652 186.624 264.652C185.737 264.652 185.027 265.034 184.672 265.581V264.802H182.801V271.63ZM197.707 268.216C197.707 266.222 196.096 264.652 194.116 264.652C192.136 264.652 190.525 266.222 190.525 268.216C190.525 270.21 192.136 271.78 194.116 271.78C196.096 271.78 197.707 270.21 197.707 268.216ZM192.409 268.216C192.409 267.165 193.133 266.4 194.116 266.4C195.099 266.4 195.809 267.165 195.809 268.216C195.809 269.268 195.099 270.032 194.116 270.032C193.133 270.032 192.409 269.268 192.409 268.216ZM199.057 271.63H200.927V268.298C200.927 266.987 201.583 266.359 202.443 266.359C203.221 266.359 203.645 266.96 203.645 267.943V271.63H205.516V267.629C205.516 265.854 204.532 264.652 202.88 264.652C201.992 264.652 201.282 265.034 200.927 265.581V264.802H199.057V271.63ZM209.626 274.484L213.913 264.802H211.851L210.035 269.227L208.205 264.802H206.157L209.025 271.248L207.591 274.484H209.626ZM214.819 271.63H216.69V268.298C216.69 266.987 217.25 266.359 218.055 266.359C218.793 266.359 219.12 266.973 219.12 267.984V271.63H220.991V268.298C220.991 266.987 221.551 266.359 222.357 266.359C223.094 266.359 223.422 266.973 223.422 267.984V271.63H225.293V267.67C225.293 265.826 224.364 264.652 222.739 264.652C221.961 264.652 221.046 265.062 220.622 265.908C220.213 265.116 219.503 264.652 218.506 264.652C217.673 264.652 217.058 265.048 216.69 265.581V264.802H214.819V271.63ZM233.739 268.216C233.739 266.222 232.128 264.652 230.148 264.652C228.168 264.652 226.557 266.222 226.557 268.216C226.557 270.21 228.168 271.78 230.148 271.78C232.128 271.78 233.739 270.21 233.739 268.216ZM228.441 268.216C228.441 267.165 229.165 266.4 230.148 266.4C231.131 266.4 231.841 267.165 231.841 268.216C231.841 269.268 231.131 270.032 230.148 270.032C229.165 270.032 228.441 269.268 228.441 268.216ZM235.007 268.762C235.007 270.578 235.921 271.78 237.574 271.78C238.448 271.78 239.09 271.398 239.445 270.852V271.63H241.315V264.802H239.445V268.134C239.445 269.459 238.871 270.073 238.038 270.073C237.232 270.073 236.877 269.472 236.877 268.448V264.802H235.007V268.762ZM248.005 269.554C248.005 268.366 247.254 267.765 246.025 267.438L245.383 267.247C244.81 267.096 244.714 266.864 244.714 266.659C244.714 266.345 245.069 266.195 245.397 266.195C245.847 266.195 246.243 266.4 246.558 266.796L247.786 265.799C247.268 265.048 246.462 264.652 245.424 264.652C243.977 264.652 242.884 265.458 242.857 266.714C242.83 267.765 243.485 268.571 244.741 268.899L245.247 269.022C245.998 269.227 246.162 269.39 246.162 269.677C246.162 270.019 245.793 270.169 245.41 270.169C244.755 270.169 244.181 269.882 243.881 269.377L242.597 270.469C243.185 271.357 244.209 271.78 245.41 271.78C246.872 271.78 248.005 270.879 248.005 269.554ZM258.759 269.786H254.744C255.004 269.158 256.028 268.626 256.629 268.175C257.858 267.274 258.677 266.427 258.677 264.761C258.677 262.781 257.202 261.771 255.564 261.771C253.638 261.771 252.177 263.082 252.177 264.98H254.061C254.048 264.201 254.662 263.614 255.523 263.614C256.356 263.614 256.806 264.16 256.806 264.87C256.806 265.663 256.123 266.263 255.277 266.864C253.857 267.888 252.15 268.817 252.15 270.988V271.63H258.759V269.786Z" fill="#212121"/>
<rect x="238.44" y="192.061" width="100.691" height="24.7095" rx="4.9419" fill="#57C896"/>
<path d="M244.867 209.238H246.915L247.857 207.026H251.981L252.923 209.238H254.999L250.807 199.543H249.045L244.867 209.238ZM248.581 205.292L249.919 202.138L251.257 205.292H248.581ZM255.902 209.238H257.773V205.906C257.773 204.595 258.429 203.967 259.289 203.967C260.067 203.967 260.49 204.568 260.49 205.551V209.238H262.361V205.237C262.361 203.462 261.378 202.26 259.726 202.26C258.838 202.26 258.128 202.643 257.773 203.189V202.411H255.902V209.238ZM270.809 205.824C270.809 203.831 269.198 202.26 267.218 202.26C265.238 202.26 263.626 203.831 263.626 205.824C263.626 207.818 265.238 209.388 267.218 209.388C269.198 209.388 270.809 207.818 270.809 205.824ZM265.511 205.824C265.511 204.773 266.234 204.008 267.218 204.008C268.201 204.008 268.911 204.773 268.911 205.824C268.911 206.876 268.201 207.641 267.218 207.641C266.234 207.641 265.511 206.876 265.511 205.824ZM272.158 209.238H274.029V205.906C274.029 204.595 274.684 203.967 275.545 203.967C276.323 203.967 276.746 204.568 276.746 205.551V209.238H278.617V205.237C278.617 203.462 277.634 202.26 275.982 202.26C275.094 202.26 274.384 202.643 274.029 203.189V202.411H272.158V209.238ZM282.727 212.092L287.015 202.411H284.953L283.137 206.835L281.307 202.411H279.259L282.126 208.856L280.692 212.092H282.727ZM287.92 209.238H289.791V205.906C289.791 204.595 290.351 203.967 291.157 203.967C291.894 203.967 292.222 204.582 292.222 205.592V209.238H294.093V205.906C294.093 204.595 294.652 203.967 295.458 203.967C296.195 203.967 296.523 204.582 296.523 205.592V209.238H298.394V205.278C298.394 203.435 297.465 202.26 295.84 202.26C295.062 202.26 294.147 202.67 293.724 203.517C293.314 202.725 292.604 202.26 291.607 202.26C290.774 202.26 290.16 202.656 289.791 203.189V202.411H287.92V209.238ZM306.841 205.824C306.841 203.831 305.23 202.26 303.249 202.26C301.269 202.26 299.658 203.831 299.658 205.824C299.658 207.818 301.269 209.388 303.249 209.388C305.23 209.388 306.841 207.818 306.841 205.824ZM301.543 205.824C301.543 204.773 302.266 204.008 303.249 204.008C304.233 204.008 304.943 204.773 304.943 205.824C304.943 206.876 304.233 207.641 303.249 207.641C302.266 207.641 301.543 206.876 301.543 205.824ZM308.108 206.371C308.108 208.187 309.023 209.388 310.675 209.388C311.549 209.388 312.191 209.006 312.546 208.46V209.238H314.417V202.411H312.546V205.743C312.546 207.067 311.972 207.682 311.14 207.682C310.334 207.682 309.979 207.081 309.979 206.057V202.411H308.108V206.371ZM321.106 207.163C321.106 205.975 320.355 205.374 319.126 205.046L318.485 204.855C317.911 204.705 317.815 204.473 317.815 204.268C317.815 203.954 318.171 203.803 318.498 203.803C318.949 203.803 319.345 204.008 319.659 204.404L320.888 203.407C320.369 202.656 319.563 202.26 318.526 202.26C317.078 202.26 315.986 203.066 315.958 204.322C315.931 205.374 316.586 206.179 317.843 206.507L318.348 206.63C319.099 206.835 319.263 206.999 319.263 207.286C319.263 207.627 318.894 207.777 318.512 207.777C317.856 207.777 317.283 207.49 316.982 206.985L315.699 208.078C316.286 208.965 317.31 209.388 318.512 209.388C319.973 209.388 321.106 208.487 321.106 207.163ZM332.133 206.48C332.133 205.387 331.505 204.623 330.782 204.281C331.341 203.899 331.86 203.134 331.86 202.192C331.86 200.649 330.713 199.379 328.72 199.379C327.013 199.379 325.347 200.567 325.347 202.588H327.231C327.217 201.796 327.846 201.223 328.72 201.223C329.43 201.223 329.99 201.673 329.976 202.342C329.962 203.025 329.484 203.503 328.583 203.503H327.846V205.032H328.665C329.621 205.032 330.249 205.524 330.249 206.33C330.235 207.067 329.621 207.545 328.774 207.545C327.818 207.545 327.122 207.04 327.026 206.098H325.169C325.237 208.228 326.931 209.388 328.774 209.388C330.782 209.388 332.133 208.187 332.133 206.48Z" fill="#212121"/>
<line x1="154.429" y1="188.972" x2="154.429" y2="236.538" stroke="#6442EF" stroke-width="2.47095" stroke-linecap="round"/>
<line x1="64.2397" y1="236.538" x2="289.363" y2="236.538" stroke="black" stroke-opacity="0.12" stroke-width="4.9419" stroke-linecap="round"/>
<g filter="url(#filter1_dd)">
<rect x="143.256" y="225.124" width="21.63" height="21.63" rx="10.815" fill="white"/>
<circle cx="154.071" cy="235.939" r="7.86547" fill="#6442EF"/>
</g>
<g filter="url(#filter2_dd)">
<rect x="75.9079" y="225.124" width="21.63" height="21.63" rx="10.815" fill="white"/>
<circle cx="86.723" cy="235.939" r="7.86547" fill="#FEC200"/>
</g>
<g filter="url(#filter3_dd)">
<rect x="204.918" y="225.124" width="21.63" height="21.63" rx="10.815" fill="white"/>
<circle cx="215.733" cy="235.939" r="7.86547" fill="#FD8F55"/>
</g>
<g filter="url(#filter4_dd)">
<rect x="278.935" y="225.124" width="21.63" height="21.63" rx="10.815" fill="white"/>
<circle cx="289.75" cy="235.939" r="7.86547" fill="#57C896"/>
</g>
<rect x="135.897" y="160.557" width="36.4465" height="24.7095" rx="4.9419" fill="#6442EF"/>
<path d="M145.959 177.734H147.939V173.665L151.531 168.039H149.223L146.942 171.712L144.676 168.039H142.382L145.959 173.651V177.734ZM157.519 174.32C157.519 172.326 155.908 170.756 153.928 170.756C151.948 170.756 150.337 172.326 150.337 174.32C150.337 176.314 151.948 177.884 153.928 177.884C155.908 177.884 157.519 176.314 157.519 174.32ZM152.221 174.32C152.221 173.269 152.945 172.504 153.928 172.504C154.911 172.504 155.621 173.269 155.621 174.32C155.621 175.372 154.911 176.136 153.928 176.136C152.945 176.136 152.221 175.372 152.221 174.32ZM158.787 174.866C158.787 176.682 159.702 177.884 161.354 177.884C162.228 177.884 162.87 177.502 163.225 176.956V177.734H165.095V170.906H163.225V174.238C163.225 175.563 162.651 176.177 161.818 176.177C161.012 176.177 160.657 175.576 160.657 174.552V170.906H158.787V174.866Z" fill="white"/>
<g clip-path="url(#clip1)">
<path d="M291.999 34.3198C291.999 30.6582 294.554 28.2476 297.522 28.2476C299.213 28.2476 300.512 29.0602 301.128 29.8912L301.403 28.5215H303.822V40.1089H301.47L301.128 38.6936C300.58 39.5017 299.303 40.3829 297.454 40.3829C294.396 40.3966 291.999 37.8444 291.999 34.3198ZM301.313 34.3198C301.313 32.1192 299.919 30.6354 298.025 30.6354C296.105 30.6354 294.716 32.1648 294.716 34.3198C294.716 36.4747 296.11 38.0042 298.025 38.0042C299.919 38.0088 301.313 36.5249 301.313 34.3198Z" fill="#4B27DC"/>
<path d="M305.932 22.2344H308.603V30.0598C309.197 29.0371 310.474 28.2518 312.12 28.2518C314.746 28.2518 316.32 29.9685 316.32 33V40.1177H313.649V33.557C313.649 31.7034 312.759 30.6807 311.274 30.6807C309.835 30.6807 308.603 31.9545 308.603 34.6664V40.1132H305.932V22.2344Z" fill="#4B27DC"/>
<path d="M323.344 40.3964C319.827 40.3964 317.614 37.8488 317.614 34.347C317.614 30.7767 319.921 28.252 323.321 28.252C327.022 28.252 328.938 30.9182 328.938 34C328.938 34.3242 328.916 34.7396 328.848 35.0455H320.241C320.515 37.132 321.815 38.0132 323.506 38.0132C324.945 38.0132 325.813 37.2964 326.339 36.2737L328.551 37.3192C327.706 39.1408 325.948 40.3964 323.344 40.3964ZM320.286 33.1189H326.244C326.038 31.425 324.85 30.4982 323.321 30.4982C321.905 30.4982 320.628 31.2607 320.286 33.1189Z" fill="#4B27DC"/>
<path d="M330.017 34.3198C330.017 30.6582 332.572 28.2476 335.54 28.2476C337.231 28.2476 338.53 29.0602 339.146 29.8912L339.421 28.5215H341.84V40.1089H339.488L339.146 38.6936C338.598 39.5017 337.321 40.3829 335.472 40.3829C332.414 40.3966 330.017 37.8444 330.017 34.3198ZM339.331 34.3198C339.331 32.1192 337.937 30.6354 336.043 30.6354C334.123 30.6354 332.734 32.1648 332.734 34.3198C332.734 36.4747 334.128 38.0042 336.043 38.0042C337.937 38.0088 339.331 36.5249 339.331 34.3198Z" fill="#4B27DC"/>
<path d="M348.672 40.3962C345.591 40.3962 343.172 37.9171 343.172 34.324C343.172 30.5939 345.748 28.2518 348.766 28.2518C350.502 28.2518 351.757 29.1101 352.328 29.9685V22.2344H354.999V40.1177H352.714L352.418 38.5426C351.801 39.5105 350.385 40.3962 348.672 40.3962ZM345.865 34.3194C345.865 36.4516 347.282 37.981 349.198 37.981C351.091 37.981 352.485 36.4972 352.485 34.3194C352.485 32.1417 351.091 30.6579 349.198 30.6579C347.282 30.6579 345.865 32.1919 345.865 34.3194Z" fill="#4B27DC"/>
</g>
</g>
<defs>
<filter id="filter0_d" x="44.3988" y="-25.3823" width="265.061" height="393.858" filterUnits="userSpaceOnUse" color-interpolation-filters="sRGB">
<feFlood flood-opacity="0" result="BackgroundImageFix"/>
<feColorMatrix in="SourceAlpha" type="matrix" values="0 0 0 0 0 0 0 0 0 0 0 0 0 0 0 0 0 0 127 0"/>
<feOffset dy="1.23547"/>
<feGaussianBlur stdDeviation="27.7982"/>
<feColorMatrix type="matrix" values="0 0 0 0 0 0 0 0 0 0 0 0 0 0 0 0 0 0 0.12 0"/>
<feBlend mode="normal" in2="BackgroundImageFix" result="effect1_dropShadow"/>
<feBlend mode="normal" in="SourceGraphic" in2="effect1_dropShadow" result="shape"/>
</filter>
<filter id="filter1_dd" x="123.593" y="215.292" width="60.9574" height="60.9574" filterUnits="userSpaceOnUse" color-interpolation-filters="sRGB">
<feFlood flood-opacity="0" result="BackgroundImageFix"/>
<feColorMatrix in="SourceAlpha" type="matrix" values="0 0 0 0 0 0 0 0 0 0 0 0 0 0 0 0 0 0 127 0"/>
<feOffset/>
<feGaussianBlur stdDeviation="2.45796"/>
<feColorMatrix type="matrix" values="0 0 0 0 0 0 0 0 0 0 0 0 0 0 0 0 0 0 0.08 0"/>
<feBlend mode="normal" in2="BackgroundImageFix" result="effect1_dropShadow"/>
<feColorMatrix in="SourceAlpha" type="matrix" values="0 0 0 0 0 0 0 0 0 0 0 0 0 0 0 0 0 0 127 0"/>
<feOffset dy="9.83184"/>
<feGaussianBlur stdDeviation="9.83184"/>
<feColorMatrix type="matrix" values="0 0 0 0 0 0 0 0 0 0 0 0 0 0 0 0 0 0 0.07 0"/>
<feBlend mode="normal" in2="effect1_dropShadow" result="effect2_dropShadow"/>
<feBlend mode="normal" in="SourceGraphic" in2="effect2_dropShadow" result="shape"/>
</filter>
<filter id="filter2_dd" x="56.2442" y="215.292" width="60.9574" height="60.9574" filterUnits="userSpaceOnUse" color-interpolation-filters="sRGB">
<feFlood flood-opacity="0" result="BackgroundImageFix"/>
<feColorMatrix in="SourceAlpha" type="matrix" values="0 0 0 0 0 0 0 0 0 0 0 0 0 0 0 0 0 0 127 0"/>
<feOffset/>
<feGaussianBlur stdDeviation="2.45796"/>
<feColorMatrix type="matrix" values="0 0 0 0 0 0 0 0 0 0 0 0 0 0 0 0 0 0 0.08 0"/>
<feBlend mode="normal" in2="BackgroundImageFix" result="effect1_dropShadow"/>
<feColorMatrix in="SourceAlpha" type="matrix" values="0 0 0 0 0 0 0 0 0 0 0 0 0 0 0 0 0 0 127 0"/>
<feOffset dy="9.83184"/>
<feGaussianBlur stdDeviation="9.83184"/>
<feColorMatrix type="matrix" values="0 0 0 0 0 0 0 0 0 0 0 0 0 0 0 0 0 0 0.07 0"/>
<feBlend mode="normal" in2="effect1_dropShadow" result="effect2_dropShadow"/>
<feBlend mode="normal" in="SourceGraphic" in2="effect2_dropShadow" result="shape"/>
</filter>
<filter id="filter3_dd" x="185.255" y="215.292" width="60.9574" height="60.9574" filterUnits="userSpaceOnUse" color-interpolation-filters="sRGB">
<feFlood flood-opacity="0" result="BackgroundImageFix"/>
<feColorMatrix in="SourceAlpha" type="matrix" values="0 0 0 0 0 0 0 0 0 0 0 0 0 0 0 0 0 0 127 0"/>
<feOffset/>
<feGaussianBlur stdDeviation="2.45796"/>
<feColorMatrix type="matrix" values="0 0 0 0 0 0 0 0 0 0 0 0 0 0 0 0 0 0 0.08 0"/>
<feBlend mode="normal" in2="BackgroundImageFix" result="effect1_dropShadow"/>
<feColorMatrix in="SourceAlpha" type="matrix" values="0 0 0 0 0 0 0 0 0 0 0 0 0 0 0 0 0 0 127 0"/>
<feOffset dy="9.83184"/>
<feGaussianBlur stdDeviation="9.83184"/>
<feColorMatrix type="matrix" values="0 0 0 0 0 0 0 0 0 0 0 0 0 0 0 0 0 0 0.07 0"/>
<feBlend mode="normal" in2="effect1_dropShadow" result="effect2_dropShadow"/>
<feBlend mode="normal" in="SourceGraphic" in2="effect2_dropShadow" result="shape"/>
</filter>
<filter id="filter4_dd" x="259.272" y="215.292" width="60.9574" height="60.9574" filterUnits="userSpaceOnUse" color-interpolation-filters="sRGB">
<feFlood flood-opacity="0" result="BackgroundImageFix"/>
<feColorMatrix in="SourceAlpha" type="matrix" values="0 0 0 0 0 0 0 0 0 0 0 0 0 0 0 0 0 0 127 0"/>
<feOffset/>
<feGaussianBlur stdDeviation="2.45796"/>
<feColorMatrix type="matrix" values="0 0 0 0 0 0 0 0 0 0 0 0 0 0 0 0 0 0 0.08 0"/>
<feBlend mode="normal" in2="BackgroundImageFix" result="effect1_dropShadow"/>
<feColorMatrix in="SourceAlpha" type="matrix" values="0 0 0 0 0 0 0 0 0 0 0 0 0 0 0 0 0 0 127 0"/>
<feOffset dy="9.83184"/>
<feGaussianBlur stdDeviation="9.83184"/>
<feColorMatrix type="matrix" values="0 0 0 0 0 0 0 0 0 0 0 0 0 0 0 0 0 0 0.07 0"/>
<feBlend mode="normal" in2="effect1_dropShadow" result="effect2_dropShadow"/>
<feBlend mode="normal" in="SourceGraphic" in2="effect2_dropShadow" result="shape"/>
</filter>
<clipPath id="clip0">
<rect width="375" height="284" fill="white"/>
</clipPath>
<clipPath id="clip1">
<rect width="63" height="20" fill="white" transform="translate(292 21)"/>
</clipPath>
</defs>
</svg>
