<svg width="175" height="22" viewBox="0 0 175 22" fill="none" xmlns="http://www.w3.org/2000/svg">
<path d="M4.92985 6.06H1.76585V16H3.40385V12.556H4.92985C6.97385 12.556 8.37385 11.142 8.37385 9.308C8.37385 7.474 6.97385 6.06 4.92985 6.06ZM4.91585 11.016H3.40385V7.6H4.91585C6.07785 7.6 6.76385 8.342 6.76385 9.308C6.76385 10.274 6.07785 11.016 4.91585 11.016ZM16.4002 12.5C16.4002 10.47 14.8042 8.86 12.7322 8.86C10.6602 8.86 9.06423 10.47 9.06423 12.5C9.06423 14.53 10.6602 16.14 12.7322 16.14C14.8042 16.14 16.4002 14.53 16.4002 12.5ZM10.6182 12.5C10.6182 11.254 11.4862 10.288 12.7322 10.288C13.9642 10.288 14.8322 11.254 14.8322 12.5C14.8322 13.746 13.9642 14.712 12.7322 14.712C11.4862 14.712 10.6182 13.746 10.6182 12.5ZM23.8584 16H25.3144L27.6664 9H26.0284L24.5024 13.816L22.9064 9H21.7304L20.1204 13.816L18.6084 9H16.9844L19.3364 16H20.7924L22.3184 11.464L23.8584 16ZM28.2735 12.5C28.2735 14.628 29.7995 16.14 31.9275 16.14C33.3975 16.14 34.4895 15.51 35.1195 14.516L33.9435 13.676C33.5795 14.292 32.9215 14.74 31.9415 14.74C30.7795 14.74 29.8555 13.984 29.7855 12.836H35.2875C35.3015 12.612 35.3015 12.486 35.3015 12.332C35.3015 10.078 33.7615 8.86 31.9275 8.86C29.7995 8.86 28.2735 10.442 28.2735 12.5ZM31.8715 10.162C32.7675 10.162 33.5795 10.708 33.7475 11.716H29.8555C30.0655 10.68 30.9755 10.162 31.8715 10.162ZM36.8846 16H38.4246V12.584C38.4246 11.184 39.2226 10.442 40.1046 10.442C40.3846 10.442 40.6086 10.484 40.8746 10.568V8.986C40.6646 8.944 40.4686 8.93 40.2726 8.93C39.4746 8.93 38.6906 9.448 38.4246 10.246V9H36.8846V16ZM41.4669 12.5C41.4669 14.628 42.9929 16.14 45.1209 16.14C46.5909 16.14 47.6829 15.51 48.3129 14.516L47.1369 13.676C46.7729 14.292 46.1149 14.74 45.1349 14.74C43.9729 14.74 43.0489 13.984 42.9789 12.836H48.4809C48.4949 12.612 48.4949 12.486 48.4949 12.332C48.4949 10.078 46.9549 8.86 45.1209 8.86C42.9929 8.86 41.4669 10.442 41.4669 12.5ZM45.0649 10.162C45.9609 10.162 46.7729 10.708 46.9409 11.716H43.0489C43.2589 10.68 44.1689 10.162 45.0649 10.162ZM49.574 12.5C49.574 14.502 51.03 16.14 52.948 16.14C53.956 16.14 54.796 15.622 55.188 15.062V16H56.728V5.5H55.188V9.938C54.796 9.378 53.956 8.86 52.948 8.86C51.03 8.86 49.574 10.498 49.574 12.5ZM55.314 12.5C55.314 13.76 54.474 14.74 53.228 14.74C51.982 14.74 51.142 13.76 51.142 12.5C51.142 11.24 51.982 10.26 53.228 10.26C54.474 10.26 55.314 11.24 55.314 12.5ZM63.6492 15.062C64.0412 15.622 64.8952 16.14 65.9032 16.14C67.8212 16.14 69.2772 14.502 69.2772 12.5C69.2772 10.498 67.8212 8.86 65.9032 8.86C64.8952 8.86 64.0412 9.378 63.6492 9.938V5.5H62.1092V16H63.6492V15.062ZM67.7092 12.5C67.7092 13.76 66.8552 14.74 65.6232 14.74C64.3772 14.74 63.5232 13.76 63.5232 12.5C63.5232 11.24 64.3772 10.26 65.6232 10.26C66.8552 10.26 67.7092 11.24 67.7092 12.5ZM72.9215 18.926L77.4155 9H75.7075L73.5655 13.956L71.4095 9H69.7155L72.7255 15.622L71.2275 18.926H72.9215Z" fill="#A2A2A2"/>
<path d="M89.5006 17C89.4128 17.0005 89.3259 16.9837 89.2446 16.9505C89.1634 16.9173 89.0895 16.8685 89.0272 16.8067L83.8472 11.62C83.1975 10.9635 82.833 10.0771 82.833 9.15334C82.833 8.22963 83.1975 7.34323 83.8472 6.68668C84.5021 6.03369 85.3891 5.66699 86.3139 5.66699C87.2387 5.66699 88.1257 6.03369 88.7806 6.68668L89.5006 7.40668L90.2206 6.68668C90.8754 6.03369 91.7625 5.66699 92.6872 5.66699C93.612 5.66699 94.4991 6.03369 95.1539 6.68668C95.8037 7.34323 96.1681 8.22963 96.1681 9.15334C96.1681 10.0771 95.8037 10.9635 95.1539 11.62L89.9739 16.8067C89.9116 16.8685 89.8377 16.9173 89.7565 16.9505C89.6753 16.9837 89.5883 17.0005 89.5006 17Z" fill="#A2A2A2"/>
<path d="M102.459 12.5C102.459 14.502 103.915 16.14 105.833 16.14C106.841 16.14 107.681 15.622 108.073 15.062V16H109.613V9H108.073V9.938C107.681 9.378 106.841 8.86 105.833 8.86C103.915 8.86 102.459 10.498 102.459 12.5ZM108.199 12.5C108.199 13.76 107.359 14.74 106.113 14.74C104.867 14.74 104.027 13.76 104.027 12.5C104.027 11.24 104.867 10.26 106.113 10.26C107.359 10.26 108.199 11.24 108.199 12.5ZM111.699 16H113.239V12.556C113.239 11.058 114.023 10.26 115.045 10.26C115.941 10.26 116.501 10.932 116.501 12.038V16H118.041V11.786C118.041 10.008 116.991 8.86 115.367 8.86C114.457 8.86 113.659 9.252 113.239 9.952V5.5H111.699V16ZM119.522 12.5C119.522 14.628 121.048 16.14 123.176 16.14C124.646 16.14 125.738 15.51 126.368 14.516L125.192 13.676C124.828 14.292 124.17 14.74 123.19 14.74C122.028 14.74 121.104 13.984 121.034 12.836H126.536C126.55 12.612 126.55 12.486 126.55 12.332C126.55 10.078 125.01 8.86 123.176 8.86C121.048 8.86 119.522 10.442 119.522 12.5ZM123.12 10.162C124.016 10.162 124.828 10.708 124.996 11.716H121.104C121.314 10.68 122.224 10.162 123.12 10.162ZM127.629 12.5C127.629 14.502 129.085 16.14 131.003 16.14C132.011 16.14 132.851 15.622 133.243 15.062V16H134.783V9H133.243V9.938C132.851 9.378 132.011 8.86 131.003 8.86C129.085 8.86 127.629 10.498 127.629 12.5ZM133.369 12.5C133.369 13.76 132.529 14.74 131.283 14.74C130.037 14.74 129.197 13.76 129.197 12.5C129.197 11.24 130.037 10.26 131.283 10.26C132.529 10.26 133.369 11.24 133.369 12.5ZM136.365 12.5C136.365 14.502 137.821 16.14 139.739 16.14C140.747 16.14 141.587 15.622 141.979 15.062V16H143.519V5.5H141.979V9.938C141.587 9.378 140.747 8.86 139.739 8.86C137.821 8.86 136.365 10.498 136.365 12.5ZM142.105 12.5C142.105 13.76 141.265 14.74 140.019 14.74C138.773 14.74 137.933 13.76 137.933 12.5C137.933 11.24 138.773 10.26 140.019 10.26C141.265 10.26 142.105 11.24 142.105 12.5ZM148.396 12.5C148.396 14.502 149.852 16.14 151.77 16.14C152.778 16.14 153.618 15.622 154.01 15.062V16H155.55V9H154.01V9.938C153.618 9.378 152.778 8.86 151.77 8.86C149.852 8.86 148.396 10.498 148.396 12.5ZM154.136 12.5C154.136 13.76 153.296 14.74 152.05 14.74C150.804 14.74 149.964 13.76 149.964 12.5C149.964 11.24 150.804 10.26 152.05 10.26C153.296 10.26 154.136 11.24 154.136 12.5ZM157.637 18.926H159.177V15.062C159.569 15.622 160.423 16.14 161.431 16.14C163.349 16.14 164.805 14.502 164.805 12.5C164.805 10.498 163.349 8.86 161.431 8.86C160.423 8.86 159.569 9.378 159.177 9.938V9H157.637V18.926ZM163.237 12.5C163.237 13.76 162.383 14.74 161.151 14.74C159.905 14.74 159.051 13.76 159.051 12.5C159.051 11.24 159.905 10.26 161.151 10.26C162.383 10.26 163.237 11.24 163.237 12.5ZM166.373 18.926H167.913V15.062C168.305 15.622 169.159 16.14 170.167 16.14C172.085 16.14 173.541 14.502 173.541 12.5C173.541 10.498 172.085 8.86 170.167 8.86C169.159 8.86 168.305 9.378 167.913 9.938V9H166.373V18.926ZM171.973 12.5C171.973 13.76 171.119 14.74 169.887 14.74C168.641 14.74 167.787 13.76 167.787 12.5C167.787 11.24 168.641 10.26 169.887 10.26C171.119 10.26 171.973 11.24 171.973 12.5Z" fill="#A2A2A2"/>
</svg>
