<svg width="15" height="12" viewBox="0 0 15 12" fill="none" xmlns="http://www.w3.org/2000/svg">
<path d="M7.50057 12C7.41283 12.0005 7.32585 11.9837 7.24463 11.9505C7.1634 11.9173 7.08953 11.8685 7.02723 11.8067L1.84723 6.62001C1.19747 5.96346 0.833008 5.07706 0.833008 4.15334C0.833008 3.22963 1.19747 2.34323 1.84723 1.68668C2.50207 1.03369 3.38912 0.666992 4.3139 0.666992C5.23868 0.666992 6.12573 1.03369 6.78057 1.68668L7.50057 2.40668L8.22057 1.68668C8.87541 1.03369 9.76245 0.666992 10.6872 0.666992C11.612 0.666992 12.4991 1.03369 13.1539 1.68668C13.8037 2.34323 14.1681 3.22963 14.1681 4.15334C14.1681 5.07706 13.8037 5.96346 13.1539 6.62001L7.9739 11.8067C7.91161 11.8685 7.83773 11.9173 7.7565 11.9505C7.67528 11.9837 7.5883 12.0005 7.50057 12Z" fill="#A2A2A2"/>
</svg>
