<svg width="20" height="24" viewBox="0 0 20 24" fill="none" xmlns="http://www.w3.org/2000/svg">
<path fill-rule="evenodd" clip-rule="evenodd" d="M14.1676 2.924L2.50959 13.061C2.47103 13.0944 2.4436 13.1388 2.43099 13.1882C2.41838 13.2376 2.42119 13.2897 2.43904 13.3375C2.45689 13.3853 2.48892 13.4264 2.53085 13.4555C2.57277 13.4845 2.62258 13.5001 2.67359 13.5H8.12359C8.24735 13.4999 8.36923 13.5304 8.47834 13.5888C8.58746 13.6472 8.68042 13.7317 8.74893 13.8348C8.81745 13.9379 8.85939 14.0563 8.87102 14.1795C8.88265 14.3027 8.86361 14.4269 8.81559 14.541L6.25659 20.607L17.4716 10.939C17.5101 10.9056 17.5376 10.8612 17.5502 10.8118C17.5628 10.7624 17.56 10.7103 17.5421 10.6625C17.5243 10.6147 17.4923 10.5736 17.4503 10.5445C17.4084 10.5155 17.3586 10.4999 17.3076 10.5H11.9996C11.8751 10.4999 11.7526 10.4689 11.6431 10.4096C11.5336 10.3504 11.4405 10.2648 11.3724 10.1606C11.3042 10.0564 11.2631 9.93694 11.2526 9.81288C11.2422 9.68882 11.2628 9.56411 11.3126 9.45L14.1676 2.924ZM13.7156 1.329C13.9453 1.12873 14.2365 1.0127 14.541 1.00003C14.8455 0.987363 15.1453 1.07881 15.3909 1.25931C15.6365 1.43981 15.8133 1.69859 15.8921 1.99301C15.9709 2.28743 15.9471 2.59993 15.8246 2.879L13.1466 9H17.3076C18.9306 9 19.6796 11.016 18.4506 12.075L6.10159 22.721C5.90536 22.8909 5.65739 22.9893 5.39807 23.0003C5.13875 23.0113 4.88336 22.9341 4.67349 22.7814C4.46361 22.6287 4.31162 22.4094 4.24228 22.1593C4.17293 21.9092 4.19031 21.643 4.29159 21.404L6.99559 15H2.67359C1.05459 15 0.303587 12.992 1.52559 11.93L13.7156 1.33V1.329Z" fill="black"/>
</svg>
