<svg width="228" height="172" viewBox="0 0 228 172" fill="none" xmlns="http://www.w3.org/2000/svg">
<path fill-rule="evenodd" clip-rule="evenodd" d="M154.501 77.6408C153.948 78.2037 153.259 78.6099 152.504 78.8184C151.748 79.027 150.953 79.0304 150.199 78.8283C149.445 78.6262 148.759 78.2259 148.209 77.6676C147.659 77.1094 147.265 76.4131 147.068 75.6489L133.091 23.7851C132.16 20.3269 135.262 17.0791 138.63 17.9815L190.646 31.9192C194.018 32.8226 195.075 37.1891 192.541 39.7146L154.501 77.6408Z" fill="url(#paint0_linear)"/>
<rect x="140.867" y="166.195" width="53.7397" height="53.7397" rx="14.4484" transform="rotate(-122.491 140.867 166.195)" fill="url(#paint1_linear)"/>
<path d="M33.5 122.8C50.3 104.7 74.8 73.5997 95.4 74.3997C116 75.1997 142.5 89.5997 149.3 108.9C156.1 128.2 146.8 137.9 130.4 145.9C114 153.9 83.3 155.6 87.5 123.6C91.7 91.5997 108.5 73.0997 114.9 67.5997C121.3 62.0997 136.2 54.9997 149.3 60.4997C162.4 65.9997 205 96.0997 205 96.0997" stroke="#6442EF" stroke-width="3" stroke-miterlimit="10" stroke-linecap="round" stroke-linejoin="round"/>
<path d="M202.7 83.7002L204.9 96.1002L192.2 99.3002" stroke="#6442EF" stroke-width="3" stroke-miterlimit="10" stroke-linecap="round" stroke-linejoin="round"/>
<ellipse cx="44.7139" cy="87.7139" rx="30.7138" ry="30.7138" transform="rotate(-180 44.7139 87.7139)" fill="url(#paint2_linear)"/>
<defs>
<linearGradient id="paint0_linear" x1="150.111" y1="78.8821" x2="171.153" y2="27.5056" gradientUnits="userSpaceOnUse">
<stop stop-color="#57C896" stop-opacity="0"/>
<stop offset="1" stop-color="#57C896"/>
</linearGradient>
<linearGradient id="paint1_linear" x1="167.737" y1="166.195" x2="198.701" y2="197.159" gradientUnits="userSpaceOnUse">
<stop stop-color="#FD8F55"/>
<stop offset="1" stop-color="#FD8F55" stop-opacity="0"/>
</linearGradient>
<linearGradient id="paint2_linear" x1="44.7139" y1="57.0001" x2="44.7139" y2="118.428" gradientUnits="userSpaceOnUse">
<stop stop-color="#FEC200" stop-opacity="0"/>
<stop offset="1" stop-color="#FEC200"/>
</linearGradient>
</defs>
</svg>
