<svg width="84" height="84" viewBox="0 0 84 84" fill="none" xmlns="http://www.w3.org/2000/svg">
<path d="M39.3081 2C37.5388 7.30766 38.6158 24.3075 38.9234 26.2306" stroke="#6442EF" stroke-width="3" stroke-linecap="round" stroke-linejoin="round"/>
<path d="M38.9234 61.6155C38.8465 68.3847 38.5388 75.1539 38.5388 82" stroke="#6442EF" stroke-width="3" stroke-linecap="round" stroke-linejoin="round"/>
<path d="M59.692 41.6147C66.8458 39.6147 74.9227 42.2301 81.9996 40.4609" stroke="#6442EF" stroke-width="3" stroke-linecap="round" stroke-linejoin="round"/>
<path d="M2.00049 41.2305C8.5389 40.2305 15.2312 41.692 21.6157 40.0767" stroke="#6442EF" stroke-width="3" stroke-linecap="round" stroke-linejoin="round"/>
<path d="M56.231 24.6922C58.0771 22.6922 60.154 20.7692 62.0001 18.923" stroke="#6442EF" stroke-width="3" stroke-linecap="round" stroke-linejoin="round"/>
<path d="M15.0771 20.0771C18.4617 22.6156 21.231 25.3079 23.9232 28.5386" stroke="#6442EF" stroke-width="3" stroke-linecap="round" stroke-linejoin="round"/>
<path d="M17.7701 64.3079C19.847 60.3849 23.5393 58.308 26.2316 55.0772" stroke="#6442EF" stroke-width="3" stroke-linecap="round" stroke-linejoin="round"/>
<path d="M55.8459 56.9989C59.2305 59.2297 61.3074 62.4604 63.9228 65.0758" stroke="#6442EF" stroke-width="3" stroke-linecap="round" stroke-linejoin="round"/>
</svg>
